<?xml version="1.0" standalone="no"?>
<!DOCTYPE svg PUBLIC "-//W3C//DTD SVG 20010904//EN"
 "http://www.w3.org/TR/2001/REC-SVG-20010904/DTD/svg10.dtd">
<svg version="1.0" xmlns="http://www.w3.org/2000/svg"
 width="260.000000pt" height="260.000000pt" viewBox="0 0 260.000000 260.000000"
 preserveAspectRatio="xMidYMid meet">
<metadata>
Created by potrace 1.14, written by Peter Selinger 2001-2017
</metadata>
<g transform="translate(0.000000,260.000000) scale(0.100000,-0.100000)"
fill="#000000" stroke="none">
<path d="M21 2585 c-1 -15 -4 -16 -10 -7 -4 8 -8 -21 -9 -67 0 -82 3 -91 28
-68 8 6 6 2 -4 -10 -11 -13 -15 -23 -10 -23 5 0 3 -4 -5 -9 -13 -8 -13 -12 0
-27 9 -11 9 -15 1 -10 -7 4 -12 1 -12 -9 0 -10 5 -14 13 -9 10 6 10 4 0 -7
-21 -22 -16 -42 7 -29 14 7 20 7 20 0 0 -5 -6 -10 -14 -10 -21 0 -31 -21 -15
-31 8 -5 9 -9 4 -9 -6 0 -12 -25 -13 -55 -1 -51 0 -55 21 -55 17 0 19 -2 7 -9
-8 -6 -17 -8 -20 -6 -10 6 -6 -178 4 -194 6 -9 5 -12 0 -8 -17 10 -13 -64 4
-84 10 -11 17 -23 17 -27 0 -4 4 -14 10 -22 8 -13 7 -13 -8 -1 -9 7 -15 17
-12 21 3 4 -1 12 -8 18 -10 9 -13 0 -15 -39 -2 -38 1 -48 10 -43 10 6 9 3 0
-9 -15 -17 -14 -123 1 -144 4 -6 3 -14 -3 -18 -5 -3 -10 -13 -10 -20 0 -11 6
-12 25 -5 14 5 25 7 25 5 0 -3 -12 -10 -27 -16 -22 -8 -24 -12 -13 -19 10 -7
11 -10 3 -10 -7 0 -13 -7 -13 -15 0 -15 7 -18 45 -17 18 1 18 0 2 -5 -13 -3
-17 -11 -14 -24 3 -10 2 -18 -2 -17 -26 3 -30 -6 -30 -89 0 -56 5 -99 14 -118
13 -26 14 -27 10 -5 -3 14 -2 19 1 13 3 -7 11 -13 17 -13 18 0 46 -31 40 -46
-3 -8 -1 -14 5 -14 6 0 13 6 15 13 4 9 6 9 6 0 1 -6 -4 -15 -9 -18 -8 -5 -7
-12 2 -23 8 -11 4 -10 -11 3 l-24 20 12 -22 c15 -29 14 -37 -3 -21 -8 7 -12
15 -10 17 2 2 -2 11 -9 19 -7 10 -8 13 -1 9 7 -4 14 2 17 13 3 13 0 20 -10 20
-8 0 -11 5 -8 10 3 6 2 10 -4 10 -5 0 -11 -6 -14 -12 -3 -10 -7 -10 -20 1 -15
12 -17 11 -17 -3 0 -9 5 -16 10 -16 6 0 10 -8 10 -17 0 -13 -3 -14 -8 -5 -5 7
-8 -6 -8 -30 1 -24 5 -49 10 -57 6 -10 6 -12 -3 -7 -8 6 -11 -8 -10 -49 1 -34
5 -51 10 -43 7 10 9 9 9 -4 0 -10 5 -18 10 -18 12 0 10 31 -2 40 -4 3 -9 18
-12 33 -3 20 -1 27 11 27 11 0 14 -6 9 -24 -4 -18 -1 -29 12 -38 20 -15 42
-45 24 -34 -12 7 -45 -22 -37 -34 3 -5 1 -11 -4 -15 -6 -3 -8 4 -6 15 3 14 0
20 -8 17 -17 -5 -21 -68 -5 -78 10 -7 10 -9 1 -9 -9 0 -13 -17 -13 -50 0 -30
4 -50 11 -50 8 0 8 -4 1 -13 -15 -18 -14 -537 2 -537 8 0 8 -2 -1 -8 -14 -9
-13 -124 2 -134 6 -5 6 -8 -2 -8 -7 0 -13 -5 -13 -10 0 -6 8 -10 17 -8 11 2
18 -4 20 -17 l3 -20 -9 20 -10 20 0 -20 c-1 -17 -3 -17 -11 -5 -8 13 -10 12
-10 -2 0 -15 9 -18 44 -18 26 0 46 5 49 13 4 9 6 9 6 0 1 -16 127 -18 136 -3
5 8 11 8 20 0 19 -16 195 -9 195 7 0 7 7 13 16 13 13 0 14 -3 5 -14 -10 -12
-2 -14 46 -14 69 1 83 5 76 24 -4 10 -10 11 -23 4 -16 -9 -18 -7 -15 11 3 12
0 29 -5 38 -6 11 -9 12 -10 3 0 -7 -5 -10 -11 -7 -6 5 -4 12 8 21 25 19 43 17
43 -3 0 -15 -2 -16 -10 -3 -7 11 -9 7 -7 -17 1 -18 7 -32 12 -32 21 2 35 -1
34 -8 -4 -27 4 -33 47 -33 25 0 43 4 40 8 -3 5 1 9 9 9 8 0 12 -3 10 -7 -2 -3
28 -6 66 -7 38 -1 69 3 69 8 0 5 5 9 11 9 5 0 7 -4 4 -10 -4 -6 17 -9 57 -7
35 2 62 7 60 13 -1 5 -13 9 -27 8 -14 0 -25 5 -25 10 0 6 -4 5 -8 -2 -6 -9
-16 -10 -32 -4 -19 7 -21 10 -7 15 10 4 17 1 17 -6 1 -7 8 -3 18 9 10 11 23
19 30 16 6 -2 12 4 12 13 0 13 2 14 14 3 12 -11 11 -14 -5 -20 -10 -4 -19 -10
-19 -13 0 -4 4 -4 9 0 12 7 43 -24 36 -35 -3 -4 22 -8 55 -8 37 1 60 5 60 12
0 7 3 6 8 -2 10 -14 62 -12 62 3 0 6 3 6 8 -1 11 -17 92 -14 92 3 0 7 5 13 11
13 6 0 9 -7 5 -15 -3 -9 0 -15 10 -15 9 0 12 5 8 13 -6 9 -4 9 8 -1 13 -10 17
-10 21 0 4 10 6 10 6 1 1 -17 48 -17 54 0 4 9 6 9 6 0 1 -7 6 -13 12 -13 5 0
8 4 5 8 -3 5 1 9 9 9 8 0 12 -4 9 -9 -3 -4 14 -8 38 -8 31 0 39 3 28 10 -13 8
-12 10 3 10 9 0 17 -5 17 -10 0 -6 13 -9 29 -8 16 1 27 6 25 10 -3 4 1 8 8 8
9 0 9 3 -2 10 -11 7 -11 10 -2 10 7 0 10 5 7 10 -3 6 -1 10 5 10 6 0 10 -6 9
-13 -5 -43 18 -58 50 -33 11 8 13 8 7 -1 -5 -9 -2 -11 8 -7 10 4 14 15 12 28
-3 14 1 23 10 23 7 0 11 -4 8 -8 -2 -4 2 -10 8 -12 10 -4 10 -6 1 -6 -7 -1
-13 -7 -13 -15 0 -12 19 -15 99 -14 92 1 99 3 91 19 -7 12 -6 19 3 22 7 3 5 6
-5 6 -10 1 -18 6 -18 13 0 6 3 8 7 5 3 -4 13 -1 21 5 25 21 52 20 52 -3 0 -11
-5 -17 -10 -14 -6 4 -8 12 -4 18 3 7 -4 1 -16 -12 -23 -27 -22 -47 4 -45 9 1
16 -3 16 -8 0 -8 70 -6 97 1 1 1 0 9 -3 19 -4 11 1 9 14 -8 18 -21 22 -22 38
-10 11 9 15 10 10 2 -5 -8 0 -12 13 -12 12 0 21 6 21 13 0 9 2 9 8 1 9 -15 84
-14 94 0 5 7 8 7 8 -1 0 -7 11 -13 25 -13 14 0 25 2 25 4 0 16 -24 66 -32 66
-7 0 -6 5 1 13 6 8 8 17 4 20 -3 4 -1 7 5 7 6 0 14 -4 17 -10 3 -5 2 -10 -3
-10 -15 0 -2 -38 15 -44 8 -3 20 -3 26 1 7 3 9 3 5 -2 -4 -4 -1 -13 8 -19 13
-10 12 -12 -6 -13 -11 -1 -18 2 -15 7 3 4 -2 11 -11 14 -12 5 -15 2 -10 -10 3
-8 6 -18 6 -20 0 -2 31 -4 69 -4 46 0 71 4 74 13 4 8 8 9 14 2 4 -6 37 -12 73
-12 l65 -2 3 129 c2 81 -1 131 -8 135 -5 3 -10 12 -10 18 0 7 4 6 10 -3 7 -10
10 36 9 142 -1 87 -6 155 -10 152 -5 -3 -9 2 -9 11 0 9 5 13 10 10 17 -11 11
17 -7 31 -13 10 -14 13 -3 9 12 -4 16 3 17 30 0 20 -4 35 -11 35 -6 0 -4 5 4
10 13 9 13 11 0 20 -9 6 -10 10 -3 10 13 0 12 127 -1 148 -4 7 -2 12 3 12 6 0
11 5 11 11 0 5 -6 7 -12 3 -10 -6 -10 -4 0 8 17 21 -3 35 -24 17 -12 -10 -13
-9 -7 6 5 15 3 17 -11 12 -10 -4 -15 -3 -11 3 3 6 13 10 21 10 8 0 14 5 14 11
0 5 -5 7 -12 3 -7 -4 -8 -3 -4 5 9 14 26 5 26 -15 0 -8 5 -14 10 -14 12 0 10
31 -2 40 -4 3 -9 18 -12 33 -3 19 0 27 10 27 22 0 17 20 -12 47 -22 20 -23 24
-8 21 11 -2 22 -10 25 -18 4 -8 7 8 6 35 -1 36 -6 54 -19 63 -10 7 -18 22 -18
33 0 13 -4 18 -12 13 -7 -4 -8 -3 -4 4 11 18 16 15 28 -19 15 -45 28 -17 26
55 -2 53 -10 71 -21 44 -4 -8 -6 -7 -6 4 -1 9 -7 19 -13 22 -7 3 -1 3 15 0 20
-5 27 -2 27 9 0 8 -6 18 -12 20 -10 4 -10 6 0 6 6 1 12 6 12 12 0 5 -4 8 -9 4
-5 -3 -13 -1 -16 5 -4 6 -1 9 6 8 9 -2 14 16 16 61 4 63 3 63 -21 57 -14 -3
-27 -2 -30 3 -3 5 0 9 7 8 37 -1 45 4 43 28 0 14 -5 25 -10 25 -5 0 -3 6 3 14
9 11 9 16 0 21 -8 6 -8 9 1 15 7 4 9 13 6 19 -4 6 -12 8 -18 5 -7 -4 -8 -2 -4
5 4 6 11 9 16 6 13 -8 10 98 -3 114 -8 10 -8 12 -1 8 7 -4 11 20 12 78 0 58
-3 85 -11 85 -7 0 -6 5 3 10 13 9 13 11 0 20 -10 6 -11 10 -2 10 6 0 12 8 12
18 0 10 -6 24 -12 31 -10 11 -10 13 0 7 8 -5 12 1 12 19 0 18 -4 24 -12 19 -9
-6 -9 -3 0 9 12 14 10 16 -23 13 -20 -2 -33 -1 -30 3 7 6 13 8 45 10 17 1 20
8 20 46 0 25 -5 45 -11 45 -5 0 -7 -4 -4 -10 10 -16 -1 -12 -15 6 -8 8 -9 14
-4 13 22 -4 30 3 32 26 2 29 -9 31 -43 9 -14 -9 -25 -14 -25 -11 0 3 15 15 34
27 33 20 35 23 34 80 -1 49 -4 58 -14 49 -8 -6 -11 -15 -8 -20 3 -5 1 -9 -4
-9 -6 0 -12 7 -16 15 -3 9 0 15 8 15 7 0 19 7 27 16 10 13 10 17 -2 25 -8 5
-9 9 -3 9 12 0 12 105 1 117 -4 3 -7 -2 -7 -13 -1 -18 -1 -18 -11 -1 -12 20
-39 23 -39 5 0 -9 -2 -10 -8 -2 -6 10 -232 17 -232 7 0 -3 5 -14 11 -26 10
-21 10 -21 -5 -3 -9 11 -16 25 -17 30 0 6 -4 2 -9 -9 -6 -14 -9 -15 -9 -5 -1
16 -41 23 -41 8 0 -4 -9 -8 -21 -8 -11 0 -17 5 -14 10 4 6 -10 10 -35 10 -30
0 -39 -3 -34 -12 6 -10 5 -10 -7 -2 -8 7 -26 12 -41 12 -23 0 -26 -3 -18 -19
14 -25 12 -29 -7 -22 -11 4 -14 3 -9 -5 4 -7 2 -12 -3 -12 -6 0 -11 7 -11 15
0 8 4 15 10 15 5 0 7 6 4 13 -7 18 -138 23 -131 5 2 -7 12 -12 21 -12 9 1 16
-2 16 -7 0 -16 -39 -9 -49 9 -9 16 -36 17 -320 19 -229 1 -311 -2 -311 -10 0
-9 -2 -9 -8 0 -4 6 -25 10 -47 10 -31 -2 -40 -6 -39 -19 1 -10 -4 -14 -12 -11
-7 2 -11 10 -8 16 3 8 -13 13 -47 15 -37 2 -49 0 -44 -8 6 -9 2 -9 -13 -1 -30
16 -55 14 -49 -4 4 -8 2 -17 -4 -20 -5 -4 -8 -1 -7 6 2 8 -7 13 -22 13 -14 1
-28 6 -32 11 -5 6 -8 5 -8 -2 0 -7 -5 -13 -11 -13 -5 0 -8 3 -6 8 6 9 -60 9
-69 -1 -4 -4 -12 -7 -18 -7 -6 0 -4 5 4 10 12 8 11 10 -7 10 -13 0 -23 -5 -23
-11 0 -6 -5 -7 -12 -2 -14 8 -158 14 -171 6 -4 -2 -2 -13 3 -24 6 -11 15 -17
20 -14 5 3 11 1 15 -4 3 -6 -3 -8 -15 -6 -25 5 -59 24 -43 25 7 0 10 7 7 15
-5 11 -10 12 -26 4 -15 -8 -19 -8 -13 0 5 8 -2 11 -22 8 -15 -3 -27 -10 -25
-16 1 -7 -2 -10 -8 -6 -6 3 -8 11 -5 16 9 14 -69 11 -83 -3 -8 -8 -12 -8 -12
-1 0 14 -53 14 -62 -1 -6 -8 -8 -8 -8 1 0 9 -27 12 -100 11 -77 0 -100 -4
-100 -14 0 -8 -4 -14 -10 -14 -5 0 -7 7 -3 16 4 12 0 15 -18 12 -13 -1 -27
-10 -31 -18 -5 -12 -7 -12 -7 3 -1 9 -5 17 -11 17 -5 0 -10 -8 -11 -17 0 -15
-2 -15 -9 2 l-9 20 0 -20z m144 -5 c-3 -5 -11 -10 -16 -10 -6 0 -7 5 -4 10 3
6 11 10 16 10 6 0 7 -4 4 -10z m307 -2 c-7 -7 -12 -16 -12 -22 0 -6 5 -5 11 1
13 13 42 6 34 -8 -3 -4 -13 -5 -23 -2 -15 6 -15 5 -3 -10 7 -9 23 -18 35 -18
20 -2 20 -2 -2 -6 -14 -3 -20 -9 -16 -16 4 -7 4 -9 -1 -5 -4 4 -15 3 -25 -2
-12 -6 -17 -5 -17 6 0 8 6 13 13 10 22 -9 25 10 4 29 -25 22 -26 55 -3 55 13
0 14 -3 5 -12z m828 2 c0 -5 -4 -10 -10 -10 -5 0 -10 5 -10 10 0 6 5 10 10 10
6 0 10 -4 10 -10z m296 -22 c-14 -8 -15 -13 -5 -24 8 -10 9 -18 2 -25 -6 -6
-10 -5 -11 3 0 7 -3 23 -6 35 -5 24 25 53 33 31 2 -6 -4 -15 -13 -20z m104 20
c0 -7 -12 -18 -26 -25 -22 -10 -25 -9 -22 5 2 10 11 16 21 14 9 -2 17 2 17 8
0 5 2 10 5 10 3 0 5 -6 5 -12z m644 4 c2 -4 -4 -9 -15 -9 -11 -1 -17 2 -14 8
7 11 22 12 29 1z m36 -2 c0 -5 -5 -10 -11 -10 -5 0 -7 5 -4 10 3 6 8 10 11 10
2 0 4 -4 4 -10z m-2125 -10 c3 -5 -1 -10 -10 -10 -9 0 -13 5 -10 10 3 6 8 10
10 10 2 0 7 -4 10 -10z m456 -3 c-7 -7 -7 -16 0 -28 7 -14 6 -17 -4 -13 -17 6
-17 51 0 51 9 0 10 -4 4 -10z m154 3 c-3 -5 1 -10 10 -10 9 0 14 -4 10 -10 -8
-13 -35 -1 -35 16 0 8 5 14 11 14 5 0 7 -4 4 -10z m465 -10 c6 -11 8 -20 6
-20 -3 0 -10 9 -16 20 -6 11 -8 20 -6 20 3 0 10 -9 16 -20z m117 -3 c1 -11 1
-18 0 -16 -2 2 -8 11 -15 20 -9 12 -9 16 1 16 7 0 14 -9 14 -20z m83 16 c0
-15 -15 -29 -35 -36 -17 -6 -16 -4 4 12 18 14 21 20 10 24 -10 4 -9 6 4 6 9 1
17 -2 17 -6z m731 -18 c13 9 31 -4 23 -17 -4 -6 -10 -5 -15 3 -7 11 -9 9 -9
-6 -1 -19 -2 -19 -10 2 -6 15 -15 20 -29 16 -12 -3 -21 -1 -21 6 0 5 7 8 15 5
9 -4 15 0 15 7 1 9 4 8 11 -4 6 -9 14 -15 20 -12z m199 15 c0 -5 -5 -10 -11
-10 -8 0 -8 -5 1 -15 10 -12 10 -15 -4 -15 -9 0 -16 5 -16 11 0 5 -6 7 -12 3
-7 -4 -4 2 7 14 22 23 35 27 35 12z m-2065 -10 c3 -5 1 -10 -4 -10 -6 0 -11 5
-11 10 0 6 2 10 4 10 3 0 8 -4 11 -10z m43 -10 c3 -8 0 -10 -8 -5 -12 7 -11 0
8 -55 3 -11 2 -12 -6 -5 -16 14 -24 87 -9 82 6 -2 13 -9 15 -17z m128 8 c4 -7
4 -10 -1 -6 -4 4 -17 3 -29 -3 -20 -10 -20 -10 -2 5 24 19 23 19 32 4z m388 0
c-3 -4 -11 -5 -19 -1 -21 7 -19 12 4 10 11 0 18 -5 15 -9z m111 -26 c-6 -8
-32 11 -32 23 0 12 4 11 17 -3 10 -9 16 -18 15 -20z m34 9 c7 -13 6 -18 -5
-18 -7 0 -12 2 -9 5 2 3 0 14 -6 25 -8 14 -8 18 0 13 6 -4 15 -15 20 -25z
m715 20 c9 -13 -4 -42 -16 -35 -5 3 -4 11 3 20 21 25 -1 15 -27 -13 -14 -15
-22 -20 -18 -10 4 12 2 16 -7 14 -8 -2 -11 -2 -6 0 4 3 4 10 0 16 -4 8 -1 7 9
-1 13 -10 17 -10 22 3 6 16 32 20 40 6z m75 -22 c1 8 4 12 7 8 10 -10 -6 -26
-20 -21 -9 3 -12 14 -8 27 6 21 6 21 13 -3 4 -14 7 -19 8 -11z m616 21 c3 -5
2 -10 -4 -10 -5 0 -13 5 -16 10 -3 6 -2 10 4 10 5 0 13 -4 16 -10z m59 2 c2
-4 -7 -8 -22 -9 -24 -2 -24 -1 -7 7 11 5 21 9 22 9 1 1 4 -3 7 -7z m-2414 -21
c0 -10 -8 -22 -17 -26 -15 -5 -16 -4 -5 6 17 18 15 27 -5 32 -14 4 -12 5 5 6
15 1 22 -5 22 -18z m65 0 c5 -13 7 -14 16 -1 9 13 10 13 6 -1 -3 -9 0 -23 6
-30 10 -11 9 -11 -4 -1 -9 6 -19 8 -23 4 -4 -4 -6 -2 -4 5 2 6 -5 18 -16 26
-15 11 -16 14 -3 14 9 0 19 -7 22 -16z m84 1 c7 -13 6 -19 -2 -19 -7 0 -13 9
-13 19 0 10 1 18 3 18 1 0 7 -8 12 -18z m375 3 c3 -8 1 -15 -4 -15 -6 0 -10 7
-10 15 0 8 2 15 4 15 2 0 6 -7 10 -15z m1039 -6 c-8 -8 -13 -7 -18 2 -5 8 -4
10 3 5 7 -4 12 -2 12 5 0 7 3 9 7 6 4 -4 2 -12 -4 -18z m-1446 -11 c-3 -8 -6
-5 -6 6 -1 11 2 17 5 13 3 -3 4 -12 1 -19z m327 7 c3 -8 1 -15 -4 -15 -6 0
-10 7 -10 15 0 8 2 15 4 15 2 0 6 -7 10 -15z m1526 4 c13 -9 12 -10 -2 -5 -12
3 -18 0 -18 -10 0 -8 -4 -12 -10 -9 -14 9 -12 35 3 35 6 0 19 -5 27 -11z
m-2060 -3 c0 -2 -7 -9 -15 -16 -13 -11 -14 -10 -9 4 5 14 24 23 24 12z m60 -2
c0 -8 -19 -13 -24 -6 -3 5 1 9 9 9 8 0 15 -2 15 -3z m790 -4 c0 -5 -2 -10 -4
-10 -3 0 -8 5 -11 10 -3 6 -1 10 4 10 6 0 11 -4 11 -10z m937 -12 c-3 -8 -6
-5 -6 6 -1 11 2 17 5 13 3 -3 4 -12 1 -19z m540 15 c-4 -3 1 -12 11 -20 15
-11 15 -12 1 -7 -10 3 -20 1 -24 -5 -3 -6 -12 -11 -18 -11 -7 0 -6 4 3 10 8 5
16 14 16 20 2 17 4 20 11 20 3 0 3 -3 0 -7z m-2047 -7 c0 -3 -4 -8 -10 -11 -5
-3 -10 -1 -10 4 0 6 5 11 10 11 6 0 10 -2 10 -4z m50 -2 c0 -8 -19 -13 -24 -6
-3 5 1 9 9 9 8 0 15 -2 15 -3z m653 -18 c15 -22 15 -25 -1 -37 -14 -11 -15
-11 -5 0 9 11 8 19 -4 37 -8 13 -13 24 -10 24 2 0 12 -11 20 -24z m260 4 c-3
-11 -9 -17 -15 -14 -5 3 -4 12 3 20 16 19 18 18 12 -6z m751 12 c2 -4 -4 -8
-14 -8 -10 0 -16 4 -14 8 3 4 9 8 14 8 5 0 11 -4 14 -8z m131 -2 c-3 -5 -12
-10 -18 -10 -7 0 -6 4 3 10 19 12 23 12 15 0z m291 -21 c3 -5 -3 -6 -13 -2
-15 6 -16 4 -6 -8 19 -23 24 -86 7 -86 -9 0 -11 4 -4 12 12 14 1 57 -13 48 -6
-4 -8 0 -4 10 4 10 1 17 -6 17 -8 0 -6 4 3 10 13 8 13 10 -2 10 -9 0 -19 4
-23 10 -3 5 7 5 25 -1 16 -6 33 -15 36 -20z m-2386 6 c11 -13 10 -14 -5 -9
-13 5 -16 4 -11 -4 4 -7 2 -12 -3 -12 -6 0 -11 9 -11 20 0 24 13 26 30 5z
m480 11 c0 -2 -8 -10 -17 -17 -16 -13 -17 -12 -4 4 13 16 21 21 21 13z m270
-11 c6 -7 20 -11 30 -8 11 3 20 1 20 -4 0 -13 -35 -10 -53 5 -8 7 -22 10 -31
6 -9 -3 -16 -2 -16 3 0 14 38 13 50 -2z m1105 5 c-3 -5 0 -10 7 -11 9 0 10 -2
1 -5 -7 -3 -9 -13 -6 -21 5 -13 2 -12 -14 3 -18 17 -19 20 -5 32 19 15 25 16
17 2z m55 1 c0 -6 -4 -12 -8 -15 -5 -3 -9 1 -9 9 0 8 4 15 9 15 4 0 8 -4 8 -9z
m246 -4 c8 3 14 0 14 -6 0 -6 5 -11 11 -11 5 0 7 5 3 12 -4 7 -3 8 4 4 16 -10
15 -26 -2 -26 -9 0 -12 -7 -9 -19 3 -10 1 -21 -4 -24 -5 -3 -8 7 -7 24 2 22
-2 29 -16 29 -10 0 -21 8 -25 18 -5 13 -3 14 6 5 6 -6 18 -9 25 -6z m294 2 c0
-6 7 -9 15 -5 8 3 15 1 15 -3 0 -18 -27 -18 -38 0 -8 12 -8 19 -2 19 5 0 10
-5 10 -11z m-2359 -8 c-11 -7 -10 -11 5 -20 11 -6 14 -11 8 -11 -6 0 -18 8
-27 18 -15 17 -15 18 6 19 15 2 18 0 8 -6z m163 -53 c-14 -22 -40 -4 -35 25 0
4 -5 7 -12 7 -8 0 -14 6 -14 14 0 10 11 6 33 -12 18 -14 30 -30 28 -34z m333
41 c-9 -6 -14 -16 -11 -22 4 -7 3 -9 -1 -4 -5 4 -16 0 -25 -8 -14 -13 -16 -12
-17 8 -2 17 0 19 7 7 9 -14 14 -7 11 13 -1 5 3 6 8 3 5 -3 14 1 21 9 7 9 16
13 19 9 3 -3 -2 -10 -12 -15z m66 6 c-3 -9 -8 -14 -10 -11 -3 3 -2 9 2 15 9
16 15 13 8 -4z m797 5 c0 -5 -5 -10 -11 -10 -5 0 -7 5 -4 10 3 6 8 10 11 10 2
0 4 -4 4 -10z m152 -5 c2 3 5 -1 5 -9 0 -11 -4 -12 -19 -3 -10 7 -18 16 -18
21 0 4 6 3 13 -3 8 -6 16 -9 19 -6z m35 -7 c-3 -8 -6 -5 -6 6 -1 11 2 17 5 13
3 -3 4 -12 1 -19z m163 18 c0 -2 -7 -7 -16 -10 -8 -3 -12 -2 -9 4 6 10 25 14
25 6z m248 -14 c2 -7 -1 -12 -8 -12 -6 0 -8 5 -5 10 3 6 1 10 -4 10 -6 0 -11
-12 -11 -26 0 -14 -4 -23 -9 -20 -18 11 2 60 22 53 6 -2 13 -9 15 -15z m179 3
c0 -8 -4 -12 -9 -9 -5 3 -6 10 -3 15 9 13 12 11 12 -6z m-1962 -5 c-3 -5 -12
-10 -18 -10 -7 0 -6 4 3 10 19 12 23 12 15 0z m252 -7 c0 -10 -4 -10 -16 -1
-9 7 -18 13 -20 15 -2 1 5 1 16 0 11 0 20 -7 20 -14z m358 7 c3 -5 -1 -10 -10
-10 -9 0 -13 5 -10 10 3 6 8 10 10 10 2 0 7 -4 10 -10z m45 4 c0 -8 -19 -13
-24 -6 -3 5 1 9 9 9 8 0 15 -2 15 -3z m555 -3 c3 -5 2 -12 -3 -15 -5 -3 -9 1
-9 9 0 17 3 19 12 6z m289 -7 c5 -13 3 -14 -6 -6 -7 5 -26 12 -43 15 -28 4
-28 4 6 6 26 1 39 -4 43 -15z m201 -22 c-15 -16 -16 -15 -4 12 7 15 15 23 17
16 3 -7 -3 -19 -13 -28z m470 28 c3 -6 -1 -7 -9 -4 -18 7 -21 14 -7 14 6 0 13
-4 16 -10z m-1700 -19 c-1 -8 -7 -16 -14 -17 -7 -2 -7 0 -1 3 7 3 8 9 1 17 -8
9 -7 13 3 13 8 0 13 -7 11 -16z m673 -6 c-3 -3 -9 2 -12 12 -6 14 -5 15 5 6 7
-7 10 -15 7 -18z m105 11 c4 -10 1 -13 -8 -9 -8 3 -12 9 -9 14 7 12 11 11 17
-5z m554 -6 c-1 -11 -5 -20 -11 -20 -5 0 -1 -9 9 -20 18 -19 11 -27 -11 -12
-13 9 -27 45 -15 37 5 -3 12 4 16 15 8 26 14 26 12 0z m53 -14 c-14 -14 -22
-2 -14 18 5 14 9 15 15 4 4 -7 4 -17 -1 -22z m-2051 17 c-3 -21 2 -33 13 -27
7 4 8 3 4 -4 -4 -7 -1 -12 8 -12 9 0 16 -5 16 -11 0 -25 26 1 31 32 l6 34 2
-32 c0 -17 -4 -35 -9 -38 -6 -4 -8 -10 -5 -15 3 -5 1 -11 -5 -15 -6 -3 -13 1
-16 9 -3 9 -11 13 -17 9 -5 -3 -7 -2 -4 4 4 5 -4 16 -17 23 -20 10 -24 23 -17
48 2 6 11 1 10 -5z m236 -21 c-1 -9 2 -24 8 -32 9 -12 9 -13 -3 -2 -15 13 -23
65 -9 57 4 -3 6 -13 4 -23z m333 17 c12 1 22 -2 22 -6 0 -5 -14 -8 -30 -7 -27
2 -30 0 -24 -19 4 -12 3 -19 -1 -15 -13 13 -15 59 -2 51 7 -4 22 -6 35 -4z
m1081 0 c-11 -7 -11 -9 4 -9 9 0 17 -3 18 -7 0 -5 2 -16 4 -25 2 -10 -1 -18
-7 -18 -6 0 -7 7 -4 15 4 11 -3 19 -20 25 -33 13 -37 13 -28 -1 4 -7 1 -10 -6
-7 -8 2 -16 10 -18 18 -3 7 0 10 7 6 6 -4 11 -4 11 1 0 4 12 9 27 10 19 1 22
-1 12 -8z m-1592 -18 c-1 -19 -27 -18 -27 1 0 5 5 6 10 3 6 -3 10 -1 10 4 0 6
2 11 4 11 3 0 4 -9 3 -19z m229 -6 c1 -8 -2 -15 -7 -15 -5 0 -9 10 -9 22 0 23
12 17 16 -7z m94 16 c0 -5 -7 -12 -16 -15 -8 -3 -12 -10 -9 -16 11 -17 -7 -11
-21 8 -16 21 -19 0 -4 -29 6 -10 8 -19 6 -19 -3 0 -12 14 -21 30 -16 31 -13
35 28 31 9 -1 17 3 17 8 0 6 5 11 10 11 6 0 10 -4 10 -9z m1192 2 c-10 -4 -10
-8 0 -21 8 -10 9 -13 1 -9 -6 4 -19 0 -27 -9 -9 -8 -16 -11 -16 -6 0 6 -9 8
-20 5 -21 -6 -29 20 -10 32 5 3 7 0 4 -8 -4 -10 3 -13 25 -9 20 3 28 8 24 18
-3 9 1 14 13 13 12 0 14 -3 6 -6z m162 -1 c3 -5 -1 -9 -9 -9 -8 0 -12 4 -9 9
3 4 7 8 9 8 2 0 6 -4 9 -8z m118 -10 c-7 -2 -9 -9 -6 -15 5 -9 4 -9 -6 0 -15
13 -4 37 13 26 8 -5 8 -8 -1 -11z m-1737 -9 c-4 -10 -8 -28 -8 -39 -1 -14 -6
-20 -15 -17 -7 3 -9 9 -4 12 5 3 8 14 6 24 -1 9 2 17 7 17 6 0 7 5 4 10 -3 6
-1 10 5 10 8 0 9 -7 5 -17z m322 2 c-4 -8 -2 -17 4 -20 5 -4 6 -11 2 -18 -4
-7 -9 -4 -13 9 -7 19 -3 44 7 44 3 0 3 -7 0 -15z m1030 0 c0 -8 -4 -12 -9 -9
-5 3 -6 10 -3 15 9 13 12 11 12 -6z m773 5 c0 -5 -5 -10 -11 -10 -5 0 -7 5 -4
10 3 6 8 10 11 10 2 0 4 -4 4 -10z m41 -7 c13 -17 13 -17 -6 -3 -11 8 -22 16
-24 17 -2 2 0 3 6 3 6 0 17 -8 24 -17z m-2330 -13 c6 0 7 5 4 10 -3 6 -2 10 3
10 12 0 23 -26 15 -34 -9 -8 -43 13 -42 27 0 9 2 9 6 0 2 -7 9 -13 14 -13z
m619 10 c0 -5 -5 -10 -11 -10 -5 0 -7 5 -4 10 3 6 8 10 11 10 2 0 4 -4 4 -10z
m1225 -4 c12 -12 12 -15 -1 -20 -10 -4 -13 -2 -8 6 5 8 0 9 -15 5 -18 -4 -20
-3 -10 9 14 17 17 17 34 0z m-1590 -18 c-1 -13 -4 -24 -5 -25 -1 -2 -3 -9 -4
-15 0 -7 -13 -14 -29 -16 -18 -2 -25 -8 -21 -15 4 -7 3 -8 -2 -4 -5 5 -8 12
-7 15 1 4 -3 13 -9 20 -7 8 -7 12 0 12 6 0 14 -4 17 -10 4 -6 11 -5 19 2 11
11 11 15 -2 24 -9 7 -23 9 -31 6 -9 -3 -12 -1 -7 6 10 16 31 15 46 -3 16 -19
34 -20 27 -1 -3 8 -3 17 0 20 10 9 10 8 8 -16z m1718 9 c3 -7 -1 -20 -8 -30
-11 -16 -13 -16 -29 2 -17 18 -16 20 1 30 24 14 30 14 36 -2z m209 -5 c-7 -2
-12 -11 -12 -19 0 -9 -3 -14 -6 -10 -10 10 7 48 19 40 8 -5 8 -8 -1 -11z m84
-4 c-9 -5 -14 -14 -10 -19 3 -6 -4 -5 -15 3 -17 10 -18 14 -6 16 8 2 15 7 15
12 0 5 7 7 16 3 15 -5 15 -7 0 -15z m-2293 5 c3 -5 -1 -14 -8 -20 -11 -10 -13
-9 -12 7 1 20 12 26 20 13z m470 -23 c3 -11 2 -18 -3 -15 -4 3 -10 14 -13 25
-3 11 -2 18 3 15 4 -3 10 -14 13 -25z m124 17 c0 -8 -6 -14 -14 -14 -17 0 -17
14 0 20 6 3 12 6 13 6 0 1 1 -5 1 -12z m71 -7 c-7 -10 -14 -18 -15 -16 -6 6 9
36 18 36 5 0 4 -9 -3 -20z m1372 -5 c0 -14 -4 -25 -10 -25 -8 0 -8 23 -1 48 4
12 11 -3 11 -23z m-373 1 c4 -4 1 -6 -7 -4 -8 2 -14 -2 -15 -9 0 -23 -11 -22
-11 1 0 23 17 29 33 12z m43 4 c0 -5 -2 -10 -4 -10 -3 0 -8 5 -11 10 -3 6 -1
10 4 10 6 0 11 -4 11 -10z m-1330 -25 c0 -7 -9 -15 -20 -18 -11 -3 -18 -1 -15
3 3 5 -4 12 -16 15 -11 4 -18 9 -16 12 3 2 15 -1 28 -7 19 -11 21 -10 16 3 -4
11 -2 14 9 10 7 -3 14 -11 14 -18z m1367 9 c-3 -3 -12 -4 -19 -1 -8 3 -5 6 6
6 11 1 17 -2 13 -5z m510 -11 c0 -9 -4 -10 -14 -2 -7 6 -13 12 -13 14 0 1 6 2
13 2 8 0 14 -6 14 -14z m192 3 c19 4 31 0 41 -13 12 -15 12 -16 0 -5 -8 6 -23
12 -33 12 -15 0 -17 -3 -8 -14 6 -7 9 -21 5 -30 -8 -21 4 -20 30 1 20 16 20
16 -1 -6 -20 -22 -22 -23 -44 -7 -19 13 -20 16 -6 16 23 0 22 12 -3 28 -21 13
-25 7 -21 -27 2 -7 -2 -10 -8 -7 -5 4 -13 0 -18 -8 -6 -11 -13 -12 -23 -6 -13
8 -12 10 2 10 18 0 42 33 32 43 -3 3 -12 3 -20 0 -8 -3 -14 -1 -14 5 0 6 11 9
25 7 14 -1 25 3 26 9 0 7 2 7 5 -1 3 -7 16 -10 33 -7z m-2419 -6 c0 -5 5 -10
11 -10 5 0 7 5 4 11 -4 6 2 5 13 -2 12 -7 18 -18 15 -23 -4 -6 -8 -5 -11 3 -4
11 -6 11 -13 0 -7 -11 -13 -9 -31 9 -19 19 -20 22 -5 22 9 0 17 -4 17 -10z
m413 -30 c-7 -8 -22 24 -16 34 4 5 10 1 13 -10 4 -10 6 -21 3 -24z m1398 23
c12 -16 12 -17 -2 -6 -16 13 -29 8 -29 -9 0 -5 6 -6 13 -2 6 4 9 4 5 -1 -4 -4
-3 -15 4 -24 7 -9 1 -6 -12 6 -20 18 -21 24 -10 37 15 20 15 20 31 -1z m359 0
c0 -3 -6 -3 -14 0 -7 3 -20 0 -27 -6 -11 -10 -11 -9 0 5 11 15 41 15 41 1z
m130 13 c0 -3 -4 -8 -10 -11 -5 -3 -10 -1 -10 4 0 6 5 11 10 11 6 0 10 -2 10
-4z m-1666 -14 c3 -5 -1 -9 -9 -9 -8 0 -15 4 -15 9 0 4 4 8 9 8 6 0 12 -4 15
-8z m1270 0 c3 -5 -1 -9 -9 -9 -8 0 -12 4 -9 9 3 4 7 8 9 8 2 0 6 -4 9 -8z
m-1628 -17 c-1 -8 -6 -18 -11 -22 -4 -4 -5 -2 -1 5 4 7 2 12 -6 12 -9 0 -9 3
2 10 19 12 19 13 16 -5z m118 -24 c-6 -6 -24 19 -24 34 1 6 7 1 15 -9 8 -11
12 -22 9 -25z m56 19 c-8 -5 -17 -7 -19 -4 -3 3 1 9 9 14 8 5 17 7 19 4 3 -3
-1 -9 -9 -14z m1130 10 c0 -5 -7 -7 -15 -4 -8 4 -15 8 -15 10 0 2 7 4 15 4 8
0 15 -4 15 -10z m118 -9 c-7 -11 -16 -17 -20 -14 -10 5 10 33 23 33 5 0 4 -9
-3 -19z m36 5 c-3 -8 -12 -17 -20 -20 -11 -4 -12 -2 -1 14 14 23 29 27 21 6z
m136 8 c0 -8 -19 -13 -24 -6 -3 5 1 9 9 9 8 0 15 -2 15 -3z m120 -1 c-1 -13
-24 -39 -40 -45 -9 -3 -26 3 -39 13 -13 11 -20 19 -15 19 4 0 16 -7 26 -17 20
-18 25 -5 6 17 -7 8 -3 6 9 -3 21 -18 21 -18 28 2 6 20 25 30 25 14z m30 -18
c0 -14 -4 -25 -10 -25 -8 0 -8 23 -1 48 4 12 11 -3 11 -23z m44 16 c4 -5 -3
-7 -14 -4 -23 6 -26 13 -6 13 8 0 17 -4 20 -9z m136 -1 c0 -5 -8 -10 -17 -10
-15 0 -16 2 -3 10 19 12 20 12 20 0z m60 -4 c-10 -13 -40 -12 -40 1 0 3 7 3
15 0 8 -4 17 -2 20 3 4 6 9 10 12 10 3 0 0 -6 -7 -14z m-2132 -27 c9 0 12 -3
5 -5 -17 -7 -55 15 -47 28 4 7 10 5 16 -6 5 -9 17 -16 26 -17z m420 14 c-5 -7
-14 -10 -19 -7 -16 10 -9 23 10 21 15 -1 17 -4 9 -14z m-382 -8 c-1 -8 -5 -17
-8 -21 -5 -4 -4 16 1 34 3 9 9 -1 7 -13z m58 3 c-5 -8 -2 -9 10 -5 10 4 15 3
11 -3 -3 -6 -1 -10 6 -10 10 0 10 -3 1 -12 -16 -16 -15 -33 1 -19 8 6 18 7 22
3 5 -4 5 2 2 13 -7 18 -6 19 6 3 8 -10 16 -15 19 -12 4 3 9 1 13 -5 6 -10 -13
-16 -42 -12 -7 1 -13 -4 -13 -11 -1 -7 -9 -3 -20 10 -11 13 -21 18 -25 12 -7
-12 -25 -4 -25 12 0 5 7 8 15 4 12 -4 14 0 9 19 -4 16 -2 25 6 25 6 0 8 -5 4
-12z m-224 -18 c8 -5 11 -10 5 -10 -5 0 -17 5 -25 10 -8 5 -10 10 -5 10 6 0
17 -5 25 -10z m56 -8 c-10 -2 -22 0 -28 6 -6 6 0 7 19 4 21 -5 23 -7 9 -10z
m282 9 c11 -7 11 -9 -1 -14 -16 -6 -27 0 -27 15 0 10 11 10 28 -1z m88 -7 c-9
-8 -16 -19 -16 -24 0 -5 -7 -7 -15 -4 -8 4 -12 10 -9 15 3 5 9 7 14 4 4 -3 10
2 14 10 3 8 10 15 16 15 6 0 4 -7 -4 -16z m1631 -5 c1 -9 -10 -27 -25 -40 -14
-13 -20 -16 -13 -6 7 9 9 17 4 17 -5 0 -10 7 -10 15 0 9 5 14 11 12 6 -3 10
-10 8 -16 -1 -7 2 -10 8 -6 6 4 7 12 1 24 -7 12 -6 18 3 18 6 0 13 -8 13 -18z
m253 17 c0 -3 -4 -8 -10 -11 -5 -3 -10 -1 -10 4 0 6 5 11 10 11 6 0 10 -2 10
-4z m-482 -30 c-22 -9 -25 -15 -16 -24 6 -6 10 -14 7 -16 -3 -3 -10 4 -17 15
-11 17 -9 21 10 29 34 13 47 10 16 -4z m368 -21 c-17 -17 -21 -9 -10 20 5 11
10 13 17 6 6 -6 4 -15 -7 -26z m84 15 c-7 -4 -9 -13 -5 -20 5 -8 1 -8 -13 1
-19 12 -19 14 -4 25 9 7 21 10 25 7 5 -3 4 -9 -3 -13z m-2253 4 c-3 -3 -12 -4
-19 -1 -8 3 -5 6 6 6 11 1 17 -2 13 -5z m505 -16 c-7 -7 -12 -8 -12 -2 0 14
12 26 19 19 2 -3 -1 -11 -7 -17z m1468 10 c0 -5 -7 -11 -15 -14 -8 -4 -12 -11
-8 -18 4 -6 -1 -5 -10 3 -19 15 -23 26 -5 15 7 -5 9 -2 6 7 -4 10 1 15 13 15
11 0 19 -4 19 -8z m-1870 -2 c0 -2 -7 -7 -16 -10 -8 -3 -12 -2 -9 4 6 10 25
14 25 6z m344 -29 c8 -31 3 -30 -16 3 -12 21 -13 27 -3 24 7 -3 16 -15 19 -27z
m1613 13 c10 -13 8 -16 -15 -17 -15 0 -19 1 -10 4 11 3 15 10 11 21 -6 18 -5
17 14 -8z m-2070 -5 c0 -11 -4 -12 -14 -4 -7 6 -13 13 -13 15 0 2 6 4 13 4 8
0 14 -7 14 -15z m2153 -1 c0 -8 -5 -12 -10 -9 -6 4 -8 11 -5 16 9 14 15 11 15
-7z m-1935 -22 c0 -13 8 -17 32 -16 23 0 30 -3 26 -13 -5 -12 -7 -12 -14 -1
-6 8 -9 9 -9 1 0 -6 -8 -10 -17 -9 -10 2 -21 -1 -24 -6 -3 -5 -9 -3 -12 6 -4
9 -3 16 2 16 5 0 7 12 5 26 -1 14 1 23 4 19 4 -3 7 -14 7 -23z m105 18 c0 -5
-4 -10 -10 -10 -5 0 -10 5 -10 10 0 6 5 10 10 10 6 0 10 -4 10 -10z m-350 -10
c0 -5 -2 -10 -4 -10 -3 0 -8 5 -11 10 -3 6 -1 10 4 10 6 0 11 -4 11 -10z m390
-6 c0 -2 -7 -4 -15 -4 -8 0 -15 4 -15 10 0 5 7 7 15 4 8 -4 15 -8 15 -10z m30
6 c0 -6 10 -15 23 -20 l22 -9 -24 0 c-16 -1 -21 -5 -17 -16 3 -8 2 -14 -2 -13
-4 1 -17 -3 -29 -10 -13 -7 -23 -10 -23 -7 0 4 -5 3 -11 0 -11 -7 30 -42 44
-37 4 1 7 -5 7 -13 0 -22 -27 -18 -33 5 -4 15 -12 18 -38 16 -19 -2 -24 -1
-11 1 12 2 20 8 17 12 -4 8 41 56 53 56 4 0 6 10 6 23 -1 12 3 22 7 22 5 0 9
-5 9 -10z m134 -15 c3 -8 0 -17 -6 -21 -6 -4 -8 -3 -4 4 3 6 2 13 -4 17 -5 3
-10 1 -10 -4 0 -6 -4 -11 -9 -11 -5 0 -7 9 -4 19 5 21 28 18 37 -4z m1458 -17
c-6 -6 -9 0 -9 18 0 23 1 24 9 10 7 -12 7 -21 0 -28z m235 27 c4 -4 2 -5 -4
-1 -8 4 -13 2 -13 -6 0 -7 -7 -21 -15 -32 -13 -18 -14 -18 -12 3 1 11 5 21 10
21 5 0 7 6 4 14 -6 15 17 16 30 1z m153 5 c0 -5 -2 -10 -4 -10 -3 0 -8 5 -11
10 -3 6 -1 10 4 10 6 0 11 -4 11 -10z m-2468 -7 c-6 -2 -9 -10 -6 -15 4 -7 2
-8 -5 -4 -13 9 -5 26 12 25 9 0 8 -2 -1 -6z m2003 -6 c3 -4 2 -5 -1 -3 -3 3
-17 1 -30 -4 -17 -7 -22 -6 -18 4 5 13 39 15 49 3z m-1961 -5 c3 -5 -1 -9 -9
-9 -8 0 -12 4 -9 9 3 4 7 8 9 8 2 0 6 -4 9 -8z m76 4 c0 -2 -9 -6 -20 -9 -11
-3 -18 -1 -14 4 5 9 34 13 34 5z m162 -33 c6 -8 4 -11 -7 -9 -8 1 -15 5 -15 9
1 41 2 42 7 27 3 -8 10 -20 15 -27z m1856 30 c-10 -2 -18 -9 -18 -14 0 -6 4
-8 8 -5 5 3 9 -1 9 -9 0 -18 -14 -10 -27 16 -9 17 -7 19 17 18 17 -1 21 -3 11
-6z m232 -3 c-8 -5 -22 -9 -30 -9 -10 0 -8 3 5 9 27 12 43 12 25 0z m-160 -10
c0 -5 -2 -10 -4 -10 -3 0 -8 5 -11 10 -3 6 -1 10 4 10 6 0 11 -4 11 -10z m292
-10 c10 0 18 6 18 13 0 8 3 8 9 -2 18 -28 2 -40 -29 -24 -16 8 -33 20 -36 26
-5 8 -3 8 7 0 7 -7 21 -13 31 -13z m-2365 -10 c-5 -31 -17 -37 -15 -7 1 15 6
27 10 27 4 0 7 -9 5 -20z m43 10 c0 -5 -7 -7 -15 -4 -8 4 -15 8 -15 10 0 2 7
4 15 4 8 0 15 -4 15 -10z m1830 6 c0 -2 -9 -6 -20 -9 -11 -3 -18 -1 -14 4 5 9
34 13 34 5z m40 -11 c7 -9 8 -15 2 -15 -5 0 -12 7 -16 15 -3 8 -4 15 -2 15 2
0 9 -7 16 -15z m115 6 c3 -5 2 -12 -3 -15 -5 -3 -9 1 -9 9 0 17 3 19 12 6z
m-1625 -16 c0 -2 -6 -5 -13 -8 -8 -3 -14 1 -14 8 0 7 6 11 14 8 7 -3 13 -6 13
-8z m1924 7 c3 -5 -1 -9 -9 -9 -8 0 -12 4 -9 9 3 4 7 8 9 8 2 0 6 -4 9 -8z
m-2354 -12 c0 -5 -5 -10 -11 -10 -5 0 -7 5 -4 10 3 6 8 10 11 10 2 0 4 -4 4
-10z m2290 -5 c-14 -17 0 -21 16 -5 7 7 11 6 11 -5 0 -9 -9 -15 -24 -15 -12 0
-23 2 -23 4 0 14 14 36 22 36 6 0 5 -6 -2 -15z m-2364 -4 c-4 -5 0 -11 6 -14
7 -3 3 -4 -9 -4 -17 1 -19 4 -11 14 12 15 22 18 14 4z m142 -8 c-2 -10 3 -17
10 -15 6 1 11 -1 11 -5 -1 -5 0 -11 1 -15 6 -20 4 -34 -7 -45 -14 -15 -27 -17
-18 -3 3 6 0 10 -7 11 -10 0 -10 2 1 6 11 5 11 7 0 15 -10 6 -7 7 10 3 16 -5
21 -4 17 4 -4 6 -12 11 -17 11 -6 0 -17 7 -25 15 -14 13 -14 15 0 15 9 0 16 5
16 10 0 6 2 10 5 10 3 0 5 -8 3 -17z m217 -1 c-3 -3 -11 0 -18 7 -9 10 -8 11
6 5 10 -3 15 -9 12 -12z m245 -14 c0 -4 -5 -10 -12 -14 -7 -4 -8 -3 -4 4 4 7
1 12 -9 12 -10 0 -14 -5 -9 -12 5 -10 4 -10 -6 -1 -7 6 -10 19 -7 28 6 13 10
13 27 3 11 -7 20 -16 20 -20z m1550 22 c0 -5 -5 -10 -11 -10 -5 0 -7 5 -4 10
3 6 8 10 11 10 2 0 4 -4 4 -10z m-1955 -10 c3 -5 2 -10 -4 -10 -5 0 -13 5 -16
10 -3 6 -2 10 4 10 5 0 13 -4 16 -10z m108 -16 c12 3 16 3 10 0 -7 -3 -13 -10
-13 -15 0 -6 4 -7 10 -4 6 4 7 -1 3 -11 -5 -15 -7 -15 -15 0 -10 19 -38 22
-38 4 0 -6 -7 -3 -15 8 -18 24 -19 31 0 31 8 0 12 -4 9 -9 -3 -4 0 -8 5 -8 6
0 12 8 12 18 1 16 2 16 6 -1 3 -13 11 -16 26 -13z m200 -1 c11 -2 23 -6 26
-10 3 -3 -4 -3 -16 0 -14 3 -23 0 -23 -6 0 -7 -5 -4 -11 7 -9 14 -13 16 -20 5
-11 -18 -23 -4 -15 17 5 14 9 14 22 3 9 -7 25 -15 37 -16z m37 17 c0 -5 -7
-10 -16 -10 -8 0 -12 5 -9 10 3 6 10 10 16 10 5 0 9 -4 9 -10z m1565 -9 c-1
-11 -16 -16 -51 -18 -46 -3 -47 -2 -24 10 15 8 28 9 31 4 8 -11 32 1 25 12 -3
4 1 8 8 8 8 0 13 -7 11 -16z m342 4 c0 -11 -4 -12 -14 -4 -7 6 -13 13 -13 15
0 2 6 4 13 4 8 0 14 -7 14 -15z m-307 -16 c0 -5 4 -8 8 -5 4 2 14 1 22 -5 10
-5 10 -9 3 -9 -6 0 -10 -9 -8 -19 4 -19 -17 -23 -32 -6 -4 4 -2 5 5 1 7 -4 12
-1 12 8 0 9 -4 16 -9 16 -5 0 -11 7 -15 15 -3 8 -1 15 4 15 6 0 10 -5 10 -11z
m86 -15 c1 -9 0 -13 -4 -10 -3 4 -7 14 -8 22 -1 9 0 13 4 10 3 -4 7 -14 8 -22z
m204 11 c7 -9 8 -15 2 -15 -5 0 -12 7 -16 15 -3 8 -4 15 -2 15 2 0 9 -7 16
-15z m-2325 -14 c-3 -6 -14 -10 -23 -10 -15 1 -15 2 1 6 9 2 17 9 17 15 0 6 3
9 6 5 3 -3 3 -10 -1 -16z m2268 -1 c-8 -30 -21 -34 -15 -5 2 14 8 25 12 25 5
0 6 -9 3 -20z m-2357 -15 c-2 -14 -16 -22 -16 -10 0 3 0 12 0 21 0 8 4 13 9
10 5 -4 8 -13 7 -21z m359 5 c-3 -5 -14 -10 -23 -9 -14 0 -13 2 3 9 27 11 27
11 20 0z m90 -10 c-5 -15 -3 -18 8 -14 8 3 18 1 22 -5 3 -7 0 -8 -9 -5 -11 4
-16 0 -16 -11 0 -9 -5 -13 -10 -10 -12 7 -10 65 3 65 5 0 6 -9 2 -20z m45 4
c0 -8 -5 -12 -10 -9 -6 4 -8 11 -5 16 9 14 15 11 15 -7z m57 3 c0 -7 -11 -13
-23 -13 -12 0 -20 4 -18 8 3 5 9 6 14 3 5 -3 11 -1 15 5 8 13 12 13 12 -3z
m1453 3 c0 -5 -7 -7 -15 -4 -8 4 -15 8 -15 10 0 2 7 4 15 4 8 0 15 -4 15 -10z
m-1811 -14 c9 -10 9 -16 1 -21 -6 -4 -14 -4 -17 -1 -4 3 -1 6 6 6 7 0 9 5 6
10 -4 6 -11 8 -16 5 -5 -4 -9 -1 -9 4 0 15 15 14 29 -3z m2027 -43 c1 -7 -2
-11 -7 -7 -5 3 -9 0 -9 -7 0 -7 -3 -9 -6 -6 -4 4 -2 13 5 20 9 11 8 17 -4 27
-8 7 -15 17 -15 23 0 14 34 -33 36 -50z m224 53 c0 -3 -4 -8 -10 -11 -5 -3
-10 -1 -10 4 0 6 5 11 10 11 6 0 10 -2 10 -4z m36 -25 c-1 -31 -16 -33 -16 -2
0 15 8 31 15 31 1 0 2 -13 1 -29z m-2197 2 c9 -10 8 -13 -4 -13 -9 0 -14 -4
-11 -9 3 -4 -4 -17 -17 -27 l-22 -19 20 24 20 24 -21 -5 c-12 -3 -21 0 -21 7
0 7 8 10 19 7 26 -6 22 7 -4 18 -22 9 -22 9 3 7 14 0 31 -7 38 -14z m1811 13
c0 -11 -19 -15 -25 -6 -3 5 1 10 9 10 9 0 16 -2 16 -4z m-70 -10 c0 -11 -19
-15 -25 -6 -3 5 1 10 9 10 9 0 16 -2 16 -4z m-1985 -16 c3 -6 -1 -7 -9 -4 -18
7 -21 14 -7 14 6 0 13 -4 16 -10z m38 4 c-7 -3 -9 -12 -6 -20 3 -8 -1 -14 -11
-14 -9 0 -16 -6 -16 -13 0 -7 -10 -18 -22 -26 l-23 -14 20 22 c16 19 17 24 5
31 -11 7 -8 10 13 10 15 0 26 3 26 8 -3 15 1 22 14 21 9 0 9 -2 0 -5z m1794
-19 c-4 -8 -12 -15 -19 -14 -10 0 -10 2 0 6 6 2 12 12 12 21 0 8 3 13 6 9 4
-3 4 -13 1 -22z m71 5 c-7 -11 -15 -15 -17 -9 -2 6 3 15 10 20 20 12 21 11 7
-11z m130 -5 c-3 -3 -9 2 -12 12 -6 14 -5 15 5 6 7 -7 10 -15 7 -18z m107 15
c-3 -5 -13 -10 -21 -10 -11 0 -12 -4 -5 -19 9 -17 8 -18 -11 -13 -13 3 -17 7
-10 10 10 3 10 7 0 20 -7 9 -8 13 -3 10 6 -3 19 -2 30 3 27 10 27 10 20 -1z
m125 0 c0 -5 -5 -10 -11 -10 -5 0 -7 5 -4 10 3 6 8 10 11 10 2 0 4 -4 4 -10z
m-2300 -11 c0 -6 -5 -7 -11 -3 -6 3 -14 1 -18 -5 -5 -8 -12 -8 -24 2 -15 10
-13 12 18 14 19 1 35 -3 35 -8z m343 -4 c-3 -9 -8 -14 -10 -11 -3 3 -2 9 2 15
9 16 15 13 8 -4z m87 -6 c0 -5 -10 -9 -21 -9 -18 0 -19 2 -9 15 12 15 30 12
30 -6z m1551 8 c-6 -8 -7 -18 -3 -22 4 -5 1 -5 -6 -1 -10 6 -10 11 -1 22 6 8
14 14 16 14 3 0 0 -6 -6 -13z m385 -9 c-9 -5 -14 -13 -11 -18 3 -4 -2 -11 -11
-14 -9 -3 -12 -2 -9 5 4 6 -1 17 -11 24 -11 8 -14 15 -8 15 5 0 15 -5 22 -12
9 -9 12 -8 12 5 0 11 5 14 16 10 15 -5 15 -7 0 -15z m-2261 2 c3 -5 -1 -10
-10 -10 -9 0 -13 5 -10 10 3 6 8 10 10 10 2 0 7 -4 10 -10z m50 -10 c3 -5 2
-10 -4 -10 -5 0 -13 5 -16 10 -3 6 -2 10 4 10 5 0 13 -4 16 -10z m125 -10 c0
-5 -5 -10 -11 -10 -5 0 -7 5 -4 10 3 6 8 10 11 10 2 0 4 -4 4 -10z m255 0 c3
-5 1 -10 -4 -10 -6 0 -11 5 -11 10 0 6 2 10 4 10 3 0 8 -4 11 -10z m1562 -2
c4 -7 9 -22 10 -33 3 -19 2 -19 -11 -2 -7 9 -18 17 -24 17 -6 0 -13 4 -16 9
-4 5 4 7 16 4 19 -4 20 -3 8 6 -9 7 -10 11 -3 11 6 0 15 -6 20 -12z m350 -3
c0 -11 -4 -12 -14 -4 -7 6 -13 13 -13 15 0 2 6 4 13 4 8 0 14 -7 14 -15z
m-2337 -26 c-12 -41 -24 -53 -14 -14 7 32 13 45 19 45 2 0 0 -14 -5 -31z m308
3 c7 -15 8 -28 3 -30 -5 -2 -6 -13 -3 -25 5 -21 4 -20 -18 4 l-24 26 -18 -21
c-9 -11 -17 -15 -18 -8 0 6 6 12 13 12 9 0 9 2 -1 9 -10 6 -8 10 10 15 19 5
21 8 8 17 -13 9 -13 10 0 6 8 -2 15 -9 15 -14 0 -17 12 -26 24 -18 7 4 5 14
-5 31 -9 13 -12 24 -8 24 5 0 15 -12 22 -28z m1600 3 c-3 -3 -9 2 -12 12 -6
14 -5 15 5 6 7 -7 10 -15 7 -18z m207 -4 c2 -12 0 -19 -6 -16 -5 4 -7 11 -4
16 4 5 1 9 -5 9 -6 0 -8 5 -5 11 9 13 15 7 20 -20z m-2036 -17 c7 4 8 1 5 -8
-3 -9 -9 -15 -12 -14 -22 2 -32 -3 -25 -14 4 -7 8 -25 8 -39 1 -40 45 -84 45
-45 0 8 3 17 8 19 4 3 7 -5 7 -18 0 -13 -3 -21 -7 -18 -5 2 -8 0 -8 -6 0 -5 5
-13 10 -16 6 -4 7 -11 4 -17 -4 -6 0 -15 7 -20 12 -8 11 -9 -1 -5 -8 2 -15 10
-15 18 0 25 -35 56 -61 53 -13 -1 -27 3 -31 8 -3 6 -1 8 4 5 12 -8 26 17 28
51 1 15 -4 21 -12 18 -14 -6 -18 6 -6 18 13 12 10 46 -4 46 -8 0 -11 5 -8 11
5 7 15 3 30 -11 13 -12 28 -19 34 -16z m2241 21 c7 -9 8 -15 2 -15 -5 0 -12 7
-16 15 -3 8 -4 15 -2 15 2 0 9 -7 16 -15z m-2473 -1 c-3 -3 -12 -4 -19 -1 -8
3 -5 6 6 6 11 1 17 -2 13 -5z m28 -13 c-3 -6 -11 -11 -16 -11 -5 0 -4 6 3 14
14 16 24 13 13 -3z m92 -1 c1 -11 -2 -20 -5 -20 -4 0 -8 9 -9 20 -1 11 2 20 5
20 4 0 8 -9 9 -20z m1912 13 c14 11 14 10 2 -6 -10 -13 -17 -15 -27 -6 -8 6
-14 14 -14 17 0 3 5 1 12 -6 9 -9 15 -9 27 1z m189 -12 c-8 -3 -14 -13 -13
-22 3 -17 -18 -20 -32 -4 -4 4 -2 5 5 1 10 -6 17 10 14 35 -1 4 8 4 20 1 17
-4 19 -7 6 -11z m192 -6 c0 -14 -4 -25 -9 -25 -4 0 -6 11 -3 25 2 14 6 25 8
25 2 0 4 -11 4 -25z m-286 -1 c3 -8 2 -12 -4 -9 -6 3 -10 10 -10 16 0 14 7 11
14 -7z m266 12 c0 -11 -19 -15 -25 -6 -3 5 1 10 9 10 9 0 16 -2 16 -4z m-2068
-38 c-6 -6 -12 -6 -17 3 -5 8 -4 10 3 5 7 -4 12 0 13 11 0 12 2 13 6 5 3 -8 1
-18 -5 -24z m-235 8 c-3 -8 -3 -17 1 -20 12 -12 10 -33 -4 -33 -10 0 -11 4 -3
13 7 8 6 13 -1 16 -10 3 -4 38 7 38 3 0 3 -6 0 -14z m2367 6 c3 -5 -1 -9 -9
-9 -8 0 -12 4 -9 9 3 4 7 8 9 8 2 0 6 -4 9 -8z m-2429 -12 c-3 -5 -14 -10 -23
-11 -14 0 -13 -3 6 -16 23 -16 30 -43 11 -43 -5 0 -7 5 -4 11 4 6 -3 18 -15
26 -22 15 -22 17 -5 30 22 15 39 17 30 3z m235 -11 c0 -5 -4 -9 -8 -9 -5 0 -9
7 -9 15 0 8 4 12 9 9 4 -3 8 -9 8 -15z m30 11 c0 -5 -5 -10 -11 -10 -5 0 -7 5
-4 10 3 6 8 10 11 10 2 0 4 -4 4 -10z m-163 -28 c1 -12 -1 -22 -6 -22 -5 0 -8
8 -7 18 2 9 -2 21 -8 25 -7 6 -6 7 3 5 8 -2 16 -14 18 -26z m243 24 c0 -2 -7
-6 -15 -10 -8 -3 -15 -1 -15 4 0 6 7 10 15 10 8 0 15 -2 15 -4z m1710 0 c0
-11 -19 -15 -25 -6 -3 5 1 10 9 10 9 0 16 -2 16 -4z m155 -15 c-3 -6 -13 -11
-21 -11 -15 0 -15 -20 1 -33 6 -5 5 -7 -3 -5 -8 2 -14 8 -14 13 0 6 -4 15 -8
20 -6 7 -1 11 13 12 12 1 23 7 25 13 2 6 6 9 9 6 3 -2 2 -9 -2 -15z m-99 -26
c3 -22 -13 -9 -19 16 -4 16 -3 19 5 11 7 -7 13 -19 14 -27z m-91 8 c-2 -10 -4
-19 -4 -21 -1 -2 -6 0 -11 3 -8 5 -7 11 1 21 15 18 18 18 14 -3z m233 -8 c-3
-3 -9 2 -12 12 -6 14 -5 15 5 6 7 -7 10 -15 7 -18z m-2114 7 c3 -5 -1 -9 -9
-9 -8 0 -12 4 -9 9 3 4 7 8 9 8 2 0 6 -4 9 -8z m81 -2 c-3 -5 -12 -10 -18 -10
-7 0 -6 4 3 10 19 12 23 12 15 0z m2078 -15 c-7 -21 -12 -19 -10 4 0 11 5 18
9 15 4 -3 5 -11 1 -19z m-1989 4 c4 6 12 11 17 11 25 0 -19 -25 -46 -27 -28
-1 -29 0 -10 13 13 10 21 11 26 3 5 -8 8 -8 13 0z m1813 -18 c8 8 13 7 17 0 4
-6 0 -11 -8 -11 -13 0 -13 -3 -1 -27 17 -31 9 -48 -8 -18 -6 11 -12 22 -12 25
-2 30 -41 39 -60 13 -9 -13 -14 -13 -20 -3 -5 8 -4 11 2 7 11 -7 28 20 24 36
-1 5 11 0 27 -12 20 -14 32 -17 39 -10z m100 14 c0 -8 -4 -12 -9 -9 -5 3 -6
10 -3 15 9 13 12 11 12 -6z m168 -5 c3 -5 1 -10 -4 -10 -6 0 -11 5 -11 10 0 6
2 10 4 10 3 0 8 -4 11 -10z m47 3 c-6 -3 -10 -9 -7 -14 4 -5 -1 -6 -9 -3 -23
9 -19 20 7 21 12 0 16 -1 9 -4z m58 -3 c0 -5 -9 -14 -20 -20 -16 -9 -18 -8
-14 5 3 8 10 12 15 9 5 -3 9 0 9 5 0 6 2 11 5 11 3 0 5 -4 5 -10z m-2390 -4
c0 -2 -11 -6 -25 -8 -13 -3 -22 -1 -19 3 5 9 44 13 44 5z m235 -5 c3 -5 1 -12
-5 -16 -5 -3 -10 1 -10 9 0 18 6 21 15 7z m1920 -29 c-8 -9 -25 20 -18 31 3 5
10 2 15 -7 6 -10 7 -20 3 -24z m70 28 c3 -6 -1 -7 -9 -4 -18 7 -21 14 -7 14 6
0 13 -4 16 -10z m-2375 -25 c11 -13 10 -14 -4 -9 -9 3 -16 10 -16 15 0 13 6
11 20 -6z m67 -7 c-3 -8 -6 -5 -6 6 -1 11 2 17 5 13 3 -3 4 -12 1 -19z m2174
-2 c-8 -10 -5 -18 10 -32 22 -19 22 -19 15 6 -6 20 -5 22 4 8 5 -9 7 -24 4
-33 -6 -14 -8 -14 -20 4 -9 12 -22 18 -36 16 l-21 -4 22 23 c11 12 18 26 14
31 -5 4 -2 5 5 1 9 -6 10 -11 3 -20z m208 2 c-1 -20 -2 -20 -6 -4 -4 14 -7 16
-13 6 -5 -7 -13 -9 -21 -5 -9 6 -8 10 7 16 30 12 34 10 33 -13z m106 12 c3 -5
1 -10 -4 -10 -6 0 -11 5 -11 10 0 6 2 10 4 10 3 0 8 -4 11 -10z m-170 -9 c3
-5 2 -12 -3 -15 -5 -3 -9 1 -9 9 0 17 3 19 12 6z m-2335 -46 c-7 -9 -8 -15 0
-18 6 -3 6 -5 -1 -3 -14 2 -22 36 -8 36 4 0 6 8 3 18 -5 15 -4 15 6 -1 9 -13
9 -22 0 -32z m110 34 c0 -5 5 -7 10 -4 6 3 10 2 10 -3 0 -6 -7 -13 -16 -16
-10 -4 -13 -2 -8 6 5 8 2 9 -10 5 -10 -4 -20 -7 -23 -7 -3 0 0 -7 7 -15 11
-13 10 -14 -4 -9 -20 8 -20 13 2 35 20 20 32 24 32 8z m1980 1 c0 -5 -5 -10
-11 -10 -5 0 -7 5 -4 10 3 6 8 10 11 10 2 0 4 -4 4 -10z m-1806 -9 c3 -5 -1
-11 -9 -14 -9 -4 -12 -1 -8 9 6 16 10 17 17 5z m2220 -7 c5 -14 4 -15 -9 -4
-17 14 -19 20 -6 20 5 0 12 -7 15 -16z m-2316 -21 c-2 -20 1 -27 11 -25 11 2
12 0 3 -11 -7 -8 -9 -17 -5 -21 4 -4 -1 -4 -11 0 -16 6 -17 4 -7 -14 13 -25
27 -28 34 -9 4 9 6 9 6 0 1 -7 -8 -17 -19 -23 -11 -6 -19 -7 -18 -3 1 4 -3 18
-10 31 -11 19 -10 23 3 28 20 8 8 27 -14 20 -14 -5 -13 -4 2 8 19 15 23 31 5
20 -9 -5 -9 -2 1 9 19 24 23 21 19 -10z m2087 18 c-9 -8 -36 -10 -30 -2 2 4
11 8 20 8 8 0 13 -3 10 -6z m195 3 c0 -8 -19 -13 -24 -6 -3 5 1 9 9 9 8 0 15
-2 15 -3z m-2122 -18 c-7 -8 -15 -12 -17 -11 -5 6 10 25 20 25 5 0 4 -6 -3
-14z m1712 4 c0 -5 -2 -10 -4 -10 -3 0 -8 5 -11 10 -3 6 -1 10 4 10 6 0 11 -4
11 -10z m-36 -16 c3 -8 0 -16 -7 -20 -7 -4 -9 -4 -5 1 4 4 0 13 -8 20 -15 11
-15 12 -1 12 9 0 18 -6 21 -13z m99 -28 c0 -21 2 -24 13 -15 11 9 14 8 14 -4
0 -8 -8 -21 -17 -28 -10 -7 -15 -9 -11 -5 4 5 3 15 -2 22 -6 6 -9 17 -8 22 2
6 -6 18 -17 26 -19 15 -19 16 -1 9 15 -5 17 -3 11 8 -6 11 -5 11 5 2 7 -6 13
-23 13 -37z m367 35 c0 -6 -4 -12 -8 -15 -5 -3 -9 1 -9 9 0 8 4 15 9 15 4 0 8
-4 8 -9z m-2375 -10 c3 -5 1 -12 -5 -16 -5 -3 -10 1 -10 9 0 18 6 21 15 7z
m2081 -8 c17 -23 18 -36 2 -30 -7 2 -13 10 -13 18 -1 8 -7 13 -14 11 -7 -1
-10 2 -6 8 9 14 16 13 31 -7z m191 1 c-3 -3 -12 -4 -19 -1 -8 3 -5 6 6 6 11 1
17 -2 13 -5z m-2352 -13 c3 -5 2 -12 -3 -15 -5 -3 -9 1 -9 9 0 17 3 19 12 6z
m79 -8 c8 3 18 2 21 -3 3 -5 -7 -10 -22 -12 -17 -2 -27 -8 -25 -16 1 -8 -2
-11 -6 -8 -5 3 -7 17 -4 32 3 17 7 22 12 13 5 -6 15 -9 24 -6z m2122 2 c-1 -8
-5 -17 -8 -21 -5 -4 -4 16 1 34 3 9 9 -1 7 -13z m114 -5 c-12 -8 -12 -10 -1
-10 8 0 12 -2 9 -5 -3 -3 -13 -2 -22 1 -14 5 -15 9 -4 15 7 5 18 9 23 9 6 0 3
-5 -5 -10z m55 0 c3 -5 1 -10 -4 -10 -6 0 -11 5 -11 10 0 6 2 10 4 10 3 0 8
-4 11 -10z m-197 -35 c4 0 5 -6 4 -13 -4 -18 18 -43 31 -35 6 4 7 1 3 -6 -6
-9 -12 -9 -24 2 -10 8 -26 13 -36 11 -18 -2 -18 -1 -3 14 16 15 15 18 -6 41
l-22 26 24 -20 c13 -11 26 -20 29 -20z m57 25 c-3 -5 -1 -10 4 -10 6 0 11 -8
11 -17 -1 -17 -2 -16 -15 1 -13 17 -12 36 1 36 3 0 2 -4 -1 -10z m-2289 -25
c1 -9 -4 -11 -14 -7 -10 4 -12 7 -4 10 7 2 9 9 5 15 -3 7 -2 8 2 4 5 -4 10
-14 11 -22z m284 21 c0 -2 -8 -10 -17 -17 -16 -13 -17 -12 -4 4 13 16 21 21
21 13z m2235 -8 c5 4 5 2 1 -5 -8 -14 -36 -6 -36 9 0 7 5 6 13 -1 8 -6 18 -7
22 -3z m-2374 -20 c-4 -12 -13 -23 -20 -24 -6 -1 -7 0 -1 3 5 2 10 13 10 24 0
10 4 19 10 19 5 0 6 -9 1 -22z m2301 -3 c3 -13 1 -22 -3 -19 -5 3 -9 13 -9 22
0 15 -2 15 -10 2 -8 -13 -11 -13 -22 -1 -8 9 -9 11 -1 7 6 -3 14 -2 18 4 11
17 22 11 27 -15z m-68 6 c3 -4 -4 -17 -17 -27 -22 -19 -22 -19 -4 2 9 11 14
24 10 27 -3 4 -4 7 0 7 3 0 8 -4 11 -9z m122 -28 c3 -19 -13 -43 -27 -43 -5 0
-9 5 -9 10 0 6 3 9 8 8 7 -3 12 5 12 23 0 5 -6 7 -12 3 -9 -5 -8 -2 1 9 15 19
24 16 27 -10z m-2526 7 c0 -5 -4 -10 -10 -10 -5 0 -10 5 -10 10 0 6 5 10 10
10 6 0 10 -4 10 -10z m2560 0 c0 -5 -4 -10 -10 -10 -5 0 -10 5 -10 10 0 6 5
10 10 10 6 0 10 -4 10 -10z m-2360 -4 c0 -2 -7 -7 -16 -10 -8 -3 -12 -2 -9 4
6 10 25 14 25 6z m210 -12 c0 -2 -7 -4 -15 -4 -8 0 -15 4 -15 10 0 5 7 7 15 4
8 -4 15 -8 15 -10z m1935 7 c-9 -8 -36 -10 -30 -2 2 4 11 8 20 8 8 0 13 -3 10
-6z m-147 -8 c-13 -3 -15 -9 -8 -28 5 -12 6 -26 2 -31 -4 -4 1 -4 10 -1 13 5
16 1 12 -20 -3 -15 -10 -34 -15 -42 -9 -14 -10 -14 -6 0 3 9 -1 28 -8 43 -10
19 -11 26 -2 26 7 0 3 7 -7 15 -16 12 -17 17 -6 30 7 8 20 14 29 14 14 -1 14
-2 -1 -6z m-2178 -18 c0 -2 -9 -3 -19 -2 -11 0 -18 5 -15 9 4 6 34 0 34 -7z
m2457 -7 c-3 -8 -6 -5 -6 6 -1 11 2 17 5 13 3 -3 4 -12 1 -19z m-2296 -12 c-6
-7 -8 -16 -4 -19 3 -4 1 -7 -6 -7 -8 0 -11 6 -7 16 3 9 6 20 6 25 0 6 5 7 10
4 8 -5 8 -11 1 -19z m2053 15 c4 -5 -3 -7 -14 -4 -23 6 -26 13 -6 13 8 0 17
-4 20 -9z m46 -33 c0 -17 -23 -3 -26 16 -2 14 0 15 12 5 8 -6 14 -16 14 -21z
m177 26 c-3 -3 -12 -4 -19 -1 -8 3 -5 6 6 6 11 1 17 -2 13 -5z m-2065 -36 c-8
-8 -9 -4 -5 13 4 13 8 18 11 10 2 -7 -1 -18 -6 -23z m1753 22 c-3 -5 -1 -10 4
-10 6 0 11 -5 11 -11 0 -8 -4 -8 -15 1 -8 6 -20 9 -27 5 -7 -4 -4 1 6 9 23 18
30 20 21 6z m-2125 -4 c0 -11 -19 -15 -25 -6 -3 5 1 10 9 10 9 0 16 -2 16 -4z
m185 -6 c3 -5 1 -10 -4 -10 -6 0 -11 5 -11 10 0 6 2 10 4 10 3 0 8 -4 11 -10z
m59 -6 c5 -14 4 -15 -9 -4 -17 14 -19 20 -6 20 5 0 12 -7 15 -16z m2153 2 c0
-8 -6 -12 -15 -9 -11 5 -11 7 0 14 7 5 13 9 14 9 0 0 1 -6 1 -14z m118 -4 c-3
-3 -11 0 -18 7 -9 10 -8 11 6 5 10 -3 15 -9 12 -12z m-2416 -6 c9 -11 9 -16
-1 -22 -7 -4 -10 -4 -6 1 4 4 3 14 -3 22 -6 7 -9 13 -6 13 2 0 10 -6 16 -14z
m2187 -22 c-5 -12 -10 -14 -20 -5 -7 6 -17 7 -21 3 -5 -4 -5 -1 -1 6 4 7 11
10 16 7 4 -3 11 3 15 13 9 22 20 -1 11 -24z m-2056 11 c7 -9 8 -15 2 -15 -5 0
-12 7 -16 15 -3 8 -4 15 -2 15 2 0 9 -7 16 -15z m-240 -5 c0 -5 -5 -10 -11
-10 -5 0 -7 5 -4 10 3 6 8 10 11 10 2 0 4 -4 4 -10z m37 -12 c-3 -8 -6 -5 -6
6 -1 11 2 17 5 13 3 -3 4 -12 1 -19z m273 7 c0 -2 -9 -3 -19 -2 -11 0 -18 5
-15 9 4 6 34 0 34 -7z m2172 -10 c3 -13 2 -22 -2 -20 -11 7 -20 45 -10 45 4 0
10 -11 12 -25z m48 21 c0 -2 -7 -7 -16 -10 -8 -3 -12 -2 -9 4 6 10 25 14 25 6z
m-2380 -16 c0 -5 -2 -10 -4 -10 -3 0 -8 5 -11 10 -3 6 -1 10 4 10 6 0 11 -4
11 -10z m210 -10 c0 -11 -4 -20 -9 -20 -5 0 -7 9 -4 20 3 11 7 20 9 20 2 0 4
-9 4 -20z m1807 -2 c-3 -8 -6 -5 -6 6 -1 11 2 17 5 13 3 -3 4 -12 1 -19z m171
5 c-2 -12 2 -17 12 -15 8 2 11 0 7 -4 -11 -11 -38 -14 -31 -3 3 5 0 9 -6 9 -7
0 -6 5 2 15 17 19 19 18 16 -2z m73 -7 c-6 -7 -9 -15 -6 -18 3 -2 -2 -5 -10
-5 -13 0 -13 2 0 17 8 9 12 20 8 25 -5 4 -2 5 5 1 9 -6 10 -11 3 -20z m34 14
c3 -5 1 -10 -4 -10 -6 0 -11 5 -11 10 0 6 2 10 4 10 3 0 8 -4 11 -10z m-2270
-19 c-3 -6 -11 -11 -16 -11 -5 0 -4 6 3 14 14 16 24 13 13 -3z m2361 -5 c1 -7
-4 -13 -11 -13 -7 0 -11 7 -10 16 2 9 4 18 4 20 2 8 15 -10 17 -23z m-2298 8
c-4 -3 -10 -6 -15 -6 -4 0 -17 -4 -28 -10 -20 -9 -20 -9 -1 6 18 15 57 23 44
10z m13 -21 c-12 -20 -14 -14 -5 12 4 9 9 14 11 11 3 -2 0 -13 -6 -23z m1987
2 c-3 -3 -9 2 -12 12 -6 14 -5 15 5 6 7 -7 10 -15 7 -18z m41 3 c13 -20 12
-22 -1 -11 -8 7 -17 11 -20 8 -2 -3 -5 2 -5 10 0 21 10 19 26 -7z m-2244 3
c-3 -5 -1 -12 5 -16 5 -3 10 -11 10 -18 0 -6 -6 -2 -14 8 -13 18 -13 35 0 35
3 0 3 -4 -1 -9z m97 2 c-6 -2 -10 -9 -7 -13 3 -5 0 -12 -6 -16 -8 -4 -9 -3 -5
4 4 7 1 12 -6 12 -9 0 -9 3 2 10 8 5 20 9 25 9 6 0 4 -3 -3 -6z m2023 -13 c-3
-5 -12 -10 -18 -10 -7 0 -6 4 3 10 19 12 23 12 15 0z m-1846 -23 c0 -9 -2 -8
-6 1 -2 6 -10 9 -15 6 -7 -4 -8 -2 -4 5 9 13 26 5 25 -12z m2178 1 c-3 -8 -6
-5 -6 6 -1 11 2 17 5 13 3 -3 4 -12 1 -19z m-2272 -1 c3 -4 2 -5 -2 -2 -3 3
-12 0 -18 -5 -9 -8 -14 -6 -18 5 -5 10 -1 14 13 12 11 -2 22 -6 25 -10z m1975
1 c0 -7 -6 -20 -13 -28 -14 -17 -42 -26 -32 -10 3 5 0 10 -7 10 -10 0 -9 3 2
10 9 6 17 5 23 -3 6 -8 7 -4 4 11 -3 15 0 22 9 22 8 0 14 -6 14 -12z m55 0
c19 -54 11 -75 -22 -55 -8 5 -9 0 -5 -15 3 -13 1 -19 -5 -15 -15 9 -22 56 -10
64 6 4 7 1 2 -7 -6 -10 -4 -12 8 -7 9 3 16 2 14 -2 -1 -5 1 -9 6 -10 4 -1 7 1
7 4 0 3 0 14 0 24 0 11 -8 22 -17 24 -17 4 -17 5 0 6 10 0 20 -5 22 -11z m151
-5 c7 -10 14 -13 14 -8 0 6 12 11 28 12 15 1 20 -1 12 -4 -8 -4 -20 -13 -27
-22 -6 -9 -13 -14 -15 -11 -2 3 -12 15 -22 28 -11 12 -16 22 -11 22 4 0 14 -8
21 -17z m-2110 -5 c4 4 3 0 -4 -9 -6 -9 -9 -20 -5 -25 4 -5 1 -3 -7 3 -18 16
-24 49 -6 34 7 -6 17 -7 22 -3z m-263 -19 c-8 -8 -13 -7 -18 2 -5 8 -4 10 3 5
7 -4 12 -2 12 5 0 7 3 9 7 6 4 -4 2 -12 -4 -18z m38 -2 c-10 -9 -11 -8 -5 6 3
10 9 15 12 12 3 -3 0 -11 -7 -18z m2235 7 c-4 -10 -2 -14 6 -11 7 2 12 10 10
16 -2 9 3 9 18 1 23 -12 18 -32 -5 -23 -11 3 -13 1 -9 -10 6 -17 -12 -32 -21
-17 -4 6 -11 7 -17 4 -7 -5 -8 -2 -2 7 9 14 10 19 13 39 0 6 4 10 7 10 3 0 3
-7 0 -16z m-1895 -9 c11 6 11 5 2 -5 -12 -14 -33 -6 -33 13 0 8 3 7 9 -2 5 -8
14 -10 22 -6z m43 -1 c3 -8 2 -12 -4 -9 -6 3 -10 10 -10 16 0 14 7 11 14 -7z
m-199 -3 c3 -5 2 -12 -3 -15 -5 -3 -9 1 -9 9 0 17 3 19 12 6z m175 -27 c0 -8
-5 -12 -10 -9 -6 4 -8 11 -5 16 9 14 15 11 15 -7z m2082 -6 c3 -24 35 -34 35
-11 0 8 -6 12 -16 8 -12 -5 -13 -3 -4 6 6 6 16 8 22 5 18 -11 12 -37 -9 -43
-11 -3 -18 -9 -15 -13 3 -5 1 -11 -4 -14 -5 -4 -8 2 -6 11 1 10 -1 23 -5 28
-13 19 -19 45 -10 45 5 0 10 -10 12 -22z m-2442 2 c0 -5 -7 -7 -15 -4 -8 4
-15 8 -15 10 0 2 7 4 15 4 8 0 15 -4 15 -10z m320 -10 c0 -11 -4 -20 -9 -20
-5 0 -7 9 -4 20 3 11 7 20 9 20 2 0 4 -9 4 -20z m1978 3 c-2 -13 3 -17 17 -15
27 5 14 -7 -14 -13 -12 -2 -19 0 -16 6 4 5 1 9 -5 9 -7 0 -6 5 2 15 17 19 19
18 16 -2z m73 -7 c-6 -7 -9 -15 -6 -18 3 -2 -2 -5 -10 -5 -8 0 -11 5 -7 11 4
6 7 14 8 19 1 4 2 10 3 13 0 3 6 2 11 -1 8 -5 8 -11 1 -19z m34 14 c3 -5 1
-10 -4 -10 -6 0 -11 5 -11 10 0 6 2 10 4 10 3 0 8 -4 11 -10z m-2274 -23 c-10
-9 -11 -8 -5 6 3 10 9 15 12 12 3 -3 0 -11 -7 -18z m2009 -2 c14 -19 14 -19
-2 -6 -10 7 -18 18 -18 24 0 6 1 8 3 6 1 -2 9 -13 17 -24z m-46 4 c3 -3 -4 -5
-14 -6 -11 -1 -22 2 -24 6 -5 8 30 8 38 0z m-2099 -8 c-3 -5 -1 -12 5 -16 5
-3 10 -11 10 -16 0 -6 -7 -3 -16 5 -13 14 -12 36 2 36 3 0 3 -4 -1 -9z m91 -6
c-1 -8 -6 -18 -11 -22 -4 -4 -5 -2 -1 5 4 7 2 12 -6 12 -9 0 -9 3 2 10 19 12
19 13 16 -5z m128 0 c-4 -8 -11 -15 -16 -15 -6 0 -5 6 2 15 7 8 14 15 16 15 2
0 1 -7 -2 -15z m137 -8 c-10 -9 -11 -8 -5 6 3 10 9 15 12 12 3 -3 0 -11 -7
-18z m1759 -2 c-7 -9 -15 -13 -19 -10 -3 3 1 10 9 15 21 14 24 12 10 -5z m66
6 c-3 -5 3 -11 13 -14 10 -2 20 -16 23 -30 3 -15 1 -24 -3 -21 -5 3 -9 14 -9
26 0 15 -5 19 -18 16 -12 -4 -18 1 -19 13 -1 11 3 19 8 19 6 0 8 -4 5 -9z
m-2210 -10 c-9 -14 -45 -20 -53 -9 -3 6 -2 9 3 6 5 -3 18 -2 29 3 27 10 27 10
21 0z m193 -7 c5 4 13 1 17 -5 4 -7 3 -9 -4 -5 -5 3 -20 -6 -32 -21 -17 -23
-19 -24 -10 -5 9 18 8 27 -2 40 -12 15 -11 16 4 4 9 -8 22 -11 27 -8z m114 -7
c-5 -8 -8 -7 -11 1 -2 7 -9 9 -14 6 -7 -4 -8 -2 -4 4 4 6 13 9 21 6 8 -4 12
-11 8 -17z m1727 13 c0 -5 -2 -10 -4 -10 -3 0 -8 5 -11 10 -3 6 -1 10 4 10 6
0 11 -4 11 -10z m150 -14 c0 -8 -5 -18 -10 -21 -6 -4 -8 -11 -5 -16 4 -5 2 -9
-3 -9 -5 0 -9 13 -8 30 1 29 26 44 26 16z m207 -1 c0 -10 -4 -12 -12 -5 -7 5
-16 6 -20 2 -5 -4 -5 -1 -1 6 10 17 33 15 33 -3z m55 -3 c-7 -2 -9 -9 -5 -15
3 -7 3 -9 -2 -5 -4 4 -13 4 -19 -2 -8 -6 -12 -3 -13 11 -1 11 2 17 7 14 5 -3
11 -1 15 5 4 6 11 7 18 3 8 -5 8 -8 -1 -11z m-2176 -27 c1 -8 -2 -15 -7 -15
-5 0 -9 3 -10 8 0 4 -2 15 -4 26 -3 14 -1 16 8 7 6 -6 12 -18 13 -26z m1999
26 c3 -5 1 -12 -5 -16 -5 -3 -10 1 -10 9 0 18 6 21 15 7z m-115 -10 c0 -5 -10
-11 -22 -14 -22 -6 -22 -6 -4 8 23 17 26 18 26 6z m-2175 -11 c3 -6 -1 -7 -9
-4 -18 7 -21 14 -7 14 6 0 13 -4 16 -10z m85 5 c0 -2 -10 -9 -22 -15 -22 -11
-22 -10 -4 4 21 17 26 19 26 11z m2137 -10 c0 -8 -4 -12 -9 -9 -5 3 -6 10 -3
15 9 13 12 11 12 -6z m88 5 c-3 -5 -2 -10 4 -10 5 0 13 5 16 10 9 15 22 12 22
-4 0 -8 -6 -12 -15 -8 -10 3 -13 1 -8 -6 4 -7 4 -18 -1 -24 -15 -25 -12 -39 7
-33 10 3 21 1 25 -4 4 -7 -1 -8 -11 -4 -11 4 -15 3 -11 -4 5 -7 0 -9 -13 -6
-11 3 -20 0 -20 -6 0 -6 6 -10 13 -8 6 1 12 -6 12 -15 0 -10 9 -24 20 -33 12
-9 14 -13 5 -10 -12 4 -16 -1 -16 -20 0 -19 4 -24 17 -20 10 3 20 1 24 -4 4
-7 -1 -8 -11 -4 -11 4 -15 3 -11 -4 5 -7 0 -9 -13 -6 -11 3 -20 0 -20 -6 0 -6
6 -10 13 -8 6 1 12 -6 12 -15 0 -10 9 -24 20 -33 12 -9 14 -13 5 -10 -12 4
-16 -1 -16 -20 0 -19 4 -24 17 -20 10 3 21 0 25 -6 4 -7 3 -9 -4 -5 -6 3 -14
-3 -17 -15 -4 -11 -9 -18 -12 -15 -4 3 -12 1 -20 -5 -10 -9 -13 -7 -13 7 0 11
5 26 10 34 7 11 5 17 -8 22 -16 6 -16 7 1 7 14 1 16 5 7 20 -5 11 -7 28 -3 38
6 16 5 16 -10 4 -15 -12 -17 -11 -17 3 0 10 5 26 10 37 8 15 7 19 -5 19 -8 0
-15 8 -14 18 0 10 3 12 6 5 2 -7 9 -13 14 -13 6 0 6 8 -1 19 -5 11 -7 28 -3
38 6 16 5 16 -10 4 -15 -12 -17 -11 -17 3 0 10 5 26 10 37 9 15 7 19 -7 20
-14 0 -13 2 5 9 12 5 22 14 22 20 0 6 -4 9 -9 6 -10 -7 -23 19 -14 28 10 10
15 7 8 -4z m-2050 -9 c3 -5 2 -12 -3 -15 -5 -3 -9 1 -9 9 0 17 3 19 12 6z
m-237 -29 c-10 -2 -18 -8 -18 -13 0 -5 -5 -9 -11 -9 -5 0 -7 5 -4 10 3 6 2 10
-4 10 -5 0 -12 -6 -14 -12 -3 -8 -6 -5 -6 6 -1 14 4 17 19 13 11 -3 23 -1 26
4 3 5 11 6 17 2 8 -5 7 -9 -5 -11z m206 9 c4 -5 -3 -7 -14 -4 -23 6 -26 13 -6
13 8 0 17 -4 20 -9z m2021 -1 c4 -6 1 -9 -5 -8 -7 2 -14 -5 -15 -14 -2 -10 3
-18 11 -18 8 0 14 -8 14 -17 0 -15 -2 -16 -10 -3 -8 12 -10 12 -10 1 0 -8 -3
-11 -7 -7 -12 12 -11 60 1 68 14 10 14 10 21 -2z m-2175 -10 c0 -5 -2 -10 -4
-10 -3 0 -8 5 -11 10 -3 6 -1 10 4 10 6 0 11 -4 11 -10z m110 0 c0 -5 -2 -10
-4 -10 -3 0 -8 5 -11 10 -3 6 -1 10 4 10 6 0 11 -4 11 -10z m84 -4 c-10 -8
-21 -12 -24 -10 -5 6 21 24 34 24 6 0 1 -6 -10 -14z m1934 -11 c-3 -3 -9 2
-12 12 -6 14 -5 15 5 6 7 -7 10 -15 7 -18z m-1988 0 c0 -8 -4 -15 -10 -15 -5
0 -7 7 -4 15 4 8 8 15 10 15 2 0 4 -7 4 -15z m-55 -5 c3 -6 -1 -7 -9 -4 -18 7
-21 14 -7 14 6 0 13 -4 16 -10z m148 -15 c4 3 5 2 3 -1 -2 -3 -6 -4 -9 -2 -2
2 -10 -2 -18 -8 -11 -9 -17 -9 -28 3 -11 12 -10 14 5 11 12 -2 18 2 16 12 -2
12 1 11 11 -2 8 -10 17 -16 20 -13z m1971 10 c3 -8 1 -15 -3 -15 -5 0 -11 7
-15 15 -3 8 -1 15 3 15 5 0 11 -7 15 -15z m-2248 -34 c-10 -11 -15 -24 -11
-30 4 -7 0 -8 -10 -5 -9 4 -13 9 -11 12 3 3 0 12 -7 20 -9 13 -9 14 1 8 8 -5
12 -1 13 11 0 10 3 13 6 6 8 -20 26 -15 18 5 -5 13 -4 14 6 5 10 -10 9 -17 -5
-32z m39 29 c-3 -5 -1 -10 4 -10 6 0 11 -8 11 -17 0 -16 -1 -16 -16 -1 -14 14
-13 38 2 38 3 0 2 -4 -1 -10z m2390 -18 c-3 -3 -11 0 -18 7 -9 10 -8 11 6 5
10 -3 15 -9 12 -12z m-2220 -12 c6 -1 10 -2 10 -3 0 -1 -2 -1 -4 1 -2 1 -13
-6 -23 -15 -18 -16 -18 -16 -12 0 4 12 2 16 -7 14 -8 -2 -11 -2 -6 0 4 3 4 9
1 15 -4 7 0 7 12 0 11 -6 24 -11 29 -12z m2191 8 c4 -7 4 -10 -1 -6 -4 4 -15
2 -24 -5 -14 -11 -14 -10 -2 6 16 20 18 21 27 5z m-146 -25 c0 -19 -13 -9 -16
12 -1 8 2 13 7 9 5 -3 9 -12 9 -21z m-2101 -16 c0 -9 -2 -9 -6 1 -2 6 -11 12
-19 12 -8 0 -14 5 -14 10 0 7 6 7 20 0 11 -6 20 -16 19 -23z m2205 17 c3 -8 2
-12 -4 -9 -6 3 -10 10 -10 16 0 14 7 11 14 -7z m-2294 -9 c5 3 10 4 10 1 0 -3
-10 -11 -22 -17 -13 -6 -20 -8 -16 -4 4 5 2 15 -5 24 -10 14 -10 14 5 3 9 -8
22 -11 28 -7z m177 8 c-4 -3 -2 -12 4 -19 7 -8 7 -14 -1 -19 -6 -4 -9 -1 -8 6
2 7 -2 13 -9 14 -6 0 -15 4 -20 9 -4 5 -3 6 4 2 6 -3 14 -2 18 4 3 5 9 10 12
10 4 0 3 -3 0 -7z m40 -20 c0 -7 -4 -13 -8 -13 -4 0 -9 6 -12 13 -3 8 0 14 7
14 7 0 13 -6 13 -14z m2057 1 c3 -8 2 -12 -4 -9 -6 3 -10 10 -10 16 0 14 7 11
14 -7z m-107 -17 c1 -11 1 -18 0 -16 -2 2 -8 11 -15 20 -9 12 -9 16 1 16 7 0
14 -9 14 -20z m165 16 c-6 -2 -10 -9 -7 -13 3 -5 1 -11 -4 -14 -7 -5 -8 11 -2
32 1 1 7 2 14 1 9 0 9 -2 -1 -6z m-134 -9 c-4 -3 -2 -19 3 -37 5 -17 5 -26 0
-21 -15 16 -22 64 -10 64 7 0 10 -3 7 -6z m-2243 -14 c3 -5 1 -10 -4 -10 -6 0
-11 5 -11 10 0 6 2 10 4 10 3 0 8 -4 11 -10z m45 -10 c0 -5 -5 -10 -11 -10 -5
0 -7 5 -4 10 3 6 8 10 11 10 2 0 4 -4 4 -10z m190 -5 c-7 -9 -15 -13 -19 -10
-3 3 1 10 9 15 21 14 24 12 10 -5z m1959 2 c6 -8 8 -17 4 -20 -3 -4 1 -7 10
-7 10 0 17 -8 17 -17 0 -15 -2 -16 -10 -3 -8 12 -10 12 -10 1 0 -23 -15 -2
-15 22 -1 12 -6 21 -13 20 -7 -2 -12 2 -12 7 0 14 16 12 29 -3z m231 9 c0 -2
-7 -7 -16 -10 -8 -3 -12 -2 -9 4 6 10 25 14 25 6z m-2149 -30 c0 18 1 18 9 -1
5 -11 9 -14 9 -7 1 6 5 12 11 12 5 0 7 -7 4 -15 -4 -9 -15 -13 -28 -11 -12 2
-30 -2 -41 -10 -13 -10 -22 -11 -32 -3 -10 9 -13 8 -13 -4 0 -9 -4 -19 -10
-22 -6 -3 -7 1 -4 10 5 11 2 14 -10 9 -9 -3 -16 -14 -17 -23 0 -10 -2 -11 -6
-3 -2 6 -11 12 -19 12 -16 0 -19 26 -4 35 6 3 7 -1 4 -9 -4 -11 0 -16 11 -16
9 0 13 4 10 10 -4 6 1 7 11 3 10 -4 15 -2 11 4 -7 11 22 11 40 0 6 -4 14 -3
17 2 4 5 0 12 -6 15 -7 3 -4 4 7 3 13 -1 19 3 17 13 -1 10 2 9 13 -4 15 -20
15 -20 16 0z m1894 -6 c3 -5 1 -10 -4 -10 -6 0 -11 5 -11 10 0 6 2 10 4 10 3
0 8 -4 11 -10z m-2120 -20 c8 0 17 -5 20 -10 4 -6 1 -9 -6 -8 -6 2 -14 -3 -17
-11 -3 -10 1 -12 14 -8 17 6 17 5 2 -5 -15 -11 -15 -14 4 -41 l21 -29 -21 13
c-12 7 -19 15 -17 18 3 2 0 10 -6 18 -6 7 -8 13 -3 13 5 0 2 5 -6 10 -12 8
-13 11 -1 19 9 6 10 11 2 15 -6 4 -11 13 -10 19 0 9 2 9 6 0 2 -7 11 -13 18
-13z m282 0 c-3 -11 0 -20 6 -20 6 0 2 -6 -8 -14 -29 -21 -36 -10 -17 24 20
35 26 38 19 10z m1833 -3 c12 -4 11 -6 -3 -6 -10 -1 -16 -5 -12 -10 3 -5 2
-12 -3 -15 -4 -2 -9 10 -10 27 -1 18 1 27 5 21 5 -6 15 -14 23 -17z m320 11
c0 -24 -15 -37 -30 -28 -13 8 -12 10 3 10 20 0 23 16 5 23 -8 3 -6 6 5 6 9 1
17 -5 17 -11z m-79 -15 c11 -15 11 -16 -1 -6 -11 10 -17 10 -29 0 -14 -11 -14
-10 -2 6 7 9 15 17 16 17 1 0 9 -8 16 -17z m-151 -20 c0 -19 -13 -9 -16 12 -1
8 2 13 7 9 5 -3 9 -12 9 -21z m104 1 c3 -8 2 -12 -4 -9 -6 3 -10 10 -10 16 0
14 7 11 14 -7z m-2107 -62 c-5 -7 -12 -10 -16 -7 -3 3 1 10 9 15 11 7 12 10 2
10 -7 0 -11 4 -7 9 3 5 1 12 -5 16 -6 4 -7 11 -4 17 4 6 12 -2 19 -18 8 -20 9
-33 2 -42z m1938 40 c-3 -3 -11 0 -18 7 -9 10 -8 11 6 5 10 -3 15 -9 12 -12z
m149 2 c3 -8 2 -12 -4 -9 -6 3 -10 10 -10 16 0 14 7 11 14 -7z m-2394 -15 c5
10 9 9 13 -1 3 -9 -1 -15 -11 -15 -20 0 -33 17 -24 32 4 5 8 2 10 -9 3 -13 6
-15 12 -7z m180 17 c0 -2 -7 -6 -15 -10 -8 -3 -15 -1 -15 4 0 6 7 10 15 10 8
0 15 -2 15 -4z m241 -36 c7 0 10 -2 8 -5 -3 -2 -14 -2 -26 1 -15 4 -19 11 -15
27 5 21 5 21 13 -1 5 -12 14 -22 20 -22z m2033 31 c3 -5 -1 -14 -8 -20 -12
-10 -14 -9 -11 6 2 10 4 19 4 21 2 5 10 2 15 -7z m-238 -27 c1 -9 0 -13 -4
-10 -3 4 -7 14 -8 22 -1 9 0 13 4 10 3 -4 7 -14 8 -22z m101 -1 c1 -24 1 -25
-7 -8 -11 26 -12 35 -2 35 4 0 8 -12 9 -27z m-2242 7 c3 -5 -1 -10 -10 -10 -9
0 -13 5 -10 10 3 6 8 10 10 10 2 0 7 -4 10 -10z m2022 3 c-10 -3 -14 -9 -10
-16 4 -7 -1 -6 -10 2 -22 17 -22 16 11 18 15 0 19 -1 9 -4z m-2035 -52 c-5
-14 -3 -14 11 -2 15 12 17 11 17 -3 0 -9 -5 -16 -11 -16 -5 0 -7 -6 -3 -12 5
-8 2 -8 -10 1 -16 13 -16 12 -5 -12 7 -15 18 -27 25 -27 7 0 16 -4 19 -10 3
-5 0 -7 -7 -5 -10 4 -14 -3 -14 -20 0 -19 4 -24 17 -20 10 3 20 1 24 -4 4 -7
-1 -8 -11 -4 -11 4 -15 3 -11 -4 5 -7 0 -9 -13 -6 -11 3 -20 0 -20 -6 0 -6 6
-10 13 -8 6 1 12 -6 12 -15 0 -10 9 -24 20 -33 12 -9 14 -13 5 -10 -12 4 -16
-1 -16 -20 0 -19 4 -24 17 -20 10 3 20 1 24 -4 4 -7 -1 -8 -11 -4 -11 4 -15 3
-11 -4 5 -7 0 -9 -13 -6 -11 3 -20 0 -20 -6 0 -6 6 -10 13 -8 6 1 12 -6 12
-15 0 -10 9 -24 20 -33 12 -9 14 -13 5 -10 -12 4 -16 -1 -16 -20 0 -19 4 -24
17 -20 10 3 20 1 24 -4 4 -7 -1 -8 -11 -4 -11 4 -15 3 -11 -4 5 -7 0 -9 -13
-6 -11 3 -20 0 -20 -6 0 -6 5 -10 11 -9 6 2 13 -3 14 -10 2 -7 1 -8 -1 -3 -3
5 -14 6 -26 4 -11 -4 -24 0 -29 8 -12 19 -11 39 2 39 5 0 8 -4 5 -8 -2 -4 -1
-13 3 -20 5 -9 11 -5 19 13 11 24 10 25 -21 26 -17 0 -25 3 -17 6 8 3 18 11
22 17 5 8 8 7 8 -1 0 -7 5 -13 10 -13 7 0 7 6 0 19 -5 11 -7 28 -3 38 6 15 4
16 -9 6 -8 -7 -18 -10 -22 -6 -4 4 -5 -5 -2 -20 3 -15 1 -25 -4 -22 -4 3 -10
20 -12 39 -3 25 -1 32 7 26 8 -7 15 -2 23 15 10 21 9 25 -3 25 -8 0 -15 8 -14
18 0 10 3 12 6 5 2 -7 9 -13 14 -13 6 0 6 8 -1 19 -5 11 -7 28 -3 38 6 16 5
16 -10 4 -15 -12 -17 -11 -17 3 0 10 5 26 10 37 8 15 7 19 -5 19 -8 0 -15 8
-14 18 0 10 3 12 6 5 2 -7 9 -13 14 -13 5 0 3 11 -3 25 -6 14 -15 25 -20 25
-4 0 -8 8 -9 18 0 10 -3 12 -6 5 -7 -18 -20 -16 -20 2 0 8 4 12 8 9 4 -2 15 4
25 13 16 17 16 18 1 21 -9 2 -17 10 -17 18 0 11 4 11 19 -3 11 -9 17 -23 13
-32z m161 34 c-3 -9 -8 -14 -10 -11 -3 3 -2 9 2 15 9 16 15 13 8 -4z m116 3
c-4 -30 2 -43 11 -23 8 18 9 18 9 2 1 -10 6 -15 11 -12 6 4 7 11 4 17 -4 7 -2
8 4 4 22 -13 1 -35 -30 -32 -30 4 -30 3 -25 -35 3 -22 1 -39 -5 -39 -5 0 -7 4
-3 9 3 5 1 12 -4 16 -6 3 -7 13 -4 23 3 9 3 14 -2 10 -4 -4 -14 -3 -22 3 -10
9 -13 8 -13 -4 0 -9 -4 -19 -10 -22 -6 -3 -7 1 -4 9 8 20 0 20 -20 1 -18 -18
-46 -9 -45 14 0 9 3 11 5 4 6 -13 64 0 74 18 5 7 9 5 14 -6 3 -9 11 -13 17 -9
8 4 7 9 -2 16 -11 7 -9 8 6 6 11 -2 20 3 21 10 1 6 2 17 3 22 0 6 3 10 6 10 3
0 5 -6 4 -12z m1928 0 c11 -18 12 -37 3 -43 -4 -2 -7 5 -6 18 1 13 -4 21 -11
20 -7 -2 -13 2 -13 7 0 14 17 12 27 -2z m233 8 c0 -2 -7 -7 -16 -10 -8 -3 -12
-2 -9 4 6 10 25 14 25 6z m-2476 -32 c5 -14 4 -15 -9 -4 -17 14 -19 20 -6 20
5 0 12 -7 15 -16z m378 -26 c-8 -8 -9 -4 -5 13 4 13 8 18 11 10 2 -7 -1 -18
-6 -23z m1681 15 c-3 -7 -8 -13 -12 -13 -4 0 -8 6 -8 13 0 8 6 14 13 14 7 0
10 -6 7 -14z m162 7 c3 -5 1 -10 -4 -10 -6 0 -11 5 -11 10 0 6 2 10 4 10 3 0
8 -4 11 -10z m-2112 -24 c8 5 8 3 0 -7 -17 -18 -16 -32 1 -26 10 4 13 1 10 -7
-3 -7 -11 -13 -19 -13 -8 0 -12 4 -9 8 2 4 -2 10 -8 12 -10 4 -10 8 1 15 9 7
10 12 2 16 -6 4 -11 13 -11 19 0 7 5 4 11 -6 6 -9 16 -14 22 -11z m344 17 c-4
-3 -2 -12 4 -20 9 -9 8 -13 0 -13 -6 0 -11 5 -11 11 0 5 -6 7 -12 3 -9 -5 -9
-2 1 9 7 9 16 17 19 17 3 0 2 -3 -1 -7z m1752 -21 c-5 -2 -7 -8 -4 -12 3 -5 2
-11 -3 -14 -4 -2 -9 9 -10 25 -2 26 0 28 12 17 8 -7 10 -15 5 -16z m-114 8 c3
-5 1 -10 -4 -10 -6 0 -11 5 -11 10 0 6 2 10 4 10 3 0 8 -4 11 -10z m366 -7
c11 -15 11 -16 -1 -6 -11 10 -17 10 -29 0 -14 -11 -14 -10 -2 6 7 9 15 17 16
17 1 0 9 -8 16 -17z m-2045 -2 c-4 -5 -3 -11 1 -14 5 -2 2 -2 -4 -1 -7 2 -13
-5 -13 -16 0 -10 -4 -21 -9 -24 -5 -4 -7 4 -3 16 5 21 4 22 -12 8 -21 -17 -56
-24 -56 -11 0 9 28 22 59 27 7 2 18 7 24 13 13 13 20 14 13 2z m1894 -18 c0
-19 -13 -9 -16 12 -1 8 2 13 7 9 5 -3 9 -12 9 -21z m104 1 c3 -8 2 -12 -4 -9
-6 3 -10 10 -10 16 0 14 7 11 14 -7z m-144 -4 c0 -5 -2 -10 -4 -10 -3 0 -8 5
-11 10 -3 6 -1 10 4 10 6 0 11 -4 11 -10z m124 -16 c3 -8 2 -12 -4 -9 -6 3
-10 10 -10 16 0 14 7 11 14 -7z m-2205 -8 c9 -10 7 -17 -6 -27 -16 -13 -17
-12 -5 3 14 18 0 34 -20 22 -7 -4 -8 -3 -4 4 9 16 21 15 35 -2z m2058 8 c-3
-3 -12 -4 -19 -1 -8 3 -5 6 6 6 11 1 17 -2 13 -5z m207 -3 c3 -5 -1 -14 -8
-20 -12 -10 -14 -9 -11 6 2 10 4 19 4 21 2 5 10 2 15 -7z m-366 -16 c9 1 11 0
4 -2 -7 -3 -9 -10 -5 -16 4 -7 -1 -6 -10 2 -9 7 -17 19 -16 25 0 8 2 8 5 0 3
-7 13 -11 22 -9z m165 -5 c3 6 4 5 3 -2 -4 -19 -49 -15 -52 4 -2 16 0 16 21 2
15 -10 25 -11 28 -4z m62 10 c-3 -5 3 -10 15 -10 12 0 18 5 15 10 -9 14 8 12
28 -2 15 -11 11 -13 -24 -13 -25 0 -44 5 -46 13 -3 6 0 12 7 12 6 0 8 -4 5
-10z m-1885 -15 c-7 -9 -15 -13 -19 -10 -3 3 1 10 9 15 21 14 24 12 10 -5z
m-123 -17 c0 -7 4 -21 8 -30 4 -11 3 -18 -5 -18 -6 0 -8 5 -5 10 3 6 2 10 -2
10 -5 0 -9 9 -10 20 -1 11 2 20 6 20 4 0 8 -6 8 -12z m2059 -3 c-1 -8 -6 -18
-11 -22 -4 -4 -5 -2 -1 5 5 8 1 12 -11 12 -15 0 -16 2 -3 10 21 14 29 12 26
-5z m-2342 -10 c3 -8 1 -15 -3 -15 -5 0 -11 7 -15 15 -3 8 -1 15 3 15 5 0 11
-7 15 -15z m226 1 c-10 -13 -40 -12 -40 1 0 3 7 3 15 0 8 -4 17 -2 20 3 4 6 9
10 12 10 3 0 0 -6 -7 -14z m127 -1 c0 -8 -4 -12 -8 -9 -4 2 -10 0 -14 -6 -9
-15 -25 -12 -25 6 0 8 5 12 10 9 6 -3 10 -1 10 4 0 6 6 11 13 11 8 0 14 -7 14
-15z m1900 0 c0 -8 -4 -12 -9 -9 -5 3 -6 10 -3 15 9 13 12 11 12 -6z m-194
-12 c-3 -7 -8 -13 -12 -13 -4 0 -8 6 -8 13 0 8 6 14 13 14 7 0 10 -6 7 -14z
m162 7 c3 -5 1 -10 -4 -10 -6 0 -11 5 -11 10 0 6 2 10 4 10 3 0 8 -4 11 -10z
m-2248 -22 c-3 -8 -6 -5 -6 6 -1 11 2 17 5 13 3 -3 4 -12 1 -19z m2408 4 c0
-7 -4 -12 -10 -11 -5 0 -12 -8 -16 -18 -6 -15 -8 -13 -8 8 -1 14 2 29 6 33 10
9 28 2 28 -12z m-290 -2 c3 -5 1 -10 -4 -10 -6 0 -11 5 -11 10 0 6 2 10 4 10
3 0 8 -4 11 -10z m117 -8 c-7 -2 -9 -9 -5 -15 3 -7 2 -8 -2 -4 -16 14 -14 36
3 29 10 -4 12 -7 4 -10z m223 9 c3 -5 2 -12 -3 -15 -5 -3 -9 1 -9 9 0 17 3 19
12 6z m-2421 -50 c2 -19 1 -30 -4 -25 -5 5 -11 24 -14 43 -2 19 -1 30 4 25 5
-5 11 -24 14 -43z m1941 40 c-9 -8 -36 -10 -30 -2 2 4 11 8 20 8 8 0 13 -3 10
-6z m382 -8 c0 -7 -3 -11 -5 -8 -3 3 -12 -1 -21 -7 -9 -7 -13 -8 -9 -4 4 5 3
15 -3 23 -9 10 -6 13 13 11 14 -1 25 -8 25 -15z m-2372 -26 c1 -15 -3 -27 -7
-27 -4 0 -7 -5 -5 -11 1 -6 -5 -14 -13 -16 -13 -4 -13 -3 0 6 13 10 13 11 0
11 -9 0 -11 3 -4 8 18 12 23 39 11 52 -9 10 -9 11 3 8 8 -3 15 -17 15 -31z
m149 17 c3 -8 2 -12 -4 -9 -6 3 -10 10 -10 16 0 14 7 11 14 -7z m1877 -12 c-8
-16 -7 -24 4 -36 10 -9 11 -17 5 -21 -6 -4 -7 -11 -4 -17 5 -7 1 -9 -9 -5 -10
4 -20 0 -26 -11 -6 -9 -11 -13 -11 -8 0 5 7 17 16 27 17 19 12 75 -6 64 -5 -3
-12 0 -16 6 -4 8 -3 9 4 5 7 -4 12 -1 12 6 0 11 2 10 9 0 6 -11 10 -10 15 4 3
9 9 14 12 11 3 -3 1 -14 -5 -25z m93 7 c-6 -11 -24 -2 -24 11 0 5 7 7 15 4 8
-4 12 -10 9 -15z m330 5 c3 -8 2 -12 -4 -9 -6 3 -10 10 -10 16 0 14 7 11 14
-7z m-2014 -14 c0 -10 -4 -21 -9 -24 -5 -4 -7 4 -3 16 5 21 4 22 -12 8 -21
-16 -56 -24 -56 -11 0 10 35 26 61 28 12 1 19 -5 19 -17z m1736 -5 c1 -8 -2
-15 -6 -15 -5 0 -8 9 -7 20 1 21 10 18 13 -5z m311 18 c-4 -3 -2 -12 3 -18 7
-9 5 -17 -7 -26 -16 -13 -17 -12 -5 3 9 11 10 18 2 23 -10 6 -5 25 7 25 4 0 3
-3 0 -7z m-2353 -19 c3 -8 2 -12 -4 -9 -6 3 -10 10 -10 16 0 14 7 11 14 -7z
m61 -1 c-2 -10 -4 -19 -4 -21 -1 -2 -6 0 -11 3 -8 5 -7 11 1 21 15 18 18 18
14 -3z m31 8 c-4 -5 0 -11 6 -14 10 -3 10 -7 -1 -20 -7 -10 -18 -17 -24 -17
-6 0 -3 6 8 13 13 10 15 16 6 21 -10 7 -7 26 5 26 3 0 3 -4 0 -9z m118 -7 c8
-22 8 -24 -6 -24 -6 0 -8 3 -5 7 4 3 2 12 -4 20 -7 8 -8 13 -1 13 5 0 13 -7
16 -16z m1713 -9 c-15 -16 -19 -13 -11 9 3 9 10 13 15 10 5 -3 3 -11 -4 -19z
m43 10 c11 -13 10 -14 -4 -9 -9 3 -16 10 -16 15 0 13 6 11 20 -6z m205 -15
c-17 -33 -21 -35 -31 -18 -5 7 -3 8 6 3 10 -6 12 -3 8 13 -4 14 -1 22 11 25 9
3 17 5 19 6 1 0 -4 -12 -13 -29z m-2277 -10 c-1 -16 -6 -30 -11 -30 -4 0 -6
-4 -2 -9 3 -5 1 -12 -4 -16 -9 -5 -8 11 4 65 5 21 4 20 10 20 3 0 4 -13 3 -30z
m2182 26 c0 -3 -4 -8 -10 -11 -5 -3 -10 -1 -10 4 0 6 5 11 10 11 6 0 10 -2 10
-4z m186 -29 c-3 -12 -5 -24 -5 -26 -1 -2 -9 3 -18 10 -11 10 -14 10 -9 2 4
-8 2 -13 -6 -13 -8 0 -14 9 -14 20 0 16 5 18 26 13 23 -6 24 -5 11 11 -12 14
-12 16 2 10 10 -4 15 -14 13 -27z m59 15 c-2 -3 0 -14 6 -26 8 -17 6 -16 -10
4 -11 14 -21 19 -21 12 0 -7 -4 -10 -10 -7 -18 11 -11 21 15 21 13 0 22 -2 20
-4z m-369 -14 c4 -7 3 -8 -4 -4 -7 4 -12 2 -12 -4 0 -7 9 -14 19 -17 20 -5 38
-33 21 -33 -6 0 -10 5 -10 10 0 6 -5 10 -10 10 -7 0 -7 -6 0 -19 6 -13 7 -22
0 -26 -5 -3 -6 -13 -3 -21 5 -12 -1 -15 -28 -12 -26 2 -34 8 -34 23 0 14 8 21
28 23 15 2 27 7 27 12 0 5 -8 7 -17 4 -11 -4 -14 -3 -7 3 6 4 10 17 8 27 -5
31 9 46 22 24z m50 5 c-15 -4 -16 -7 -5 -14 11 -6 11 -11 1 -21 -9 -9 -12 -9
-12 5 0 9 -6 17 -12 17 -9 0 -8 4 2 10 8 5 22 9 30 9 9 -1 8 -3 -4 -6z m121
-8 c0 -8 -4 -12 -9 -9 -5 3 -6 10 -3 15 9 13 12 11 12 -6z m263 -9 c0 -2 -8
-10 -17 -17 -16 -13 -17 -12 -4 4 13 16 21 21 21 13z m-2456 -21 c3 -8 1 -15
-3 -15 -5 0 -11 7 -15 15 -3 8 -1 15 3 15 5 0 11 -7 15 -15z m353 0 c0 -8 -4
-12 -8 -9 -4 2 -10 0 -14 -6 -9 -15 -25 -12 -25 6 0 8 5 12 10 9 6 -3 10 -1
10 4 0 6 6 11 13 11 8 0 14 -7 14 -15z m1898 6 c-3 -5 3 -11 12 -13 15 -3 15
-5 -3 -10 -17 -4 -21 -2 -19 11 5 22 4 21 11 21 3 0 3 -4 -1 -9z m-1965 -11
c0 -5 -5 -10 -11 -10 -5 0 -7 5 -4 10 3 6 8 10 11 10 2 0 4 -4 4 -10z m1935 0
c3 -5 1 -10 -4 -10 -6 0 -11 5 -11 10 0 6 2 10 4 10 3 0 8 -4 11 -10z m121
-17 c-10 -10 -19 5 -10 18 6 11 8 11 12 0 2 -7 1 -15 -2 -18z m41 12 c0 -8 -4
-12 -8 -9 -4 2 -10 -2 -12 -8 -4 -8 -6 -7 -6 4 -1 9 5 19 12 21 6 3 12 6 13 6
0 1 1 -6 1 -14z m-77 -5 c-13 -9 -13 -11 0 -20 8 -5 20 -8 27 -5 7 2 15 0 18
-4 6 -10 -32 -22 -49 -15 -6 2 -13 16 -14 29 -1 18 3 25 16 25 15 0 15 -2 2
-10z m144 -8 c3 -5 -1 -9 -9 -9 -8 0 -12 4 -9 9 3 4 7 8 9 8 2 0 6 -4 9 -8z
m-2483 -30 c-15 -28 -14 -37 4 -22 12 10 14 7 12 -19 -2 -27 -18 -41 -19 -16
0 6 -4 15 -9 21 -5 6 -7 18 -3 27 3 8 0 17 -8 20 -7 2 -5 3 5 2 9 -2 17 2 17
8 0 6 3 8 6 5 3 -4 1 -15 -5 -26z m1714 18 c-3 -5 -13 -10 -21 -10 -8 0 -13
-4 -10 -8 6 -10 -31 -9 -39 1 -3 4 -2 5 1 3 3 -2 20 2 37 9 39 17 40 17 32 5z
m399 -12 c-1 -13 -3 -25 -4 -28 -1 -3 -2 -8 -1 -12 0 -4 -9 -6 -20 -5 -19 1
-19 2 3 19 14 11 18 18 9 18 -11 0 -11 3 -1 15 16 20 17 19 14 -7z m-1970 -4
c3 -8 2 -12 -4 -9 -6 3 -10 10 -10 16 0 14 7 11 14 -7z m113 10 c-3 -3 -12 -4
-19 -1 -8 3 -5 6 6 6 11 1 17 -2 13 -5z m189 -6 c4 -7 3 -8 -4 -4 -8 5 -12 0
-12 -13 0 -11 -4 -22 -9 -25 -5 -4 -7 4 -3 16 5 21 4 22 -12 8 -10 -8 -23 -15
-30 -17 -39 -8 -50 -10 -38 -6 6 3 12 8 12 13 0 8 29 21 58 26 8 1 16 5 20 8
8 8 10 8 18 -6z m1789 3 c3 -5 2 -12 -3 -15 -5 -3 -9 1 -9 9 0 17 3 19 12 6z
m65 -13 c0 -5 -9 -4 -20 2 -11 6 -20 12 -20 14 0 2 9 2 20 -1 11 -3 20 -9 20
-15z m-2114 -13 c1 -8 -4 -19 -11 -25 -10 -9 -13 -7 -10 7 2 10 4 20 5 23 1 3
1 10 0 15 -1 6 2 6 6 2 4 -4 9 -14 10 -22z m139 15 c3 -5 1 -10 -4 -10 -6 0
-11 5 -11 10 0 6 2 10 4 10 3 0 8 -4 11 -10z m2180 0 c-3 -5 -11 -10 -16 -10
-6 0 -7 5 -4 10 3 6 11 10 16 10 6 0 7 -4 4 -10z m-2381 -16 c3 -8 2 -12 -4
-9 -6 3 -10 10 -10 16 0 14 7 11 14 -7z m399 3 c-3 -5 -11 -6 -19 -3 -8 3 -14
0 -14 -6 0 -6 -3 -9 -6 -5 -10 10 3 23 25 23 11 0 17 -4 14 -9z m1752 -5 c-3
-3 -11 0 -18 7 -9 10 -8 11 6 5 10 -3 15 -9 12 -12z m-735 -2 c0 -5 -5 -10
-11 -10 -5 0 -7 5 -4 10 3 6 8 10 11 10 2 0 4 -4 4 -10z m80 -10 c-6 -11 -13
-20 -16 -20 -2 0 0 9 6 20 6 11 13 20 16 20 2 0 0 -9 -6 -20z m720 0 c6 -11 8
-20 6 -20 -3 0 -10 9 -16 20 -6 11 -8 20 -6 20 3 0 10 -9 16 -20z m85 10 c3
-5 2 -10 -4 -10 -5 0 -13 5 -16 10 -3 6 -2 10 4 10 5 0 13 -4 16 -10z m61 -3
c8 3 14 1 14 -5 0 -14 -33 -8 -36 7 -1 6 0 7 2 2 3 -6 12 -7 20 -4z m-2270
-25 c-17 -16 -18 -16 -5 5 7 12 15 20 18 17 3 -2 -3 -12 -13 -22z m1494 13
c12 15 43 15 57 1 5 -4 1 -6 -7 -4 -8 2 -14 -3 -12 -10 1 -8 -2 -11 -8 -7 -6
3 -8 11 -5 16 9 14 -5 11 -21 -6 -22 -22 -40 -18 -41 8 -2 20 -1 21 11 4 12
-15 15 -15 26 -2z m190 9 c0 -8 -19 -13 -24 -6 -3 5 1 9 9 9 8 0 15 -2 15 -3z
m75 -14 c0 -7 -7 -15 -15 -17 -13 -4 -13 -3 0 6 13 10 13 12 0 22 -13 9 -13
10 0 6 8 -2 15 -10 15 -17z m185 10 c-8 -5 -22 -9 -30 -9 -10 0 -8 3 5 9 27
12 43 12 25 0z m253 -8 c7 -3 -21 -31 -33 -32 -3 0 -5 11 -5 24 0 22 9 24 38
8z m-2124 5 c-2 -1 -13 -9 -24 -17 -19 -14 -19 -14 -6 3 7 9 18 17 24 17 6 0
8 -1 6 -3z m864 -12 c-3 -9 -8 -14 -10 -11 -3 3 -2 9 2 15 9 16 15 13 8 -4z
m-1176 -1 c-3 -3 -12 -4 -19 -1 -8 3 -5 6 6 6 11 1 17 -2 13 -5z m540 0 c-3
-3 -12 -4 -19 -1 -8 3 -5 6 6 6 11 1 17 -2 13 -5z m1548 -6 c4 -3 -3 -11 -14
-18 -12 -6 -18 -16 -15 -22 5 -7 2 -8 -5 -4 -7 5 -19 0 -27 -10 -14 -18 -14
-18 -4 4 6 12 16 22 22 22 9 0 9 3 0 12 -7 7 -12 15 -12 18 0 8 47 7 55 -2z
m236 -5 c12 -16 12 -17 -2 -6 -9 7 -20 9 -24 5 -5 -4 -5 -1 -1 6 9 16 11 15
27 -5z m-1756 -21 c3 -16 0 -19 -13 -15 -9 4 -11 8 -5 10 7 3 9 12 6 21 -3 9
-3 14 1 11 4 -4 8 -16 11 -27z m1575 18 c0 -5 -5 -10 -11 -10 -5 0 -7 5 -4 10
3 6 8 10 11 10 2 0 4 -4 4 -10z m50 0 c0 -5 -2 -10 -4 -10 -3 0 -8 5 -11 10
-3 6 -1 10 4 10 6 0 11 -4 11 -10z m-1763 -15 c0 -8 -3 -13 -5 -10 -9 9 -32
-17 -25 -28 3 -6 1 -7 -5 -3 -7 4 -12 16 -12 27 0 11 5 17 10 14 6 -3 10 -1
10 4 0 6 6 11 13 11 8 0 14 -7 14 -15z m219 -10 c1 -8 -2 -17 -7 -21 -5 -3 -8
6 -7 20 2 26 10 26 14 1z m485 18 c0 -5 2 -18 5 -30 2 -13 0 -23 -4 -23 -5 0
-9 6 -9 13 0 6 -4 20 -8 30 -4 10 -3 17 4 17 6 0 11 -3 12 -7z m386 -15 c-3
-8 -6 -5 -6 6 -1 11 2 17 5 13 3 -3 4 -12 1 -19z m113 12 c0 -5 -2 -10 -4 -10
-3 0 -8 5 -11 10 -3 6 -1 10 4 10 6 0 11 -4 11 -10z m277 -12 c-3 -8 -6 -5 -6
6 -1 11 2 17 5 13 3 -3 4 -12 1 -19z m456 5 c-3 -7 -6 -13 -8 -13 -2 0 -5 6
-8 13 -3 8 1 14 8 14 7 0 11 -6 8 -14z m-2003 -6 c0 -5 -6 -7 -14 -4 -7 3 -20
0 -27 -6 -11 -10 -11 -9 -1 4 13 17 42 21 42 6z m720 -17 c-23 -20 -30 -24
-30 -15 0 8 44 45 48 40 3 -3 -5 -14 -18 -25z m630 26 c0 -3 -4 -8 -10 -11 -5
-3 -10 -1 -10 4 0 6 5 11 10 11 6 0 10 -2 10 -4z m46 -33 c-5 -12 -10 -13 -17
-6 -8 8 -7 16 2 26 16 17 24 5 15 -20z m744 18 c7 -15 7 -22 -2 -27 -7 -4 -10
-4 -6 1 4 4 3 16 -3 26 -5 11 -7 19 -5 19 3 0 10 -9 16 -19z m-1568 2 c-6 -2
-9 -10 -6 -15 4 -7 2 -8 -5 -4 -13 9 -5 26 12 25 9 0 8 -2 -1 -6z m108 -2 c0
-5 -7 -12 -16 -15 -14 -5 -15 -4 -4 9 14 17 20 19 20 6z m737 -13 c-3 -8 -6
-5 -6 6 -1 11 2 17 5 13 3 -3 4 -12 1 -19z m363 12 c0 -5 -7 -10 -16 -10 -8 0
-12 5 -9 10 3 6 10 10 16 10 5 0 9 -4 9 -10z m103 -5 c-3 -9 -8 -14 -10 -11
-3 3 -2 9 2 15 9 16 15 13 8 -4z m47 -8 c10 -4 8 -6 -7 -6 -16 -1 -23 5 -23
17 0 10 3 13 8 6 4 -6 14 -14 22 -17z m168 4 c-7 -11 -16 -17 -20 -15 -7 5 -8
-1 -8 -33 0 -5 14 -8 30 -7 16 0 28 -1 25 -4 -2 -3 0 -14 6 -26 8 -17 6 -16
-10 4 -13 16 -21 20 -21 11 0 -8 -3 -11 -7 -8 -3 4 -13 1 -21 -5 -24 -20 -49
-19 -55 3 -4 13 -1 19 6 16 7 -3 11 -11 9 -18 -2 -10 3 -8 15 4 16 15 16 19 3
27 -10 7 -11 10 -2 10 6 0 12 4 12 9 0 10 -19 9 -35 -1 -6 -4 -12 3 -12 15 -2
15 0 18 6 8 6 -9 11 -10 15 -2 4 6 12 9 17 6 5 -4 9 -1 9 5 0 7 7 10 15 7 8
-4 17 -2 20 3 4 6 8 10 11 10 2 0 -1 -9 -8 -19z m-2227 -8 c11 -15 11 -16 -1
-6 -11 10 -17 10 -29 0 -14 -11 -14 -10 -2 6 7 9 15 17 16 17 1 0 9 -8 16 -17z
m386 11 c-3 -3 -12 -4 -19 -1 -8 3 -5 6 6 6 11 1 17 -2 13 -5z m234 -11 c13
-16 12 -17 -3 -4 -10 7 -18 15 -18 17 0 8 8 3 21 -13z m333 2 c-4 -8 -8 -15
-10 -15 -2 0 -4 7 -4 15 0 8 4 15 10 15 5 0 7 -7 4 -15z m272 0 c12 -4 14 -8
5 -19 -6 -7 -8 -15 -5 -18 3 -3 1 -9 -5 -13 -15 -9 -14 18 1 33 9 9 5 12 -20
12 -19 0 -32 -5 -33 -12 0 -9 -2 -9 -6 1 -4 10 -9 8 -18 -8 -10 -20 -13 -21
-25 -6 -11 13 -10 15 4 9 11 -4 16 -2 14 6 -2 7 8 16 22 20 24 6 32 6 66 -5z
m259 -6 c11 -16 1 -19 -13 -3 -7 8 -8 14 -3 14 5 0 13 -5 16 -11z m246 -6 c13
-16 12 -17 -3 -4 -17 13 -22 21 -14 21 2 0 10 -8 17 -17z m389 7 c0 -5 -2 -10
-4 -10 -3 0 -8 5 -11 10 -3 6 -1 10 4 10 6 0 11 -4 11 -10z m-2365 -18 c-3 -3
-11 0 -18 7 -9 10 -8 11 6 5 10 -3 15 -9 12 -12z m199 2 c3 -8 2 -12 -4 -9 -6
3 -10 10 -10 16 0 14 7 11 14 -7z m302 4 c4 -7 3 -8 -4 -4 -8 5 -12 0 -12 -13
0 -11 -4 -22 -9 -25 -5 -4 -7 4 -4 16 4 23 4 23 -14 3 -10 -11 -30 -21 -45
-22 -23 -2 -26 0 -15 11 6 8 15 12 19 10 3 -2 8 0 10 6 2 6 14 12 27 15 13 2
26 7 29 10 8 7 10 6 18 -7z m318 -12 c-8 -20 -24 -21 -24 0 0 8 5 12 10 9 6
-3 10 -1 10 6 0 7 2 10 5 7 3 -3 3 -13 -1 -22z m194 -1 c-3 -3 -9 2 -12 12 -6
14 -5 15 5 6 7 -7 10 -15 7 -18z m125 4 c17 -1 18 -2 5 -6 -10 -2 -18 -8 -18
-12 0 -4 -10 -13 -23 -18 -19 -9 -24 -8 -24 3 0 8 3 12 5 9 8 -8 31 15 28 28
-1 7 -1 9 1 5 3 -5 14 -9 26 -9z m562 1 c17 -3 19 -10 2 -10 -9 0 -23 -10 -31
-22 -9 -12 -16 -17 -16 -11 0 6 7 16 15 23 13 11 13 14 -2 27 -17 13 -17 13 2
5 11 -6 25 -11 30 -12z m373 0 c-7 -10 -14 -17 -17 -15 -4 4 18 35 25 35 2 0
-1 -9 -8 -20z m87 9 c11 -17 2 -18 -19 -3 -17 12 -17 14 -4 14 9 0 20 -5 23
-11z m-1780 -9 c3 -5 1 -10 -4 -10 -6 0 -11 5 -11 10 0 6 2 10 4 10 3 0 8 -4
11 -10z m346 -7 c13 -15 12 -15 -8 -4 -24 12 -29 21 -14 21 5 0 15 -7 22 -17z
m484 7 c-3 -5 -12 -10 -18 -10 -7 0 -6 4 3 10 19 12 23 12 15 0z m-1031 -16
c3 -8 2 -12 -4 -9 -6 3 -10 10 -10 16 0 14 7 11 14 -7z m136 -4 c-6 -11 -13
-20 -16 -20 -2 0 0 9 6 20 6 11 13 20 16 20 2 0 0 -9 -6 -20z m233 5 c-3 -9
-8 -14 -10 -11 -3 3 -2 9 2 15 9 16 15 13 8 -4z m41 7 c3 -5 -1 -9 -9 -9 -8 0
-12 4 -9 9 3 4 7 8 9 8 2 0 6 -4 9 -8z m180 -32 c-6 -5 -24 21 -24 34 0 6 6 1
14 -10 8 -10 12 -21 10 -24z m292 15 c-1 -23 -8 -30 -30 -26 -5 1 -6 -9 -4
-23 3 -14 1 -23 -3 -20 -5 3 -9 14 -9 25 0 10 -4 19 -10 19 -5 0 -10 -4 -10
-10 0 -5 -7 -7 -17 -3 -13 5 -12 8 8 15 13 5 32 7 41 4 12 -3 18 2 18 13 0 15
8 31 16 31 1 0 1 -11 0 -25z m741 5 c-1 -10 -3 -17 -6 -15 -2 3 -9 1 -15 -4
-6 -4 -20 -10 -31 -13 -17 -4 -21 0 -22 21 0 14 1 18 4 9 5 -22 19 -23 27 -3
3 8 12 12 21 9 8 -3 15 -1 15 5 0 6 2 11 4 11 3 0 4 -9 3 -20z m130 -2 c-3 -8
-6 -5 -6 6 -1 11 2 17 5 13 3 -3 4 -12 1 -19z m178 12 c3 -6 -1 -7 -9 -4 -18
7 -21 14 -7 14 6 0 13 -4 16 -10z m140 1 c3 -5 1 -12 -5 -16 -5 -3 -10 1 -10
9 0 18 6 21 15 7z m-2181 -26 c-4 -21 -1 -25 21 -25 14 0 25 6 25 13 0 8 4 7
11 -3 9 -12 10 -11 6 8 -6 26 2 28 29 7 14 -11 15 -14 2 -9 -14 5 -16 0 -12
-25 3 -20 1 -31 -6 -31 -7 0 -10 7 -6 15 4 11 -2 15 -22 15 -21 0 -24 -2 -12
-10 12 -7 10 -9 -7 -7 -12 0 -20 4 -17 8 2 4 -6 9 -17 12 -12 3 -18 10 -14 16
3 6 1 11 -6 11 -10 0 17 28 28 30 1 0 0 -11 -3 -25z m170 16 c3 -5 -1 -14 -8
-20 -12 -10 -14 -9 -11 6 2 10 4 19 4 21 2 5 10 2 15 -7z m620 -7 c3 -8 2 -12
-4 -9 -6 3 -10 10 -10 16 0 14 7 11 14 -7z m131 6 c-3 -5 -12 -10 -18 -10 -7
0 -6 4 3 10 19 12 23 12 15 0z m373 -15 c-3 -3 -9 2 -12 12 -6 14 -5 15 5 6 7
-7 10 -15 7 -18z m82 15 c0 -5 -2 -10 -4 -10 -3 0 -8 5 -11 10 -3 6 -1 10 4
10 6 0 11 -4 11 -10z m46 -5 c-3 -8 2 -19 12 -24 16 -10 16 -10 0 -11 -9 0
-19 4 -22 9 -6 10 3 41 11 41 3 0 3 -7 -1 -15z m344 -5 c0 -11 -2 -20 -4 -20
-2 0 -6 9 -9 20 -3 11 -1 20 4 20 5 0 9 -9 9 -20z m385 10 c3 -5 1 -10 -4 -10
-6 0 -11 5 -11 10 0 6 2 10 4 10 3 0 8 -4 11 -10z m112 4 c-3 -3 -12 -4 -19
-1 -8 3 -5 6 6 6 11 1 17 -2 13 -5z m-2308 -31 c2 -1 -6 -1 -18 0 -11 1 -21 8
-21 15 0 12 3 12 18 1 9 -7 19 -14 21 -16z m1136 17 c3 -5 1 -10 -4 -10 -6 0
-11 5 -11 10 0 6 2 10 4 10 3 0 8 -4 11 -10z m379 -5 c5 0 10 -6 12 -13 1 -7
0 -8 -3 -2 -2 5 -8 8 -13 5 -4 -3 -14 3 -21 12 -12 15 -12 16 1 8 8 -6 19 -10
24 -10z m-1190 -3 c2 -4 -4 -8 -14 -8 -10 0 -16 4 -14 8 3 4 9 8 14 8 5 0 11
-4 14 -8z m393 -12 c-3 -10 0 -22 7 -25 6 -3 1 -3 -11 -1 -13 2 -23 0 -23 -5
0 -5 -5 -9 -11 -9 -8 0 -9 4 0 13 6 8 7 18 3 22 -4 5 1 5 11 2 11 -4 17 -1 17
8 0 8 3 15 6 15 4 0 4 -9 1 -20z m83 10 c0 -5 -5 -10 -11 -10 -5 0 -7 5 -4 10
3 6 8 10 11 10 2 0 4 -4 4 -10z m600 -15 c0 -15 -2 -17 -9 -6 -5 7 -15 17 -22
22 -10 6 -7 8 9 6 15 -1 22 -8 22 -22z m220 20 c0 -7 -30 -13 -34 -7 -3 4 4 9
15 9 10 1 19 0 19 -2z m230 -21 c0 -11 6 -14 23 -9 19 5 20 4 4 -5 -21 -13
-33 -7 -40 20 -3 11 -1 18 4 14 5 -3 9 -12 9 -20z m209 -10 c-5 -6 -6 -14 -2
-17 3 -4 1 -7 -5 -7 -6 0 -14 5 -17 10 -3 6 -2 10 3 10 6 0 8 10 4 22 -5 19
-4 20 10 7 10 -8 13 -18 7 -25z m47 24 c4 -7 3 -8 -4 -4 -7 4 -12 2 -12 -5 0
-7 -3 -10 -6 -6 -6 5 3 27 11 27 2 0 7 -5 11 -12z m50 5 c-13 -3 -15 -7 -7
-12 9 -6 7 -13 -6 -29 -17 -19 -19 -20 -32 -5 -13 15 -13 16 7 11 15 -4 22 -2
22 8 0 8 -6 14 -12 14 -9 0 -8 4 2 10 8 5 22 9 30 9 9 -1 8 -3 -4 -6z m-1896
-7 c0 -2 -7 -7 -16 -10 -8 -3 -12 -2 -9 4 6 10 25 14 25 6z m260 0 c0 -3 -4
-8 -10 -11 -5 -3 -10 -1 -10 4 0 6 5 11 10 11 6 0 10 -2 10 -4z m907 -23 c1
-24 1 -25 -7 -8 -11 26 -12 35 -2 35 4 0 8 -12 9 -27z m573 7 c-6 -11 -13 -20
-16 -20 -2 0 0 9 6 20 6 11 13 20 16 20 2 0 0 -9 -6 -20z m278 -11 c-3 -8 -7
-3 -11 10 -4 17 -3 21 5 13 5 -5 8 -16 6 -23z m42 25 c0 -8 -19 -13 -24 -6 -3
5 1 9 9 9 8 0 15 -2 15 -3z m-1957 -35 c-8 -8 -13 -7 -18 2 -6 8 -4 10 5 4 10
-6 12 -4 6 11 -6 15 -5 17 5 7 9 -10 10 -16 2 -24z m82 21 c-3 -5 2 -10 12
-11 14 0 14 -2 -4 -9 -13 -5 -23 -15 -23 -22 0 -9 -3 -9 -10 2 -7 11 -10 11
-10 2 0 -10 -3 -10 -14 0 -8 7 -12 17 -9 22 3 4 8 4 12 -1 9 -13 36 -10 37 5
2 19 4 22 10 22 3 0 2 -4 -1 -10z m129 -6 c3 -8 2 -12 -4 -9 -6 3 -10 10 -10
16 0 14 7 11 14 -7z m585 -1 c0 -11 -3 -13 -6 -6 -3 10 -11 9 -34 -2 -16 -9
-29 -12 -29 -7 0 7 42 28 63 31 4 1 7 -7 6 -16z m179 -8 c-3 -3 -9 2 -12 12
-6 14 -5 15 5 6 7 -7 10 -15 7 -18z m29 18 c-4 -3 1 -11 10 -18 13 -9 13 -14
3 -20 -9 -5 -11 -4 -6 3 4 7 1 12 -8 12 -9 0 -16 4 -16 8 0 10 11 22 18 22 3
0 2 -3 -1 -7z m-567 -31 c0 -15 2 -15 10 -2 7 12 9 10 7 -8 -1 -12 -6 -21 -13
-18 -17 7 -35 -9 -37 -32 0 -11 -4 -19 -8 -16 -4 2 -6 12 -4 22 2 9 4 20 4 25
1 4 8 7 16 7 8 0 15 7 15 15 0 8 -5 15 -11 15 -5 0 -7 5 -4 10 9 14 25 2 25
-18z m668 12 c12 7 8 -32 -4 -43 -4 -3 -4 2 -1 12 4 11 1 17 -8 17 -8 0 -15 8
-15 18 0 13 2 14 9 3 5 -7 14 -11 19 -7z m298 -4 c8 0 14 5 14 12 0 6 2 9 5 6
10 -10 -21 -58 -38 -58 -10 0 -16 -4 -13 -8 7 -11 -31 -8 -41 3 -5 4 -3 5 4 1
15 -8 54 28 49 46 -1 7 -1 10 1 6 3 -5 11 -8 19 -8z m570 5 c-1 -8 -5 -17 -8
-21 -5 -4 -4 16 1 34 3 9 9 -1 7 -13z m-2306 -21 c0 -2 -9 0 -20 6 -11 6 -20
13 -20 16 0 2 9 0 20 -6 11 -6 20 -13 20 -16z m265 16 c3 -6 -1 -7 -9 -4 -18
7 -21 14 -7 14 6 0 13 -4 16 -10z m605 0 c0 -5 -2 -10 -4 -10 -3 0 -8 5 -11
10 -3 6 -1 10 4 10 6 0 11 -4 11 -10z m820 -22 c0 -4 -8 -6 -19 -5 -15 1 -17
4 -8 19 8 13 13 14 19 5 4 -7 8 -15 8 -19z m585 22 c3 -5 1 -10 -4 -10 -6 0
-11 5 -11 10 0 6 2 10 4 10 3 0 8 -4 11 -10z m123 -7 c-1 -10 1 -25 6 -33 5
-8 6 -12 1 -8 -4 4 -15 3 -24 -2 -19 -9 -35 -2 -39 18 -2 10 2 10 17 2 25 -13
34 -13 26 0 -7 12 0 40 10 40 4 0 5 -8 3 -17z m-613 -2 c3 -5 2 -12 -3 -15 -5
-3 -9 1 -9 9 0 17 3 19 12 6z m642 -13 c2 -18 0 -20 -7 -8 -12 18 -13 30 -2
30 4 0 9 -10 9 -22z m28 12 c-3 -5 -1 -10 6 -10 7 0 10 -3 6 -6 -9 -9 -28 6
-22 17 4 5 8 9 11 9 3 0 2 -4 -1 -10z m-2272 -24 c-10 -14 -22 -21 -27 -16
-10 10 2 32 14 25 5 -3 11 -1 15 5 3 5 8 10 11 10 3 0 -3 -11 -13 -24z m288
10 c-10 -11 -8 -15 6 -19 10 -2 4 -4 -14 -4 l-32 0 22 18 c27 22 34 24 18 5z
m53 -15 c-2 -3 -12 3 -22 13 -16 17 -16 18 5 5 12 -7 20 -15 17 -18z m76 14
c0 -8 -2 -15 -4 -15 -2 0 -6 7 -10 15 -3 8 -1 15 4 15 6 0 10 -7 10 -15z m88
-5 c-7 -10 -14 -18 -15 -16 -6 6 9 36 18 36 5 0 4 -9 -3 -20z m902 16 c0 -2
-7 -7 -16 -10 -8 -3 -12 -2 -9 4 6 10 25 14 25 6z m511 -18 c9 -4 21 -2 26 3
5 5 9 1 9 -10 0 -11 -4 -17 -8 -15 -18 12 -28 -9 -11 -21 17 -13 17 -14 -3
-12 -22 1 -25 12 -10 35 6 10 3 13 -10 10 -11 -2 -18 -11 -16 -21 2 -11 -4
-17 -15 -17 -10 0 -14 3 -8 8 6 4 11 15 12 25 2 38 3 42 11 31 4 -6 14 -13 23
-16z m161 4 c-7 -2 -9 -9 -5 -15 3 -7 2 -8 -2 -4 -16 14 -14 36 3 29 10 -4 12
-7 4 -10z m-2167 -10 c19 -1 15 -18 -5 -18 -11 0 -20 4 -20 9 0 4 -4 6 -9 3
-5 -3 -11 1 -14 9 -5 11 -1 12 16 6 12 -5 26 -9 32 -9z m535 8 c0 -5 -2 -10
-4 -10 -3 0 -8 5 -11 10 -3 6 -1 10 4 10 6 0 11 -4 11 -10z m277 -12 c-3 -8
-6 -5 -6 6 -1 11 2 17 5 13 3 -3 4 -12 1 -19z m573 18 c0 -2 -7 -7 -16 -10 -8
-3 -12 -2 -9 4 6 10 25 14 25 6z m387 -2 c-3 -3 -12 -4 -19 -1 -8 3 -5 6 6 6
11 1 17 -2 13 -5z m-1897 -19 c0 -12 -19 -12 -23 0 -4 9 -1 12 9 8 7 -3 14 -7
14 -8z m1617 0 c0 -8 -4 -12 -9 -9 -5 3 -6 10 -3 15 9 13 12 11 12 -6z m463 6
c0 -6 -9 -9 -19 -8 -11 0 -17 5 -15 9 7 11 34 10 34 -1z m-2035 -20 c-3 -6
-14 -10 -23 -10 -15 1 -15 2 1 6 9 2 17 9 17 15 0 6 3 9 6 5 3 -3 3 -10 -1
-16z m332 -3 c-3 -8 -6 -5 -6 6 -1 11 2 17 5 13 3 -3 4 -12 1 -19z m70 1 c1
-12 -1 -19 -4 -16 -3 3 -16 2 -29 -3 -18 -7 -22 -6 -17 6 3 8 8 13 10 10 3 -3
12 1 20 9 18 19 18 19 20 -6z m1223 11 c-8 -5 -19 -10 -25 -10 -5 0 -3 5 5 10
8 5 20 10 25 10 6 0 3 -5 -5 -10z m263 -10 c-4 -16 -1 -18 17 -15 13 2 20 1
16 -2 -21 -22 -53 -5 -42 22 8 22 15 18 9 -5z m-1765 -21 c-7 -5 -9 -9 -4 -9
21 0 -31 -29 -54 -30 -23 -1 -23 -2 -5 -10 15 -7 16 -9 4 -9 -9 -1 -23 7 -30
16 -8 9 -9 14 -2 10 6 -4 18 0 26 8 12 11 17 12 21 2 4 -6 4 -1 2 13 -5 24 -4
24 9 6 15 -20 20 -12 15 23 -1 13 1 13 15 1 13 -10 13 -15 3 -21z m145 16 c-3
-9 -8 -14 -10 -11 -3 3 -2 9 2 15 9 16 15 13 8 -4z m512 -3 c-3 -3 -11 0 -18
7 -9 10 -8 11 6 5 10 -3 15 -9 12 -12z m984 2 c4 3 8 -1 8 -9 0 -8 -5 -13 -11
-12 -6 1 -10 -4 -8 -10 1 -7 -3 -13 -9 -13 -6 0 -8 7 -4 18 5 14 4 15 -6 5 -7
-7 -18 -13 -23 -13 -6 0 1 11 14 24 14 12 27 19 28 14 2 -4 7 -6 11 -4z m665
-17 c-6 -16 -44 -40 -51 -33 -3 3 -14 1 -24 -4 -10 -6 -20 -6 -23 -2 -3 5 1 9
9 10 8 1 22 3 31 4 10 1 14 8 11 20 -4 15 -2 17 7 9 16 -14 26 -4 18 17 -5 15
-3 15 11 4 8 -8 14 -19 11 -25z m-2224 9 c-7 -7 -13 -7 -20 0 -6 6 -3 10 10
10 13 0 16 -4 10 -10z m107 -6 c2 -20 -8 -26 -20 -13 -4 3 -2 12 4 20 15 17
14 17 16 -7z m113 -5 c-7 -8 -16 -15 -21 -15 -5 0 -1 8 9 18 20 22 31 19 12
-3z m111 8 c13 -17 13 -17 -6 -3 -11 8 -22 16 -24 17 -2 2 0 3 6 3 6 0 17 -8
24 -17z m149 -18 c-5 -6 -8 -15 -5 -18 3 -4 2 -5 -2 -2 -4 3 -9 18 -11 32 -3
23 -1 25 13 13 10 -9 12 -16 5 -25z m1167 18 c2 -6 -1 -14 -6 -18 -7 -4 -8 1
-4 12 6 15 4 16 -8 6 -13 -10 -16 -10 -16 1 0 16 29 15 34 -1z m123 2 c13 -15
6 -35 -13 -35 -7 0 -6 4 3 10 13 8 12 11 -5 24 -11 9 -15 16 -9 16 6 0 17 -7
24 -15z m50 5 c0 -5 -4 -10 -9 -10 -6 0 -13 5 -16 10 -3 6 1 10 9 10 9 0 16
-4 16 -10z m320 -10 c6 -11 8 -20 6 -20 -3 0 -10 9 -16 20 -6 11 -8 20 -6 20
3 0 10 -9 16 -20z m-2288 3 c-6 -2 -9 -10 -6 -15 4 -7 2 -8 -4 -4 -18 11 -14
26 6 25 10 0 12 -3 4 -6z m595 1 c-3 -3 -12 -4 -19 -1 -8 3 -5 6 6 6 11 1 17
-2 13 -5z m1513 -4 c-13 -8 -12 -11 5 -24 11 -9 15 -16 9 -16 -17 0 -37 27
-29 40 3 5 12 10 18 10 7 0 6 -4 -3 -10z m86 -14 c2 -14 -20 -16 -33 -2 -4 4
-1 6 7 4 9 -2 14 3 12 12 -2 8 0 11 4 7 4 -4 9 -14 10 -21z m-2262 0 c-3 -9
-12 -12 -22 -9 -15 6 -9 11 25 22 1 1 0 -5 -3 -13z m599 -1 c-3 -9 -8 -14 -10
-11 -3 3 -2 9 2 15 9 16 15 13 8 -4z m187 11 c0 -3 -4 -8 -10 -11 -5 -3 -10
-1 -10 4 0 6 5 11 10 11 6 0 10 -2 10 -4z m1511 -19 c-10 -9 -11 -8 -5 6 3 10
9 15 12 12 3 -3 0 -11 -7 -18z m-2051 9 c0 -2 -7 -7 -16 -10 -8 -3 -12 -2 -9
4 6 10 25 14 25 6z m220 0 c0 -2 -7 -7 -16 -10 -8 -3 -12 -2 -9 4 6 10 25 14
25 6z m164 -8 c-5 -7 -2 -9 9 -5 10 4 14 2 11 -7 -7 -18 -32 -16 -29 3 5 22 4
21 11 21 3 0 2 -5 -2 -12z m1451 0 c4 -3 -3 -11 -14 -18 -12 -6 -18 -16 -15
-22 5 -7 2 -8 -6 -3 -7 4 -16 2 -21 -6 -6 -10 -8 -8 -7 8 2 14 7 19 18 15 12
-4 13 -2 3 9 -7 7 -13 16 -13 19 0 8 47 7 55 -2z m60 -8 c3 -5 -1 -10 -10 -10
-9 0 -13 5 -10 10 3 6 8 10 10 10 2 0 7 -4 10 -10z m-1725 -15 c-9 -10 -9 -15
-1 -15 6 0 11 -4 11 -9 0 -5 -10 -7 -22 -3 -12 3 -19 1 -15 -5 3 -5 0 -10 -7
-10 -7 0 -13 6 -13 13 0 7 4 11 8 8 4 -2 10 5 14 16 3 11 13 20 22 20 13 0 13
-3 3 -15z m146 -11 c1 -9 0 -13 -4 -10 -3 4 -7 14 -8 22 -1 9 0 13 4 10 3 -4
7 -14 8 -22z m-415 -1 c13 -16 12 -17 -3 -4 -17 13 -22 21 -14 21 2 0 10 -8
17 -17z m323 -13 c8 -17 10 -28 5 -24 -6 4 -9 -3 -7 -16 2 -14 -3 -25 -12 -27
-11 -3 -11 -2 -3 4 14 10 5 27 -16 31 -9 2 -12 -4 -8 -18 3 -11 1 -20 -4 -20
-5 0 -9 8 -9 18 -1 16 -1 16 -11 0 -5 -10 -15 -18 -22 -18 -7 0 -6 4 3 10 8 5
11 10 5 10 -5 0 0 7 12 15 12 9 26 15 30 14 27 -5 32 2 23 26 -13 35 -5 31 14
-5z m1440 14 c3 -8 2 -12 -4 -9 -6 3 -10 10 -10 16 0 14 7 11 14 -7z m391 -2
c-3 -3 -11 0 -18 7 -9 10 -8 11 6 5 10 -3 15 -9 12 -12z m157 5 c-1 -4 -5 -14
-8 -22 -3 -8 -10 -12 -15 -9 -5 3 -9 1 -9 -4 0 -5 -6 -9 -13 -9 -8 0 -14 6
-14 13 0 7 4 11 9 8 4 -3 8 0 8 6 0 7 7 9 16 6 14 -5 15 -4 5 8 -10 12 -9 14
6 12 10 -2 17 -6 15 -9z m-2328 -32 c-4 -8 -14 -15 -23 -15 -14 1 -13 3 3 15
17 13 18 15 3 15 -9 0 -17 5 -17 10 0 7 6 7 20 0 11 -6 17 -16 14 -25z m76 20
c4 3 14 -3 21 -13 11 -14 11 -15 -1 -5 -8 8 -18 9 -25 3 -7 -6 -11 -2 -12 13
0 12 1 16 4 9 3 -6 8 -10 13 -7z m1570 -1 c0 -7 -8 -11 -19 -9 -15 3 -19 -1
-15 -13 4 -13 3 -13 -6 2 -9 14 -9 20 -1 26 19 11 41 8 41 -6z m35 6 c-3 -5
-12 -10 -18 -10 -7 0 -6 4 3 10 19 12 23 12 15 0z m325 0 c0 -5 -7 -10 -16
-10 -8 0 -12 5 -9 10 3 6 10 10 16 10 5 0 9 -4 9 -10z m-2160 -20 c-9 -6 -9
-9 -1 -13 8 -4 8 -5 0 -3 -7 1 -13 9 -15 18 -1 11 3 15 13 11 11 -4 12 -8 3
-13z m2295 10 c3 -5 1 -10 -4 -10 -6 0 -11 5 -11 10 0 6 2 10 4 10 3 0 8 -4
11 -10z m-2192 -13 c3 -8 1 -20 -5 -28 -8 -11 -9 -11 -5 2 3 9 0 22 -6 28 -8
8 -8 11 0 11 6 0 13 -6 16 -13z m2267 3 c0 -5 -2 -10 -4 -10 -3 0 -8 5 -11 10
-3 6 -1 10 4 10 6 0 11 -4 11 -10z m-2053 -6 c-3 -3 -12 -4 -19 -1 -8 3 -5 6
6 6 11 1 17 -2 13 -5z m1671 -19 c-3 -3 -9 2 -12 12 -6 14 -5 15 5 6 7 -7 10
-15 7 -18z m132 -12 c0 -1 -11 2 -25 7 -18 7 -25 6 -25 -2 0 -6 -3 -8 -6 -5
-4 4 -1 13 5 21 11 13 15 13 32 -2 10 -9 19 -18 19 -19z m81 14 c-10 -9 -11
-8 -5 6 3 10 9 15 12 12 3 -3 0 -11 -7 -18z m204 14 c3 -5 2 -12 -3 -15 -5 -3
-9 1 -9 9 0 17 3 19 12 6z m-2340 -19 c-3 -3 -11 0 -18 7 -9 10 -8 11 6 5 10
-3 15 -9 12 -12z m320 8 c3 -5 1 -10 -4 -10 -6 0 -11 5 -11 10 0 6 2 10 4 10
3 0 8 -4 11 -10z m1783 -7 c-2 -11 6 -19 22 -24 14 -4 18 -7 8 -8 -9 -1 -23
-3 -30 -6 -10 -4 -14 3 -14 25 0 16 4 30 8 30 5 0 8 -8 6 -17z m-1574 -4 c3
-3 -4 -5 -14 -6 -11 -1 -22 2 -24 6 -5 8 30 8 38 0z m1343 -11 c-3 -8 -6 -5
-6 6 -1 11 2 17 5 13 3 -3 4 -12 1 -19z m315 0 c-7 -7 -12 -8 -12 -2 0 14 12
26 19 19 2 -3 -1 -11 -7 -17z m88 7 c-7 -8 -17 -12 -23 -8 -6 4 -3 9 9 14 27
11 28 11 14 -6z m-2303 -1 c-3 -3 -12 -4 -19 -1 -8 3 -5 6 6 6 11 1 17 -2 13
-5z m223 -9 c0 -2 -9 -3 -19 -2 -11 0 -18 5 -15 9 4 6 34 0 34 -7z m1483 -5
c3 -11 0 -23 -6 -27 -7 -3 -9 -3 -5 2 4 4 3 16 -3 26 -5 11 -6 19 -1 19 6 0
12 -9 15 -20z m96 -3 c0 -20 -1 -21 -8 -3 -5 14 -10 16 -15 8 -4 -7 -11 -10
-16 -7 -5 3 -11 1 -15 -5 -8 -14 -25 -13 -25 2 0 6 3 9 6 5 4 -3 12 -1 19 6 6
7 22 13 33 14 17 1 22 -4 21 -20z m-1813 -14 c-6 -6 -36 9 -36 18 0 5 9 4 20
-3 10 -7 18 -14 16 -15z m184 -4 c6 -10 7 -19 3 -19 -4 0 -13 11 -20 25 -13
29 2 24 17 -6z m335 21 c-3 -5 3 -10 14 -10 12 0 21 -5 21 -11 0 -5 4 -8 9 -5
5 3 12 -1 15 -10 6 -15 4 -15 -20 0 -14 10 -32 15 -40 12 -8 -3 -14 -1 -14 5
0 6 -6 7 -12 4 -7 -4 -4 1 6 9 23 18 30 20 21 6z m1128 -5 c-3 -9 -8 -14 -10
-11 -3 3 -2 9 2 15 9 16 15 13 8 -4z m243 3 c4 -7 3 -8 -4 -4 -7 4 -12 2 -12
-5 0 -7 -3 -10 -6 -6 -6 5 3 27 11 27 2 0 7 -5 11 -12z m-1765 -7 c7 12 10 12
21 0 8 -8 8 -11 1 -7 -6 3 -13 1 -15 -4 -2 -6 -16 -13 -31 -15 -26 -5 -27 -5
-10 13 10 10 20 14 22 9 2 -5 7 -3 12 4z m139 5 c0 -2 -7 -9 -15 -16 -13 -11
-14 -10 -9 4 5 14 24 23 24 12z m60 0 c0 -2 -7 -7 -16 -10 -8 -3 -12 -2 -9 4
6 10 25 14 25 6z m1739 -32 c-5 -6 -6 -14 -2 -17 3 -4 2 -7 -4 -7 -5 0 -10 13
-11 30 0 24 2 27 13 17 8 -7 10 -16 4 -23z m254 15 c-8 -8 -13 -7 -18 2 -5 8
-4 10 3 5 7 -4 12 -2 12 5 0 7 3 9 7 6 4 -4 2 -12 -4 -18z m92 11 c9 14 45 13
45 -2 0 -6 -3 -8 -7 -5 -3 4 -13 1 -21 -5 -24 -21 -51 -20 -49 2 1 14 5 16 13
9 8 -7 14 -6 19 1z m-378 -6 c-3 -3 -12 -4 -19 -1 -8 3 -5 6 6 6 11 1 17 -2
13 -5z m-1664 -35 c-8 -8 -13 -7 -18 2 -6 8 -4 10 5 4 10 -6 12 -4 6 11 -6 15
-5 17 5 7 9 -10 10 -16 2 -24z m97 16 c4 3 10 -1 13 -9 4 -10 0 -12 -14 -9
-13 4 -22 -2 -28 -18 -6 -15 -10 -18 -10 -8 -1 9 2 19 7 23 4 4 8 12 8 17 3
20 6 23 11 11 2 -6 8 -10 13 -7z m1503 0 c-3 -9 -8 -14 -10 -11 -3 3 -2 9 2
15 9 16 15 13 8 -4z m187 -4 c-15 -29 -23 -31 -45 -9 -20 19 -20 19 7 9 20 -8
28 -7 32 5 3 8 8 14 11 14 3 0 1 -9 -5 -19z m127 -3 c-3 -8 -6 -5 -6 6 -1 11
2 17 5 13 3 -3 4 -12 1 -19z m-407 -2 c-7 -7 -13 -7 -20 0 -6 6 -3 10 10 10
13 0 16 -4 10 -10z m-1936 -12 c3 -8 2 -12 -4 -9 -6 3 -10 10 -10 16 0 14 7
11 14 -7z m191 -11 c-5 -10 -9 -21 -9 -25 -2 -13 -16 -21 -16 -9 0 7 -4 10 -9
7 -5 -3 -11 0 -14 8 -4 10 0 12 14 9 15 -4 22 0 26 16 3 12 8 20 11 17 2 -3 1
-13 -3 -23z m158 20 c-7 -2 -19 -2 -25 0 -7 3 -2 5 12 5 14 0 19 -2 13 -5z
m127 -28 c0 -5 -5 -3 -10 5 -5 8 -10 20 -10 25 0 6 5 3 10 -5 5 -8 10 -19 10
-25z m1606 15 c0 -12 -4 -16 -9 -11 -5 5 -6 14 -3 20 10 15 12 14 12 -9z
m-1984 -12 c-2 -10 -7 -18 -11 -18 -4 0 -7 8 -7 18 0 10 5 19 12 19 6 0 9 -9
6 -19z m128 -13 c0 -5 -5 -3 -10 5 -5 8 -10 20 -10 25 0 6 5 3 10 -5 5 -8 10
-19 10 -25z m530 25 c0 -5 -2 -10 -4 -10 -3 0 -8 5 -11 10 -3 6 -1 10 4 10 6
0 11 -4 11 -10z m1098 -14 c1 -17 -1 -18 -8 -6 -8 12 -10 12 -10 1 0 -8 -6
-11 -16 -7 -13 5 -14 4 -6 -7 9 -10 8 -14 -2 -14 -8 0 -12 7 -11 16 2 9 4 20
4 24 1 5 6 5 11 2 6 -3 10 -2 10 3 0 19 26 8 28 -12z m612 14 c0 -5 -2 -10 -4
-10 -3 0 -8 5 -11 10 -3 6 -1 10 4 10 6 0 11 -4 11 -10z m64 -35 c-2 -10 0
-22 5 -25 5 -3 -4 -18 -20 -33 -16 -16 -29 -23 -29 -17 0 6 -4 9 -8 6 -5 -3
-9 1 -9 9 0 8 5 13 11 12 6 -1 10 4 8 12 -3 12 0 12 12 1 9 -7 16 -11 17 -9 8
38 4 49 -18 45 -16 -3 -23 0 -23 10 0 8 5 12 10 9 6 -3 13 1 16 9 8 22 33 -3
28 -29z m-2476 14 c-10 -7 -11 -9 0 -9 7 0 10 -5 7 -11 -9 -13 -15 -7 -20 19
-3 15 0 19 12 15 12 -5 12 -7 1 -14z m541 -5 c-6 -8 -17 -14 -23 -14 -6 0 -4
5 4 10 8 5 11 10 7 10 -5 0 -5 5 -2 10 4 6 11 8 16 4 6 -4 6 -11 -2 -20z m196
16 c-3 -5 -1 -10 4 -10 6 0 11 -5 11 -11 0 -8 -5 -8 -15 1 -12 10 -15 10 -15
0 0 -8 -3 -10 -6 -7 -4 4 -1 13 6 22 14 17 25 20 15 5z m785 -5 c11 -13 10
-14 -4 -9 -9 4 -16 3 -15 -2 4 -24 -3 -34 -23 -34 -23 1 -23 1 2 16 23 14 23
15 3 11 -15 -3 -20 -1 -16 9 2 7 11 10 19 7 8 -3 14 0 14 6 0 15 5 14 20 -4z
m120 11 c0 -2 -9 -6 -20 -9 -11 -3 -18 -1 -14 4 5 9 34 13 34 5z m504 -20 c12
-4 22 -2 27 6 5 8 8 5 6 -9 0 -12 -5 -19 -9 -17 -19 12 -28 -9 -11 -23 10 -8
13 -12 6 -9 -6 3 -19 3 -29 -1 -16 -6 -16 -7 2 -15 13 -6 10 -6 -11 -2 -16 3
-27 2 -23 -2 4 -4 3 -13 -3 -21 -9 -10 -7 -13 7 -14 11 -1 22 -1 26 0 4 0 5
-6 1 -15 -3 -9 -8 -11 -12 -6 -3 6 -19 14 -34 17 -15 4 -27 11 -27 16 0 5 7 6
15 3 18 -7 20 7 3 25 -8 9 -9 12 -1 7 20 -11 44 4 35 22 -5 10 -7 23 -6 30 1
6 2 18 3 25 1 8 4 9 9 1 4 -6 16 -14 26 -18z m-1931 8 c9 -9 -4 -35 -14 -28
-5 3 -9 12 -9 20 0 14 12 19 23 8z m468 -12 c-7 -2 -18 1 -23 6 -8 8 -4 9 13
5 13 -4 18 -8 10 -11z m162 8 c6 0 1 -7 -11 -16 -12 -8 -28 -13 -35 -11 -7 3
-4 6 6 6 10 1 16 5 12 11 -8 13 -33 1 -38 -18 -3 -12 -5 -11 -6 5 -1 22 21 34
47 27 8 -2 19 -4 25 -4z m1101 -6 c5 -14 4 -15 -9 -4 -17 14 -19 20 -6 20 5 0
12 -7 15 -16z m359 10 c-7 -3 -9 -13 -6 -22 4 -14 3 -14 -5 -2 -12 16 -7 30
11 29 9 0 9 -2 0 -5z m104 -18 c0 -8 -6 -12 -12 -10 -6 3 -12 11 -12 18 0 8 6
12 12 10 6 -3 12 -11 12 -18z m-2050 8 c-3 -3 -12 -4 -19 -1 -8 3 -5 6 6 6 11
1 17 -2 13 -5z m1733 2 c0 -2 -7 -6 -15 -10 -8 -3 -15 -1 -15 4 0 6 7 10 15
10 8 0 15 -2 15 -4z m-1700 -21 c0 -8 -2 -15 -4 -15 -2 0 -6 7 -10 15 -3 8 -1
15 4 15 6 0 10 -7 10 -15z m93 8 c-7 -2 -19 -2 -25 0 -7 3 -2 5 12 5 14 0 19
-2 13 -5z m507 3 c0 -11 -19 -15 -25 -6 -3 5 1 10 9 10 9 0 16 -2 16 -4z m455
-5 c3 -5 2 -12 -3 -15 -5 -3 -9 1 -9 9 0 17 3 19 12 6z m235 -1 c-8 -5 -19
-10 -25 -10 -5 0 -3 5 5 10 8 5 20 10 25 10 6 0 3 -5 -5 -10z m235 0 c3 -6 -1
-7 -9 -4 -18 7 -21 14 -7 14 6 0 13 -4 16 -10z m-1860 -10 c-3 -5 -16 -10 -28
-9 -20 1 -20 2 3 9 14 4 26 8 28 9 2 1 0 -3 -3 -9z m128 -27 c-8 -21 -20 -14
-20 11 0 19 2 22 12 13 7 -7 10 -18 8 -24z m135 17 c-7 -10 -14 -17 -17 -15
-4 4 18 35 25 35 2 0 -1 -9 -8 -20z m118 -7 c-6 -15 -9 -15 -16 -3 -6 9 -5 17
3 22 16 10 21 2 13 -19z m979 -2 c-6 -5 -25 10 -25 20 0 5 6 4 14 -3 8 -7 12
-15 11 -17z m212 12 c0 -9 -4 -10 -14 -2 -7 6 -13 12 -13 14 0 1 6 2 13 2 8 0
14 -6 14 -14z m227 9 c3 -5 -1 -9 -9 -10 -8 -1 -22 -3 -31 -4 -10 -1 -14 -8
-11 -20 3 -10 1 -18 -4 -18 -5 0 -9 5 -9 11 0 5 -4 8 -10 4 -5 -3 -6 -13 -3
-22 6 -15 5 -16 -9 -3 -26 24 -6 46 50 56 8 1 16 5 20 8 7 8 10 8 16 -2z
m-1764 -6 c0 -2 -7 -7 -16 -10 -8 -3 -12 -2 -9 4 6 10 25 14 25 6z m175 -6
c-3 -5 -12 -10 -18 -10 -7 0 -6 4 3 10 19 12 23 12 15 0z m101 -5 c-1 -8 -7
-20 -13 -26 -13 -13 -13 7 0 29 11 16 16 15 13 -3z m104 11 c0 -3 -4 -8 -10
-11 -5 -3 -10 -1 -10 4 0 6 5 11 10 11 6 0 10 -2 10 -4z m120 -6 c8 -5 12 -11
10 -14 -3 -2 -14 2 -24 10 -22 15 -10 19 14 4z m150 -15 c0 -8 -4 -16 -9 -19
-5 -4 -7 3 -4 13 4 16 1 19 -19 15 -20 -4 -21 -3 -3 5 23 10 35 5 35 -14z
m427 8 c0 -9 -4 -10 -13 -2 -7 6 -18 8 -23 5 -5 -4 -13 -2 -16 4 -4 6 5 10 23
8 16 -1 29 -8 29 -15z m209 8 c-4 -5 0 -12 6 -14 8 -3 6 -6 -4 -6 -18 -1 -24
10 -11 22 9 10 15 8 9 -2z m311 -6 c0 -8 -4 -12 -9 -9 -5 3 -6 10 -3 15 9 13
12 11 12 -6z m216 -16 c-9 -9 -12 -7 -10 9 1 14 5 18 11 12 7 -7 6 -14 -1 -21z
m127 16 c13 -15 6 -35 -13 -35 -7 0 -6 4 3 10 13 8 12 11 -5 24 -11 9 -15 16
-9 16 6 0 17 -7 24 -15z m50 5 c0 -5 -4 -10 -9 -10 -6 0 -13 5 -16 10 -3 6 1
10 9 10 9 0 16 -4 16 -10z m-1930 -15 c0 -8 0 -18 0 -22 0 -5 -9 -9 -20 -9
-27 -2 -39 -14 -14 -14 15 0 16 -2 5 -9 -7 -5 -10 -14 -7 -20 4 -6 5 -11 2
-11 -2 0 -11 13 -19 28 -15 30 -16 29 29 34 10 1 14 8 11 20 -3 10 -1 18 4 18
5 0 9 -7 9 -15z m706 -17 c5 -7 3 -8 -7 -2 -8 5 -18 9 -23 9 -5 0 -11 6 -14
13 -3 11 0 12 16 3 12 -6 24 -16 28 -23z m96 -10 c-6 -6 -7 0 -4 19 5 21 7 23
10 9 2 -10 0 -22 -6 -28z m38 17 c0 -8 -3 -16 -7 -18 -5 -3 -8 5 -8 18 0 13 3
21 8 18 4 -2 7 -10 7 -18z m136 4 c9 -15 -23 -10 -35 5 -10 12 -8 13 9 9 11
-3 23 -9 26 -14z m89 2 c-5 -16 -2 -19 17 -15 21 4 21 4 3 -5 -24 -11 -38 0
-29 22 9 23 17 21 9 -2z m751 7 c3 -4 -1 -5 -10 -4 -8 1 -18 5 -22 8 -3 4 1 5
10 4 8 -1 18 -5 22 -8z m254 2 c-13 -8 -12 -11 5 -24 11 -9 15 -16 9 -16 -17
0 -37 27 -29 40 3 5 12 10 18 10 7 0 6 -4 -3 -10z m-2177 -17 c-4 -10 -2 -14
5 -9 6 3 13 2 16 -3 7 -11 -13 -9 -31 2 -7 5 -17 6 -22 2 -5 -3 -13 0 -17 6
-4 7 -3 10 2 7 5 -3 18 -2 29 3 11 4 21 8 22 8 1 1 -1 -6 -4 -16z m1417 -18
c0 -5 -5 -3 -10 5 -5 8 -10 20 -10 25 0 6 5 3 10 -5 5 -8 10 -19 10 -25z m886
15 c0 -12 -4 -16 -9 -11 -5 5 -6 14 -3 20 10 15 12 14 12 -9z m-1769 4 c-3 -3
-12 -4 -19 -1 -8 3 -5 6 6 6 11 1 17 -2 13 -5z m97 -6 c-5 -8 -2 -9 10 -5 14
6 15 3 6 -13 -6 -11 -13 -20 -16 -20 -3 0 -3 4 1 9 3 5 1 12 -5 16 -10 6 -5
25 6 25 3 0 2 -5 -2 -12z m144 -19 c-15 -10 -44 -12 -35 -2 4 3 2 12 -4 19 -9
11 -6 12 21 3 23 -9 28 -14 18 -20z m542 16 c11 -13 10 -14 -4 -9 -9 3 -16 10
-16 15 0 13 6 11 20 -6z m240 10 c0 -2 -6 -8 -13 -14 -10 -8 -14 -7 -14 2 0 8
6 14 14 14 7 0 13 -1 13 -2z m706 -7 c3 -4 -1 -5 -10 -4 -8 1 -18 5 -22 8 -3
4 1 5 10 4 8 -1 18 -5 22 -8z m-2371 -8 c3 -5 1 -10 -4 -10 -6 0 -11 5 -11 10
0 6 2 10 4 10 3 0 8 -4 11 -10z m293 -11 c8 -12 9 -18 4 -15 -6 3 -12 3 -15
-1 -2 -5 -3 -3 -1 3 1 6 -3 17 -9 23 -6 6 -7 11 -1 11 5 0 15 -9 22 -21z m35
6 c-3 -9 -8 -14 -10 -11 -3 3 -2 9 2 15 9 16 15 13 8 -4z m282 5 c3 -6 -1 -7
-9 -4 -18 7 -21 14 -7 14 6 0 13 -4 16 -10z m334 -16 c-10 -12 -6 -18 12 -16
3 1 6 -6 6 -13 0 -11 -4 -12 -13 -4 -9 7 -14 6 -17 -3 -2 -7 -3 -5 -2 4 2 10
-1 21 -6 24 -8 5 -13 -10 -10 -29 1 -4 -8 -3 -19 3 -11 6 -20 13 -20 16 0 3 5
2 11 -2 6 -3 15 0 20 7 4 8 14 14 21 14 7 1 12 7 10 14 -1 7 2 10 8 6 8 -5 7
-11 -1 -21z m542 8 c-11 -4 -11 -6 0 -13 10 -6 10 -9 2 -9 -7 0 -10 -7 -7 -15
4 -8 1 -15 -4 -15 -16 0 -24 18 -12 25 8 5 7 12 -2 23 -8 10 -9 13 -1 9 6 -4
15 -2 18 4 4 5 10 7 14 3 3 -4 0 -9 -8 -12z m103 9 c3 -5 0 -11 -8 -14 -8 -3
-13 -14 -11 -24 1 -10 -1 -22 -5 -28 -5 -5 -10 -14 -12 -20 -6 -17 -26 -13
-31 6 -3 10 -1 19 4 19 5 0 9 -5 9 -12 0 -9 3 -9 12 0 20 20 18 42 -3 42 -13
0 -18 -4 -13 -12 4 -7 3 -8 -4 -4 -20 12 -13 26 13 26 14 0 24 3 24 8 -4 22
14 31 25 13z m161 -5 c-11 -8 -24 -12 -29 -8 -5 3 -1 9 10 13 31 12 39 10 19
-5z m500 4 c3 -5 -1 -10 -9 -10 -9 0 -16 5 -16 10 0 6 4 10 9 10 6 0 13 -4 16
-10z m309 1 c3 -5 -1 -11 -9 -14 -9 -4 -12 -1 -8 9 6 16 10 17 17 5z m-2038
-16 c-17 -13 -18 -15 -3 -15 9 0 17 -5 17 -10 0 -7 -6 -7 -20 0 -22 12 -16 40
9 40 14 -1 13 -3 -3 -15z m105 -8 c-10 -9 -11 -8 -5 6 3 10 9 15 12 12 3 -3 0
-11 -7 -18z m45 1 c1 -12 -3 -15 -14 -10 -12 4 -13 7 -3 10 11 4 11 6 0 14
-12 8 -12 9 0 6 8 -2 15 -11 17 -20z m564 1 c0 -11 -5 -17 -10 -14 -6 3 -13
-1 -17 -10 -3 -10 -1 -20 5 -24 7 -4 7 -11 -1 -22 -17 -22 -44 -30 -44 -13 0
7 4 11 8 9 8 -5 19 19 19 41 0 9 -5 12 -12 8 -7 -4 -8 -3 -4 5 4 6 11 9 16 6
5 -3 14 4 20 15 14 26 20 25 20 -1z m447 1 c-14 -11 -29 -20 -34 -20 -10 1 39
39 51 40 5 0 -3 -9 -17 -20z m-1572 -8 c-3 -3 -11 0 -18 7 -9 10 -8 11 6 5 10
-3 15 -9 12 -12z m152 2 c0 -7 -4 -11 -8 -8 -4 2 -10 -5 -14 -16 -3 -11 -13
-20 -21 -20 -12 0 -12 3 -2 20 7 11 16 20 21 20 4 0 6 4 3 8 -3 5 1 9 8 9 7 0
13 -6 13 -13z m338 6 c3 -5 1 -10 -4 -10 -6 0 -11 5 -11 10 0 6 2 10 4 10 3 0
8 -4 11 -10z m1030 0 c3 -5 1 -10 -4 -10 -6 0 -11 5 -11 10 0 6 2 10 4 10 3 0
8 -4 11 -10z m390 -18 c3 -16 0 -19 -13 -15 -9 4 -11 8 -5 10 7 3 9 12 6 21
-3 9 -3 14 1 11 4 -4 8 -16 11 -27z m-958 -4 c-3 -8 -6 -5 -6 6 -1 11 2 17 5
13 3 -3 4 -12 1 -19z m860 6 c0 -10 -5 -10 -21 -2 -29 15 -30 16 -3 16 13 0
24 -6 24 -14z m328 6 c-3 -5 -13 -10 -21 -10 -8 0 -14 5 -14 10 0 6 9 10 21
10 11 0 17 -4 14 -10z m-2169 -26 c1 -9 0 -13 -4 -10 -3 4 -7 14 -8 22 -1 9 0
13 4 10 3 -4 7 -14 8 -22z m413 12 c9 -11 9 -16 -1 -22 -7 -4 -10 -4 -6 1 4 4
3 14 -3 22 -6 7 -9 13 -6 13 2 0 10 -6 16 -14z m365 3 c-2 -4 -14 -5 -26 -1
-14 3 -19 1 -14 -6 5 -8 2 -10 -8 -6 -25 9 -8 24 24 22 16 -1 27 -5 24 -9z
m436 5 c0 -8 -19 -13 -24 -6 -3 5 1 9 9 9 8 0 15 -2 15 -3z m561 -9 c5 4 6 -1
2 -10 -5 -13 -7 -14 -14 -3 -5 7 -8 18 -8 23 0 6 3 4 6 -3 2 -6 9 -10 14 -7z
m707 -19 c-2 -1 -12 -8 -22 -16 -13 -10 -17 -10 -12 -2 5 8 1 12 -11 13 -10 0
-13 3 -5 6 6 2 12 12 12 20 0 14 3 14 20 -2 11 -10 19 -19 18 -19z m-1977 7
c12 -14 12 -16 0 -8 -11 6 -13 3 -7 -19 5 -21 3 -26 -11 -26 -10 0 -14 4 -8 8
15 11 12 46 -5 54 -13 6 -13 7 1 7 9 1 23 -7 30 -16z m789 12 c0 -2 -6 -8 -13
-14 -10 -8 -14 -7 -14 2 0 8 6 14 14 14 7 0 13 -1 13 -2z m227 -17 c2 -18 0
-20 -7 -8 -12 18 -13 30 -2 30 4 0 9 -10 9 -22z m221 4 c2 -7 -1 -12 -8 -12
-6 0 -9 4 -6 9 4 5 1 12 -4 14 -6 3 -5 4 2 3 6 -1 14 -8 16 -14z m251 -16 c-3
-3 -11 5 -18 17 -13 21 -12 21 5 5 10 -10 16 -20 13 -22z m-2063 8 c-1 -8 -6
-17 -11 -21 -4 -4 -5 -2 -1 5 4 6 2 12 -3 12 -6 0 -11 4 -11 8 0 5 6 9 14 9 7
0 13 -6 12 -13z m377 9 c-7 -2 -19 -2 -25 0 -7 3 -2 5 12 5 14 0 19 -2 13 -5z
m867 -2 c0 -6 -4 -12 -8 -15 -5 -3 -9 1 -9 9 0 8 4 15 9 15 4 0 8 -4 8 -9z
m65 -1 c3 -5 1 -10 -4 -10 -6 0 -11 5 -11 10 0 6 2 10 4 10 3 0 8 -4 11 -10z
m366 -7 c13 -16 12 -17 -3 -4 -10 7 -18 15 -18 17 0 8 8 3 21 -13z m504 -6 c6
-5 1 -7 -10 -5 -11 2 -26 -3 -33 -12 -11 -13 -12 -13 -6 0 13 27 27 41 33 33
3 -4 11 -11 16 -16z m300 2 c-4 -5 -12 -9 -18 -8 -9 0 -8 2 1 6 6 2 9 10 6 15
-4 7 -2 8 5 4 6 -4 9 -12 6 -17z m-1635 1 c-17 -11 -6 -25 25 -33 19 -4 19 -5
-1 -6 -12 0 -27 6 -34 14 -13 15 -6 35 13 35 7 0 6 -4 -3 -10z m50 -8 c0 -4
-9 -8 -19 -8 -15 0 -17 3 -9 13 10 12 28 9 28 -5z m1211 0 c-7 -2 -18 1 -23 6
-8 8 -4 9 13 5 13 -4 18 -8 10 -11z m-2080 -15 c-10 -9 -11 -8 -5 6 3 10 9 15
12 12 3 -3 0 -11 -7 -18z m99 13 c-8 -5 -19 -10 -25 -10 -5 0 -3 5 5 10 8 5
20 10 25 10 6 0 3 -5 -5 -10z m530 -5 c0 -1 -9 -5 -19 -8 -13 -3 -18 -1 -14 9
4 10 33 10 33 -1z m639 6 c9 -6 10 -11 2 -15 -6 -4 -11 -3 -11 3 0 5 -8 12
-17 14 -13 3 -14 5 -3 6 8 0 21 -3 29 -8z m448 3 c-3 -3 -12 -4 -19 -1 -8 3
-5 6 6 6 11 1 17 -2 13 -5z m553 -14 c-6 -11 -15 -20 -20 -20 -6 0 -2 9 7 20
10 11 19 20 21 20 1 0 -2 -9 -8 -20z m120 5 c-7 -9 -15 -13 -19 -10 -3 3 1 10
9 15 21 14 24 12 10 -5z m-2217 -13 c-10 -10 -20 -17 -22 -16 -6 5 20 34 30
34 5 0 1 -8 -8 -18z m794 -4 c-3 -8 -6 -5 -6 6 -1 11 2 17 5 13 3 -3 4 -12 1
-19z m43 13 c0 -5 -7 -11 -14 -14 -10 -4 -13 -1 -9 9 6 15 23 19 23 5z m316
-17 c1 -9 0 -13 -4 -10 -3 4 -7 14 -8 22 -1 9 0 13 4 10 3 -4 7 -14 8 -22z
m467 6 c7 -26 1 -26 -13 0 -6 11 -7 20 -2 20 6 0 12 -9 15 -20z m201 4 c3 -8
2 -12 -4 -9 -6 3 -10 10 -10 16 0 14 7 11 14 -7z m-1737 -17 c2 -19 2 -19 -12
-1 -9 12 -14 14 -15 6 0 -7 -4 -10 -10 -7 -5 3 -10 2 -10 -4 0 -5 -9 -9 -19
-8 -11 0 -17 6 -14 14 3 7 8 11 12 9 3 -2 15 0 26 4 31 11 41 8 42 -13z m65
-13 c-9 -16 -10 -14 -9 8 1 15 6 23 11 18 4 -4 4 -16 -2 -26z m879 13 c-10 -9
-11 -8 -5 6 3 10 9 15 12 12 3 -3 0 -11 -7 -18z m44 13 c3 -5 1 -10 -4 -10 -6
0 -11 5 -11 10 0 6 2 10 4 10 3 0 8 -4 11 -10z m478 -5 c-3 -9 -8 -14 -10 -11
-3 3 -2 9 2 15 9 16 15 13 8 -4z m241 7 c3 -5 -1 -9 -9 -9 -8 0 -12 4 -9 9 3
4 7 8 9 8 2 0 6 -4 9 -8z m207 -15 c-10 -9 -11 -8 -5 6 3 10 9 15 12 12 3 -3
0 -11 -7 -18z m-1797 5 c3 -5 -1 -9 -9 -9 -8 0 -15 4 -15 9 0 4 4 8 9 8 6 0
12 -4 15 -8z m93 -6 c4 -4 1 -6 -7 -4 -10 2 -15 -4 -14 -20 1 -12 -1 -20 -4
-17 -4 3 -7 16 -8 29 -1 23 16 29 33 12z m163 -8 c0 -5 5 -6 10 -3 6 3 10 1
10 -4 0 -14 -6 -14 -30 2 -17 10 -22 9 -30 -3 -8 -13 -10 -12 -10 3 0 11 -4
15 -12 11 -6 -4 -8 -3 -5 3 8 12 67 4 67 -9z m472 -1 c7 -12 -1 -37 -12 -37
-5 0 -6 10 -4 23 2 12 2 16 -2 10 -3 -7 -11 -13 -16 -13 -6 0 -8 3 -5 7 4 3 2
12 -4 19 -8 10 -5 11 13 7 13 -4 26 -11 30 -16z m378 13 c0 -3 -12 -10 -26
-17 -21 -10 -24 -10 -14 2 8 10 8 14 -2 18 -7 3 -1 5 15 4 15 -1 27 -4 27 -7z
m650 0 c-8 -5 -22 -9 -30 -9 -10 0 -8 3 5 9 27 12 43 12 25 0z m267 -4 c-3 -8
-1 -17 6 -20 7 -2 5 -5 -4 -5 -9 -1 -20 6 -23 15 -3 8 -2 12 4 9 6 -3 10 -1
10 4 0 6 3 11 6 11 3 0 4 -6 1 -14z m-1620 -21 c-4 -8 -12 -15 -19 -15 -9 0
-8 3 2 10 8 5 11 10 7 10 -5 0 -5 5 -2 11 10 15 19 3 12 -16z m1742 9 c5 3 7
-3 4 -14 -3 -12 -6 -19 -7 -18 -1 2 -10 14 -21 28 -15 18 -15 21 -3 11 9 -7
21 -10 27 -7z m-2511 -25 c-3 -8 -7 -3 -11 10 -4 17 -3 21 5 13 5 -5 8 -16 6
-23z m722 10 c0 -6 -4 -7 -10 -4 -5 3 -10 11 -10 16 0 6 5 7 10 4 6 -3 10 -11
10 -16z m260 6 c11 -13 10 -14 -4 -9 -9 3 -16 10 -16 15 0 13 6 11 20 -6z
m310 5 c0 -5 -7 -7 -15 -4 -8 4 -15 8 -15 10 0 2 7 4 15 4 8 0 15 -4 15 -10z
m754 -6 c3 -8 2 -12 -4 -9 -6 3 -10 10 -10 16 0 14 7 11 14 -7z m97 2 c5 3 9
0 9 -5 0 -6 -9 -11 -20 -11 -14 0 -18 5 -13 17 4 11 8 13 11 5 2 -7 8 -10 13
-6z m317 -11 c-3 -3 -9 2 -12 12 -6 14 -5 15 5 6 7 -7 10 -15 7 -18z m-2398 0
c0 -8 -4 -15 -10 -15 -5 0 -7 7 -4 15 4 8 8 15 10 15 2 0 4 -7 4 -15z m290 11
c0 -3 -4 -8 -10 -11 -5 -3 -10 -1 -10 4 0 6 5 11 10 11 6 0 10 -2 10 -4z m835
-15 c-8 -14 -25 -14 -25 0 0 5 5 7 10 4 6 -3 10 -1 10 6 0 7 3 10 6 6 3 -3 3
-10 -1 -16z m522 13 c-3 -3 -12 -4 -19 -1 -8 3 -5 6 6 6 11 1 17 -2 13 -5z
m490 -16 c-3 -8 -6 -5 -6 6 -1 11 2 17 5 13 3 -3 4 -12 1 -19z m-2102 2 c-3
-5 -11 -10 -16 -10 -6 0 -7 5 -4 10 3 6 11 10 16 10 6 0 7 -4 4 -10z m2215 0
c0 -5 -5 -10 -11 -10 -5 0 -7 5 -4 10 3 6 8 10 11 10 2 0 4 -4 4 -10z"/>
<path d="M2051 2421 c-7 -5 -9 -11 -4 -14 5 -3 15 -2 22 2 7 5 9 11 4 14 -5 3
-15 2 -22 -2z"/>
<path d="M2390 1030 c0 -5 7 -7 15 -4 8 4 15 8 15 10 0 2 -7 4 -15 4 -8 0 -15
-4 -15 -10z"/>
<path d="M2108 759 c-23 -13 -23 -29 -1 -29 9 0 13 3 10 7 -4 3 -2 12 4 20 13
15 10 16 -13 2z"/>
<path d="M2105 690 c-3 -6 1 -7 9 -4 18 7 21 14 7 14 -6 0 -13 -4 -16 -10z"/>
<path d="M2203 234 c0 -16 23 -19 31 -5 3 5 -2 11 -12 13 -11 3 -19 0 -19 -8z"/>
<path d="M0 1471 c0 -6 4 -12 8 -15 5 -3 9 1 9 9 0 8 -4 15 -9 15 -4 0 -8 -4
-8 -9z"/>
<path d="M2586 1027 c3 -10 9 -15 12 -12 3 3 0 11 -7 18 -10 9 -11 8 -5 -6z"/>
</g>
</svg>
