<svg width="159" height="147" viewBox="0 0 159 147" fill="none" xmlns="http://www.w3.org/2000/svg">
<g clip-path="url(#clip0_591_10901)">
<mask id="mask0_591_10901" style="mask-type:luminance" maskUnits="userSpaceOnUse" x="0" y="0" width="159" height="147">
<path d="M158.33 0H0V146.27H158.33V0Z" fill="white"/>
</mask>
<g mask="url(#mask0_591_10901)">
<path d="M2.4502 24.03H27.7902V146.27H2.4502V24.03Z" fill="#CD1421"/>
<path d="M1.57042 7.29996C1.50042 6.31996 3.32042 3.61996 4.99042 3.61996C6.66042 3.61996 7.62042 5.25996 8.79042 6.67996C10.0404 8.19996 10.9104 8.76996 11.5604 8.38996C12.0904 8.07996 12.0804 7.21996 11.8104 6.56996C11.4804 5.76996 10.8204 5.12996 11.2004 4.07996C11.5604 3.10996 12.7504 2.46996 14.1504 2.25996C15.4804 2.05996 17.8804 2.18996 19.3404 1.77996C21.8104 1.07996 22.4404 -0.310038 23.5904 0.419962C24.2204 0.819962 24.3204 1.60996 24.0004 2.62996C23.7404 3.44996 23.3304 4.45996 22.4304 5.24996C21.7904 5.80996 20.8504 6.23996 19.8604 6.68996C18.6304 7.24996 17.6804 7.70996 17.9004 9.07996C17.9804 9.54996 18.7004 9.88996 19.3804 9.81996C20.3004 9.71996 21.3904 9.38996 22.3704 9.33996C23.9204 9.25996 26.1704 10.04 27.2504 10.56C28.3204 11.09 29.1804 11.86 30.8304 13.55C31.3904 14.13 33.1304 16.28 33.3404 16.49C34.0804 17.23 34.8304 17.9 35.2804 18.28C35.5004 18.46 35.4604 18.51 35.4604 18.51C35.4604 18.51 35.4204 18.51 35.3004 18.47C35.1004 18.39 34.7104 18.17 34.0304 17.72C33.3104 17.24 30.1404 14.53 29.7504 14.22C29.1504 13.74 27.8204 12.67 27.0604 13.34C26.7004 13.66 26.7904 14.39 26.9004 14.72C27.0104 15.07 27.5104 15.8 27.8004 16.43C28.1304 17.15 28.1004 18.59 28.2804 19.25C28.4604 19.9 29.2204 21.36 28.6204 22.2C28.2204 22.76 27.3204 23.05 26.5304 23.09C25.9104 23.12 25.2604 22.98 25.0804 22.54C24.5804 21.35 26.0404 21.09 25.5504 20.03C25.3804 19.67 24.8204 19.74 24.5404 19.84C24.0604 20.02 23.6404 20.4 23.2404 20.73C23.0304 20.9 22.0204 21.69 21.1104 22.38C20.3404 22.97 19.2804 23.01 18.9204 22.53C18.0804 21.4 20.2904 20.72 20.8004 20.33C22.1504 19.29 23.2604 17.83 22.1904 16.45C21.3904 15.41 20.0004 15.6 18.2104 16.04C16.2304 16.52 13.9404 17.14 12.6104 17.48C11.1104 17.87 9.32042 18.13 8.39042 18.53C7.60042 18.87 5.60042 21 5.44042 21.16C5.28042 21.33 4.26042 22.33 3.90042 22.56C3.29042 22.95 1.62042 23.48 1.24042 22.63C0.860417 21.76 2.23042 21.3 2.80042 20.85C3.33042 20.43 4.71042 19.16 4.72042 17.95C4.72042 16.92 3.90042 16.24 3.50042 14.24C3.19042 12.67 3.50042 11.82 3.28042 10.6C3.03042 9.19996 1.68042 8.79996 1.57042 7.30996V7.29996Z" fill="#CD1421"/>
</g>
<path d="M35.7402 18.67C35.7402 18.67 36.3602 18.55 37.0702 18.75C37.7402 18.94 38.3302 19.2 38.2302 19.61C38.1402 19.99 37.3602 19.85 36.9902 19.7C36.0502 19.32 35.7402 18.67 35.7402 18.67Z" fill="#CD1421"/>
<path d="M36.6904 24.03H158.33V146.27H36.6904V24.03Z" fill="#CD1421"/>
<path d="M23.2299 129.16H22.0699V130.78H15.6699V132.29H23.2399V129.17L23.2299 129.16ZM22.8899 124.25H19.2299C17.5399 124.25 16.9699 125.12 16.9699 126.27C16.9699 127.19 17.2299 127.81 17.4299 128.16L18.3999 127.85C18.2299 127.52 18.0799 127.06 18.0799 126.55C18.0799 126.04 18.3499 125.67 18.9399 125.67H19.1499C19.3699 127.31 19.8599 128.47 21.4299 128.47C22.6499 128.47 23.3599 127.73 23.3599 126.26C23.3599 125.3 23.1899 124.69 22.8999 124.24L22.8899 124.25ZM22.2399 125.67C22.2899 125.78 22.3399 125.99 22.3399 126.19C22.3399 126.77 21.9899 127.08 21.3599 127.08C20.4699 127.08 20.1499 126.61 20.0299 125.67H22.2399Z" fill="white"/>
<path d="M21.0702 115.32C19.8502 115.32 19.2902 116.14 19.1102 116.73H19.0902C18.9102 116.21 18.4302 115.52 17.3702 115.52C16.1202 115.52 15.2802 116.44 15.2802 118.06C15.2802 118.95 15.4602 119.64 15.7402 120.07H22.9002C23.2002 119.6 23.3602 118.92 23.3602 118C23.3602 116.6 22.7602 115.32 21.0802 115.32H21.0702ZM17.4902 117.03C18.4302 117.03 18.7302 117.44 18.7302 118.34V118.57H16.4302C16.3702 118.42 16.3502 118.22 16.3502 118.01C16.3502 117.37 16.7002 117.03 17.4902 117.03ZM20.9802 116.88C21.8102 116.88 22.2702 117.26 22.2602 118.02C22.2602 118.25 22.2302 118.42 22.1702 118.57H19.6302V118.34C19.6302 117.27 20.0502 116.88 20.9902 116.88H20.9802ZM15.2902 112.4C14.8502 112.4 14.4902 112.77 14.4902 113.21C14.4902 113.65 14.8402 114 15.2902 114C15.7402 114 16.0902 113.65 16.0902 113.21C16.0902 112.77 15.7302 112.4 15.2902 112.4ZM23.2402 112.46H17.1002V113.94H23.2402V112.46ZM20.4702 106.53C18.3002 106.42 16.9802 107.17 16.9802 108.72C16.9802 110.18 18.3002 111.02 20.1502 111.02C22.1602 111.02 23.3502 110.15 23.3502 108.54C23.3502 107.72 23.1702 107.12 22.8902 106.73L21.8502 107.06C22.0002 107.3 22.1702 107.72 22.1702 108.35C22.1702 109.08 21.7302 109.47 20.8402 109.56L20.4602 106.54L20.4702 106.53ZM19.6802 107.98L19.8902 109.64C18.8102 109.65 18.0502 109.3 18.0502 108.75C18.0502 108.2 18.6402 107.98 19.6802 107.98ZM23.2402 100.57H18.9002C17.6002 100.57 16.9902 101.27 16.9902 102.77C16.9902 103.7 17.1702 104.4 17.4502 104.89H23.2502V103.42H18.1902C18.1102 103.26 18.0802 103.11 18.0802 102.8C18.0802 102.28 18.3802 102.06 18.9102 102.06H23.2502V100.57H23.2402ZM23.2402 94.4601H18.9002C17.6002 94.4601 16.9902 95.1501 16.9902 96.6601C16.9902 97.6001 17.1702 98.2901 17.4502 98.7801H23.2502V97.3101H18.1902C18.1102 97.1501 18.0802 97.0001 18.0802 96.6901C18.0802 96.1701 18.3802 95.9501 18.9102 95.9501H23.2502V94.4601H23.2402ZM22.9002 88.9101H19.2402C17.5502 88.9101 16.9802 89.7801 16.9802 90.9301C16.9802 91.8501 17.2402 92.4701 17.4402 92.8201L18.4102 92.5101C18.2402 92.1801 18.0902 91.7201 18.0902 91.2101C18.0902 90.7001 18.3602 90.3301 18.9502 90.3301H19.1602C19.3802 91.9701 19.8702 93.1301 21.4402 93.1301C22.6602 93.1301 23.3702 92.3901 23.3702 90.9201C23.3702 89.9601 23.2002 89.3501 22.9102 88.9001L22.9002 88.9101ZM22.2502 90.3301C22.3002 90.4401 22.3502 90.6501 22.3502 90.8501C22.3502 91.4301 22.0002 91.7401 21.3702 91.7401C20.4802 91.7401 20.1602 91.2701 20.0402 90.3301H22.2502ZM23.2402 85.6801H14.6002V87.1201H23.2302V85.6801H23.2402ZM20.4702 79.7901C18.3002 79.6801 16.9802 80.4301 16.9802 81.9801C16.9802 83.4401 18.3002 84.2801 20.1502 84.2801C22.1602 84.2801 23.3502 83.4101 23.3502 81.8001C23.3502 80.9801 23.1702 80.3801 22.8902 79.9901L21.8502 80.3201C22.0002 80.5601 22.1702 80.9801 22.1702 81.6101C22.1702 82.3401 21.7302 82.7301 20.8402 82.8201L20.4602 79.8001L20.4702 79.7901ZM19.6802 81.2401L19.8902 82.9001C18.8102 82.9101 18.0502 82.5601 18.0502 82.0101C18.0502 81.4601 18.6402 81.2301 19.6802 81.2301V81.2401Z" fill="white"/>
<path d="M22.89 71.1901H14.29V72.6701H17.14C17.08 72.8201 17.03 73.0201 17.03 73.3901C17.03 74.6901 18.24 75.6001 20.21 75.6001C22.18 75.6001 23.36 74.7001 23.36 73.1301C23.36 72.2201 23.19 71.6501 22.9 71.1901H22.89ZM22.16 72.6701C22.23 72.7801 22.23 72.9401 22.23 73.0801C22.23 73.8301 21.43 74.1301 20.12 74.1301C18.97 74.1301 18.02 73.8901 18.02 73.0301C18.02 72.8901 18.04 72.7701 18.07 72.6601H22.16V72.6701ZM15.29 68.0701C14.85 68.0701 14.49 68.4301 14.49 68.8801C14.49 69.3301 14.84 69.6701 15.29 69.6701C15.74 69.6701 16.09 69.3201 16.09 68.8801C16.09 68.4401 15.73 68.0701 15.29 68.0701ZM23.24 68.1301H17.1V69.6101H23.24V68.1301Z" fill="white"/>
<path d="M15.3905 58.75V60.2L20.1205 61.11C20.5805 61.2 21.1005 61.26 21.1005 61.26V61.28C21.1005 61.28 20.5805 61.34 20.1205 61.42L15.3905 62.3V63.9L23.2305 62.02V60.64L15.3905 58.76V58.75ZM20.4605 53.78C18.2905 53.67 16.9705 54.42 16.9705 55.97C16.9705 57.43 18.2905 58.27 20.1405 58.27C22.1505 58.27 23.3405 57.4 23.3405 55.79C23.3405 54.97 23.1605 54.37 22.8805 53.98L21.8405 54.31C21.9905 54.55 22.1605 54.97 22.1605 55.6C22.1605 56.33 21.7205 56.72 20.8305 56.81L20.4505 53.79L20.4605 53.78ZM19.6705 55.23L19.8805 56.89C18.8005 56.9 18.0405 56.55 18.0405 56C18.0405 55.45 18.6305 55.22 19.6705 55.22V55.23ZM23.2305 47.82H18.8905C17.5905 47.82 16.9805 48.51 16.9805 50.02C16.9805 50.96 17.1605 51.65 17.4405 52.14H23.2405V50.67H18.1805C18.1005 50.51 18.0705 50.36 18.0705 50.05C18.0705 49.53 18.3705 49.31 18.9005 49.31H23.2405V47.82H23.2305ZM20.4605 41.7C18.2905 41.59 16.9705 42.34 16.9705 43.89C16.9705 45.35 18.2905 46.19 20.1405 46.19C22.1505 46.19 23.3405 45.32 23.3405 43.71C23.3405 42.89 23.1605 42.29 22.8805 41.9L21.8405 42.23C21.9905 42.47 22.1605 42.89 22.1605 43.52C22.1605 44.25 21.7205 44.64 20.8305 44.73L20.4505 41.71L20.4605 41.7ZM19.6705 43.15L19.8805 44.81C18.8005 44.82 18.0405 44.47 18.0405 43.92C18.0405 43.37 18.6305 43.14 19.6705 43.14V43.15ZM23.2305 37.11H22.1105V38.83L17.0805 37.12V40.62H18.1805V38.97L23.2205 40.76V37.11H23.2305ZM15.2805 34.06C14.8405 34.06 14.4805 34.42 14.4805 34.87C14.4805 35.32 14.8305 35.66 15.2805 35.66C15.7305 35.66 16.0805 35.31 16.0805 34.87C16.0805 34.43 15.7205 34.06 15.2805 34.06ZM23.2305 34.12H17.0905V35.6H23.2305V34.12ZM22.8905 28.53H19.2305C17.5405 28.53 16.9705 29.4 16.9705 30.55C16.9705 31.47 17.2305 32.09 17.4305 32.44L18.4005 32.13C18.2305 31.8 18.0805 31.34 18.0805 30.83C18.0805 30.32 18.3505 29.95 18.9405 29.95H19.1505C19.3705 31.59 19.8605 32.75 21.4305 32.75C22.6505 32.75 23.3605 32.01 23.3605 30.54C23.3605 29.58 23.1905 28.97 22.9005 28.52L22.8905 28.53ZM22.2405 29.95C22.2905 30.06 22.3405 30.27 22.3405 30.47C22.3405 31.05 21.9905 31.36 21.3605 31.36C20.4705 31.36 20.1505 30.89 20.0305 29.94H22.2405V29.95Z" fill="white"/>
<path d="M51.3402 111.46V100.88H49.5502V104.38C49.3102 104.3 48.9902 104.23 48.7402 104.23C46.7502 104.23 45.9102 106.02 45.9102 108.09C45.9102 110.4 46.8202 112.01 49.0602 112.01C49.8702 112.01 50.6602 111.83 51.3402 111.46ZM49.5502 110.59C49.3802 110.67 49.2002 110.72 49.0202 110.72C48.0102 110.72 47.7002 109.57 47.7002 108.05C47.7002 106.53 48.0202 105.43 49.0302 105.43C49.2002 105.43 49.3802 105.46 49.5502 105.51V110.59ZM55.4302 101.29C55.3602 100.98 55.1202 100.76 54.6602 100.76C54.2002 100.76 53.8602 100.97 53.6502 101.29L52.6802 104.91H53.7602L55.4302 101.29ZM61.8802 111.86L59.2902 102.23H57.3602L54.7602 111.86H56.5102L57.0102 109.68H59.4702L59.9602 111.86H61.8802ZM59.1902 108.45H57.3002L58.0302 105.3C58.1302 104.88 58.2002 104.4 58.2402 104.03H58.2702C58.3102 104.41 58.4002 104.88 58.4902 105.3L59.1902 108.45ZM66.1202 104.22C65.8802 104.19 65.6002 104.18 65.3502 104.18C64.4302 104.18 63.5202 104.33 62.7202 104.73V111.87H64.5102V105.61C64.7102 105.53 64.9402 105.48 65.1502 105.48C65.3602 105.48 65.6002 105.49 65.7802 105.56L66.1202 104.22ZM70.4502 111.78V110.51C70.3402 110.57 70.2002 110.59 70.0602 110.59C69.6402 110.59 69.4402 110.3 69.4402 109.85V105.66H70.4502V104.32H69.4402V102.14L67.6502 102.69V104.33H66.9402V105.67H67.6502V109.86C67.6502 111.12 68.2702 111.99 69.5502 111.99C69.8702 111.99 70.1902 111.93 70.4502 111.79V111.78ZM76.8902 108.36C76.9002 108.21 76.9002 108.05 76.9002 107.9C76.9002 105.72 76.0602 104.18 74.1702 104.18C72.2802 104.18 71.3202 105.91 71.3202 108.07C71.3202 110.42 72.3402 112 74.4102 112C75.2202 112 75.9902 111.83 76.6402 111.45L76.2502 110.23C75.8002 110.47 75.2302 110.61 74.6802 110.61C73.7602 110.61 73.2202 110.01 73.1102 108.93L76.8902 108.36ZM75.1702 107.48L73.0302 107.82V107.75C73.0302 106.53 73.3802 105.41 74.1502 105.41C74.9202 105.41 75.1702 106.31 75.1702 107.4V107.48Z" fill="white"/>
<path d="M48.12 97.1599V87.5299H46.25V97.1599H48.12ZM55.06 97.1599V91.8299C55.06 90.2899 54.16 89.4799 52.26 89.4799C51.36 89.4799 50.5 89.6599 49.74 90.0299V97.1699H51.53V90.9099C51.77 90.8099 52.01 90.7699 52.26 90.7699C52.95 90.7699 53.27 91.1199 53.27 91.7899V97.1699H55.06V97.1599ZM59.69 97.0799V95.8099C59.58 95.8699 59.44 95.8899 59.3 95.8899C58.88 95.8899 58.68 95.5999 58.68 95.1499V90.9599H59.69V89.6199H58.68V87.4399L56.89 87.9899V89.6299H56.18V90.9699H56.89V95.1599C56.89 96.4199 57.51 97.2899 58.79 97.2899C59.11 97.2899 59.43 97.2299 59.69 97.0899V97.0799ZM66.13 93.6599C66.14 93.5099 66.14 93.3499 66.14 93.1999C66.14 91.0199 65.3 89.4799 63.41 89.4799C61.52 89.4799 60.56 91.2099 60.56 93.3699C60.56 95.7199 61.58 97.2999 63.65 97.2999C64.46 97.2999 65.23 97.1299 65.88 96.7499L65.49 95.5299C65.04 95.7699 64.47 95.9099 63.92 95.9099C63 95.9099 62.46 95.3099 62.35 94.2299L66.13 93.6599ZM64.41 92.7799L62.27 93.1199V93.0499C62.27 91.8299 62.62 90.7099 63.39 90.7099C64.16 90.7099 64.41 91.6099 64.41 92.6999V92.7799ZM70.84 89.5199C70.6 89.4899 70.32 89.4799 70.07 89.4799C69.15 89.4799 68.24 89.6299 67.44 90.0299V97.1699H69.23V90.9099C69.43 90.8299 69.66 90.7799 69.87 90.7799C70.08 90.7799 70.32 90.7899 70.5 90.8599L70.84 89.5199ZM77.07 97.1599V91.8299C77.07 90.2899 76.17 89.4799 74.27 89.4799C73.37 89.4799 72.51 89.6599 71.75 90.0299V97.1699H73.54V90.9099C73.78 90.8099 74.02 90.7699 74.27 90.7699C74.96 90.7699 75.28 91.1199 75.28 91.7899V97.1699H77.07V97.1599ZM83.51 96.7499V92.0999C83.51 90.3499 82.68 89.4699 80.93 89.4699C80.13 89.4699 79.33 89.6799 78.68 90.0199L79.07 91.1699C79.53 90.9299 80.13 90.7799 80.69 90.7799C81.43 90.7799 81.77 91.1599 81.77 91.8199V92.1599C79.5 92.4699 78.3 93.2099 78.3 94.9499C78.3 96.5199 79.32 97.3099 81.06 97.3099C82.08 97.3099 82.92 97.1099 83.51 96.7599V96.7499ZM81.78 95.9699C81.6 96.0499 81.33 96.1099 81.11 96.1099C80.38 96.1099 80 95.6199 80 94.8599C80 93.7999 80.57 93.3499 81.78 93.1799V95.9699ZM89 97.1599V95.8199H86.82L88.98 89.6199H84.68V90.9599H86.77L84.52 97.1599H89.01H89ZM92.05 87.3999C92.05 86.8699 91.6 86.4299 91.07 86.4299C90.54 86.4299 90.1 86.8599 90.1 87.3999C90.1 87.9399 90.53 88.3799 91.07 88.3799C91.61 88.3799 92.05 87.9299 92.05 87.3999ZM91.98 97.1599V89.6199H90.18V97.1599H91.98ZM98.91 93.3799C98.91 91.1399 98.01 89.4699 96.1 89.4699C94.19 89.4699 93.29 91.1299 93.29 93.3799C93.29 95.6299 94.19 97.2999 96.1 97.2999C98.01 97.2999 98.91 95.6399 98.91 93.3799ZM97.09 93.3499C97.09 94.7499 96.89 95.9299 96.1 95.9299C95.31 95.9299 95.11 94.7499 95.11 93.3499C95.11 91.9499 95.31 90.7599 96.1 90.7599C96.89 90.7599 97.09 91.9499 97.09 93.3499ZM105.52 97.1599V91.8299C105.52 90.2899 104.62 89.4799 102.72 89.4799C101.82 89.4799 100.96 89.6599 100.2 90.0299V97.1699H101.99V90.9099C102.23 90.8099 102.47 90.7699 102.72 90.7699C103.41 90.7699 103.73 91.1199 103.73 91.7899V97.1699H105.52V97.1599ZM111.96 96.7499V92.0999C111.96 90.3499 111.14 89.4699 109.39 89.4699C108.59 89.4699 107.79 89.6799 107.14 90.0199L107.53 91.1699C107.99 90.9299 108.59 90.7799 109.15 90.7799C109.89 90.7799 110.23 91.1599 110.23 91.8199V92.1599C107.96 92.4699 106.76 93.2099 106.76 94.9499C106.76 96.5199 107.78 97.3099 109.52 97.3099C110.54 97.3099 111.38 97.1099 111.97 96.7599L111.96 96.7499ZM110.23 95.9699C110.05 96.0499 109.78 96.1099 109.56 96.1099C108.83 96.1099 108.45 95.6199 108.45 94.8599C108.45 93.7999 109.02 93.3499 110.23 93.1799V95.9699ZM115.28 97.1599V86.1699H113.49V97.1599H115.28ZM122.17 93.6599C122.18 93.5099 122.18 93.3499 122.18 93.1999C122.18 91.0199 121.34 89.4799 119.45 89.4799C117.56 89.4799 116.6 91.2099 116.6 93.3699C116.6 95.7199 117.62 97.2999 119.69 97.2999C120.5 97.2999 121.27 97.1299 121.92 96.7499L121.53 95.5299C121.08 95.7699 120.51 95.9099 119.96 95.9099C119.04 95.9099 118.5 95.3099 118.39 94.2299L122.17 93.6599ZM120.45 92.7799L118.31 93.1199V93.0499C118.31 91.8299 118.66 90.7099 119.43 90.7099C120.2 90.7099 120.45 91.6099 120.45 92.6999V92.7799Z" fill="white"/>
<path d="M51.4397 79.54C51.4397 77.9 50.5497 76.59 48.8197 76.59C48.5097 76.59 48.2297 76.65 48.0197 76.73C48.5097 75.41 49.5997 74.46 50.8697 74.01L50.3897 72.71C47.5597 73.62 45.9697 75.92 45.9697 78.92C45.9697 81.26 47.0597 82.6 48.7297 82.6C50.5597 82.6 51.4297 81.12 51.4297 79.53L51.4397 79.54ZM49.7497 79.54C49.7497 80.49 49.4397 81.28 48.7397 81.28C48.0397 81.28 47.6497 80.43 47.6497 78.97C47.6497 78.56 47.6797 78.2 47.7297 77.85C47.9297 77.77 48.1597 77.72 48.4297 77.72C49.3497 77.72 49.7497 78.53 49.7497 79.54ZM58.0397 77.65C58.0397 74.77 57.2697 72.69 55.3097 72.69C53.3497 72.69 52.5897 74.76 52.5897 77.65C52.5897 80.54 53.3497 82.61 55.3097 82.61C57.2697 82.61 58.0397 80.54 58.0397 77.65ZM56.3197 77.61C56.3197 79.74 56.1197 81.26 55.3097 81.26C54.4997 81.26 54.3197 79.73 54.3197 77.61C54.3197 75.49 54.4997 73.97 55.3097 73.97C56.1197 73.97 56.3197 75.48 56.3197 77.61ZM61.5097 81.45C61.5097 80.82 61.0197 80.32 60.3897 80.32C59.7597 80.32 59.2697 80.82 59.2697 81.45C59.2697 82.08 59.7697 82.58 60.3897 82.58C61.0097 82.58 61.5097 82.08 61.5097 81.45ZM70.3697 82.47V81.04H68.0897V78.25H70.0897V76.87H68.0897V74.26H70.3697V72.83H66.2097V82.46H70.3697V82.47ZM75.7497 80.34C75.7497 78.04 73.1897 78.21 73.1897 76.88C73.1897 76.43 73.5097 76.08 74.0397 76.08C74.4697 76.08 74.8897 76.23 75.1997 76.44L75.6197 75.32C75.1197 74.97 74.5097 74.77 73.7697 74.77C72.3797 74.77 71.4197 75.61 71.4197 76.94C71.4197 79.22 73.9397 79.03 73.9397 80.37C73.9397 80.85 73.6197 81.21 73.0597 81.21C72.6397 81.21 72.0897 81.07 71.7497 80.83L71.2997 82.05C71.8497 82.41 72.5197 82.6 73.2597 82.6C74.7897 82.6 75.7497 81.65 75.7497 80.33V80.34ZM82.3997 78.7C82.3997 76.39 81.4797 74.78 79.2397 74.78C78.4297 74.78 77.6597 74.96 76.9697 75.33V85.48H78.7497V82.41C78.9897 82.49 79.3197 82.56 79.5797 82.56C81.5697 82.56 82.4097 80.77 82.4097 78.7H82.3997ZM80.6097 78.69C80.6097 80.2 80.2697 81.31 79.2597 81.31C79.0897 81.31 78.9097 81.28 78.7397 81.23V76.13C78.9097 76.05 79.0997 76.02 79.2897 76.02C80.2997 76.02 80.6097 77.17 80.6097 78.69ZM89.0897 78.69C89.0897 76.45 88.1897 74.78 86.2797 74.78C84.3697 74.78 83.4697 76.44 83.4697 78.69C83.4697 80.94 84.3697 82.61 86.2797 82.61C88.1897 82.61 89.0897 80.95 89.0897 78.69ZM87.2697 78.66C87.2697 80.06 87.0697 81.24 86.2797 81.24C85.4897 81.24 85.2897 80.06 85.2897 78.66C85.2897 77.26 85.4897 76.07 86.2797 76.07C87.0697 76.07 87.2697 77.26 87.2697 78.66ZM94.4497 80.34C94.4497 78.04 91.8897 78.21 91.8897 76.88C91.8897 76.43 92.2097 76.08 92.7397 76.08C93.1697 76.08 93.5897 76.23 93.8997 76.44L94.3197 75.32C93.8197 74.97 93.2097 74.77 92.4697 74.77C91.0797 74.77 90.1197 75.61 90.1197 76.94C90.1197 79.22 92.6397 79.03 92.6397 80.37C92.6397 80.85 92.3197 81.21 91.7597 81.21C91.3397 81.21 90.7897 81.07 90.4497 80.83L89.9997 82.05C90.5497 82.41 91.2197 82.6 91.9597 82.6C93.4897 82.6 94.4497 81.65 94.4497 80.33V80.34ZM97.5597 72.71C97.5597 72.18 97.1097 71.74 96.5797 71.74C96.0497 71.74 95.6097 72.17 95.6097 72.71C95.6097 73.25 96.0397 73.69 96.5797 73.69C97.1197 73.69 97.5597 73.24 97.5597 72.71ZM97.4897 82.47V74.93H95.6897V82.47H97.4897ZM103.09 82.47V81.13H100.91L103.07 74.93H98.7697V76.27H100.86L98.6097 82.47H103.1H103.09ZM106.14 72.71C106.14 72.18 105.69 71.74 105.16 71.74C104.63 71.74 104.2 72.17 104.2 72.71C104.2 73.25 104.63 73.69 105.16 73.69C105.69 73.69 106.14 73.24 106.14 72.71ZM106.07 82.47V74.93H104.27V82.47H106.07ZM113 78.69C113 76.45 112.1 74.78 110.19 74.78C108.28 74.78 107.38 76.44 107.38 78.69C107.38 80.94 108.28 82.61 110.19 82.61C112.1 82.61 113 80.95 113 78.69ZM111.18 78.66C111.18 80.06 110.98 81.24 110.18 81.24C109.38 81.24 109.19 80.06 109.19 78.66C109.19 77.26 109.39 76.07 110.18 76.07C110.97 76.07 111.18 77.26 111.18 78.66ZM119.61 82.47V77.14C119.61 75.6 118.71 74.79 116.81 74.79C115.91 74.79 115.05 74.97 114.29 75.34V82.48H116.08V76.22C116.32 76.12 116.56 76.08 116.81 76.08C117.5 76.08 117.82 76.43 117.82 77.1V82.48H119.61V82.47ZM126.47 78.97C126.48 78.82 126.48 78.66 126.48 78.51C126.48 76.33 125.64 74.79 123.75 74.79C121.86 74.79 120.9 76.52 120.9 78.68C120.9 81.03 121.92 82.61 123.99 82.61C124.8 82.61 125.57 82.44 126.22 82.06L125.83 80.84C125.38 81.08 124.81 81.22 124.26 81.22C123.34 81.22 122.8 80.62 122.69 79.54L126.47 78.97ZM124.75 78.09L122.61 78.43V78.36C122.61 77.14 122.96 76.02 123.73 76.02C124.5 76.02 124.75 76.92 124.75 78.01V78.09Z" fill="white"/>
<path d="M51.16 127.14C51.16 125.71 50.39 124.73 48.66 124.73C47.96 124.73 47.26 124.87 46.75 125.15V132.41H48.21V129.49C48.35 129.51 48.58 129.53 48.78 129.53C50.33 129.53 51.16 128.52 51.16 127.13V127.14ZM49.71 127.14C49.71 128.03 49.32 128.53 48.58 128.53C48.46 128.53 48.32 128.52 48.22 128.5V125.82C48.35 125.76 48.52 125.73 48.68 125.73C49.42 125.73 49.72 126.27 49.72 127.15L49.71 127.14ZM55.76 132.09V128.44C55.76 127.07 55.11 126.37 53.74 126.37C53.11 126.37 52.49 126.53 51.97 126.8L52.28 127.7C52.64 127.51 53.12 127.39 53.56 127.39C54.14 127.39 54.41 127.69 54.41 128.2V128.46C52.63 128.7 51.68 129.29 51.68 130.65C51.68 131.88 52.48 132.51 53.85 132.51C54.65 132.51 55.31 132.36 55.77 132.08L55.76 132.09ZM54.4 131.48C54.26 131.55 54.05 131.59 53.87 131.59C53.3 131.59 53 131.2 53 130.61C53 129.77 53.45 129.42 54.4 129.29V131.48ZM59.61 126.41C59.42 126.39 59.2 126.38 59.01 126.38C58.28 126.38 57.57 126.5 56.94 126.81V132.42H58.35V127.5C58.5 127.43 58.69 127.4 58.86 127.4C59.03 127.4 59.21 127.41 59.36 127.47L59.62 126.42L59.61 126.41ZM63.01 132.35V131.35C62.92 131.39 62.81 131.42 62.7 131.42C62.37 131.42 62.22 131.19 62.22 130.84V127.55H63.01V126.5H62.22V124.78L60.81 125.21V126.5H60.25V127.55H60.81V130.84C60.81 131.83 61.29 132.51 62.3 132.51C62.55 132.51 62.81 132.47 63 132.36L63.01 132.35ZM68.07 129.67C68.08 129.55 68.08 129.43 68.08 129.31C68.08 127.59 67.42 126.39 65.94 126.39C64.46 126.39 63.7 127.75 63.7 129.45C63.7 131.3 64.5 132.54 66.13 132.54C66.77 132.54 67.37 132.41 67.88 132.11L67.57 131.15C67.22 131.34 66.77 131.45 66.34 131.45C65.61 131.45 65.2 130.98 65.11 130.13L68.08 129.68L68.07 129.67ZM66.72 128.98L65.04 129.24V129.18C65.04 128.22 65.32 127.34 65.92 127.34C66.52 127.34 66.72 128.04 66.72 128.9V128.97V128.98ZM72.32 132.1L72.01 131.17C71.85 131.31 71.62 131.4 71.36 131.4C70.61 131.4 70.36 130.47 70.36 129.43C70.36 128.39 70.61 127.45 71.36 127.45C71.62 127.45 71.84 127.53 72.01 127.67L72.32 126.81C72.02 126.52 71.63 126.38 71.09 126.38C69.65 126.38 68.92 127.8 68.92 129.46C68.92 131.12 69.65 132.53 71.09 132.53C71.63 132.53 72.03 132.39 72.32 132.1ZM74.67 124.75C74.67 124.33 74.32 123.99 73.9 123.99C73.48 123.99 73.14 124.33 73.14 124.75C73.14 125.17 73.48 125.52 73.9 125.52C74.32 125.52 74.67 125.17 74.67 124.75ZM74.62 132.42V126.49H73.2V132.42H74.62ZM80.09 129.46C80.09 127.64 79.36 126.38 77.6 126.38C76.96 126.38 76.36 126.52 75.82 126.81V134.79H77.22V132.38C77.41 132.45 77.67 132.5 77.87 132.5C79.43 132.5 80.09 131.09 80.09 129.46ZM78.68 129.45C78.68 130.64 78.42 131.51 77.62 131.51C77.49 131.51 77.34 131.49 77.21 131.44V127.43C77.34 127.36 77.5 127.34 77.64 127.34C78.43 127.34 78.68 128.24 78.68 129.44V129.45ZM84.97 132.1V128.45C84.97 127.08 84.32 126.38 82.95 126.38C82.32 126.38 81.7 126.54 81.18 126.81L81.49 127.71C81.85 127.52 82.33 127.4 82.77 127.4C83.35 127.4 83.62 127.7 83.62 128.21V128.47C81.84 128.71 80.89 129.3 80.89 130.66C80.89 131.89 81.69 132.52 83.06 132.52C83.86 132.52 84.52 132.37 84.98 132.09L84.97 132.1ZM83.61 131.49C83.47 131.56 83.26 131.6 83.08 131.6C82.51 131.6 82.21 131.21 82.21 130.62C82.21 129.78 82.66 129.43 83.61 129.3V131.49ZM89.29 132.42V131.36H87.57L89.26 126.49H85.88V127.54H87.52L85.75 132.41H89.28L89.29 132.42ZM91.69 124.75C91.69 124.33 91.34 123.99 90.92 123.99C90.5 123.99 90.16 124.33 90.16 124.75C90.16 125.17 90.5 125.52 90.92 125.52C91.34 125.52 91.69 125.17 91.69 124.75ZM91.64 132.42V126.49H90.22V132.42H91.64ZM97.09 129.45C97.09 127.69 96.39 126.38 94.88 126.38C93.37 126.38 92.67 127.69 92.67 129.45C92.67 131.21 93.37 132.53 94.88 132.53C96.39 132.53 97.09 131.22 97.09 129.45ZM95.66 129.43C95.66 130.53 95.51 131.45 94.88 131.45C94.25 131.45 94.1 130.53 94.1 129.43C94.1 128.33 94.25 127.39 94.88 127.39C95.51 127.39 95.66 128.32 95.66 129.43ZM102.28 132.42V128.23C102.28 127.02 101.58 126.38 100.08 126.38C99.38 126.38 98.69 126.52 98.1 126.81V132.42H99.51V127.5C99.7 127.42 99.88 127.39 100.08 127.39C100.62 127.39 100.87 127.66 100.87 128.19V132.41H102.28V132.42ZM104.95 124.75C104.95 124.33 104.6 123.99 104.18 123.99C103.76 123.99 103.42 124.33 103.42 124.75C103.42 125.17 103.76 125.52 104.18 125.52C104.6 125.52 104.95 125.17 104.95 124.75ZM104.9 132.42V126.49H103.48V132.42H104.9ZM113.53 132.42V124.85H112.29V128.8C112.29 129.13 112.32 129.49 112.33 129.6H112.31C112.24 129.45 112.15 129.19 111.96 128.82L110.02 124.85H108.69V132.42H109.94V127.98C109.94 127.59 109.91 127.31 109.9 127.18H109.92C109.96 127.32 110.06 127.64 110.23 127.98L112.39 132.42H113.53ZM118.66 132.1V128.45C118.66 127.08 118.01 126.38 116.64 126.38C116.01 126.38 115.39 126.54 114.87 126.81L115.18 127.71C115.54 127.52 116.01 127.4 116.46 127.4C117.04 127.4 117.31 127.7 117.31 128.21V128.47C115.53 128.71 114.58 129.3 114.58 130.66C114.58 131.89 115.38 132.52 116.75 132.52C117.55 132.52 118.21 132.37 118.67 132.09L118.66 132.1ZM117.3 131.49C117.16 131.56 116.95 131.6 116.77 131.6C116.2 131.6 115.9 131.21 115.9 130.62C115.9 129.78 116.35 129.43 117.3 129.3V131.49ZM122.98 132.42V131.36H121.26L122.95 126.49H119.57V127.54H121.21L119.44 132.41H122.97L122.98 132.42ZM125.38 124.75C125.38 124.33 125.03 123.99 124.61 123.99C124.19 123.99 123.85 124.33 123.85 124.75C123.85 125.17 124.19 125.52 124.61 125.52C125.03 125.52 125.38 125.17 125.38 124.75ZM125.32 132.42V126.49H123.9V132.42H125.32ZM130.76 129.45C130.76 127.69 130.06 126.38 128.55 126.38C127.04 126.38 126.34 127.69 126.34 129.45C126.34 131.21 127.04 132.53 128.55 132.53C130.06 132.53 130.76 131.22 130.76 129.45ZM129.33 129.43C129.33 130.53 129.18 131.45 128.55 131.45C127.92 131.45 127.77 130.53 127.77 129.43C127.77 128.33 127.92 127.39 128.55 127.39C129.18 127.39 129.33 128.32 129.33 129.43ZM135.95 132.42V128.23C135.95 127.02 135.25 126.38 133.75 126.38C133.05 126.38 132.36 126.52 131.77 126.81V132.42H133.18V127.5C133.37 127.42 133.55 127.39 133.75 127.39C134.29 127.39 134.54 127.66 134.54 128.19V132.41H135.95V132.42ZM141.01 132.1V128.45C141.01 127.08 140.36 126.38 138.99 126.38C138.36 126.38 137.73 126.54 137.22 126.81L137.53 127.71C137.89 127.52 138.37 127.4 138.8 127.4C139.38 127.4 139.65 127.7 139.65 128.21V128.47C137.87 128.71 136.92 129.3 136.92 130.66C136.92 131.89 137.72 132.52 139.09 132.52C139.89 132.52 140.55 132.37 141.01 132.09V132.1ZM139.65 131.49C139.51 131.56 139.3 131.6 139.12 131.6C138.55 131.6 138.25 131.21 138.25 130.62C138.25 129.78 138.7 129.43 139.65 129.3V131.49ZM143.62 132.42V123.79H142.21V132.42H143.62ZM146.32 124.75C146.32 124.33 145.97 123.99 145.55 123.99C145.13 123.99 144.79 124.33 144.79 124.75C144.79 125.17 145.13 125.52 145.55 125.52C145.97 125.52 146.32 125.17 146.32 124.75ZM146.26 132.42V126.49H144.84V132.42H146.26Z" fill="white"/>
</g>
<defs>
<clipPath id="clip0_591_10901">
<rect width="158.33" height="146.27" fill="white"/>
</clipPath>
</defs>
</svg>
